<?xml version="1.0" encoding="UTF-8" standalone="no"?>
<!DOCTYPE svg PUBLIC "-//W3C//DTD SVG 1.1//EN" "http://www.w3.org/Graphics/SVG/1.1/DTD/svg11.dtd">
<svg width="100%" height="100%" viewBox="0 0 128 128" version="1.1" xmlns="http://www.w3.org/2000/svg" xmlns:xlink="http://www.w3.org/1999/xlink" xml:space="preserve" xmlns:serif="http://www.serif.com/" style="fill-rule:evenodd;clip-rule:evenodd;stroke-linejoin:round;stroke-miterlimit:2;">
    <g transform="matrix(0.345447,0,0,0.430535,-481.804,-132.256)">
        <path d="M1765.26,336.919L1765.26,574.763C1765.26,591.171 1748.66,604.493 1728.21,604.493L1431.78,604.493C1411.33,604.493 1394.73,591.171 1394.73,574.763L1394.73,336.919C1394.73,320.511 1411.33,307.189 1431.78,307.189L1728.21,307.189C1748.66,307.189 1765.26,320.511 1765.26,336.919Z" style="fill:rgb(170,240,212);"/>
    </g>
    <g transform="matrix(0.110429,0.412128,-0.412128,0.110429,203.207,-432.466)">
        <path d="M1017.5,639.222L994.454,645.358C953.664,656.572 939.044,632.093 939.044,613.395C939.044,597.756 948.219,583.471 960.116,572.257C960.116,572.257 974.312,558.063 988.808,565.087C981.784,550.59 995.979,536.395 995.979,536.395C1007.19,524.497 1021.48,515.322 1037.12,515.322C1055.82,515.322 1080.29,529.942 1069.08,570.733L1062.94,593.784L1085.99,587.647C1126.78,576.433 1141.4,600.912 1141.4,619.61C1141.4,635.25 1132.23,649.534 1120.33,660.748C1120.33,660.748 1106.14,674.943 1091.64,667.918C1098.66,682.415 1084.47,696.61 1084.47,696.61C1073.26,708.508 1058.97,717.683 1043.33,717.683C1024.63,717.683 1000.15,703.063 1011.37,662.273L1017.5,639.222ZM993.811,570.09C978.285,562.138 966.917,577.367 966.917,577.367C961.136,585.186 958.749,594.026 961.472,601.845C963.846,609.665 974.389,617.821 988.325,613.743L1027.1,603.375L1037.46,564.604C1041.54,550.667 1033.39,540.125 1025.57,537.75C1017.75,535.028 1008.91,537.414 1001.09,543.195C1001.09,543.195 985.86,554.564 993.811,570.09ZM1086.64,662.916C1102.16,670.867 1113.53,655.639 1113.53,655.639C1119.31,647.819 1121.7,638.98 1118.98,631.16C1116.6,623.34 1106.06,615.185 1092.12,619.262L1053.35,629.631L1042.98,668.402C1038.91,682.338 1047.06,692.88 1054.88,695.255C1062.7,697.978 1071.54,695.591 1079.36,689.81C1079.36,689.81 1094.59,678.441 1086.64,662.916Z" style="fill:rgb(10,91,74);"/>
    </g>
</svg>
