<?xml version="1.0" encoding="UTF-8" standalone="no"?>
<!DOCTYPE svg PUBLIC "-//W3C//DTD SVG 1.1//EN" "http://www.w3.org/Graphics/SVG/1.1/DTD/svg11.dtd">
<svg width="100%" height="100%" viewBox="0 0 730 94" version="1.1" xmlns="http://www.w3.org/2000/svg" xmlns:xlink="http://www.w3.org/1999/xlink" xml:space="preserve" xmlns:serif="http://www.serif.com/" style="fill-rule:evenodd;clip-rule:evenodd;stroke-linejoin:round;stroke-miterlimit:2;">
    <g transform="matrix(1,0,0,1,-2106.29,-1304.92)">
        <g transform="matrix(1,0,0,1,1511,-0.168391)">
            <g id="Oracle-Logo" serif:id="Oracle Logo" transform="matrix(1,0,0,1,560,-246.516)">
                <g transform="matrix(4.15032,0,0,4.15032,0,1198.17)">
                    <path d="M131.463,85.484L135.074,85.484L135.074,103.984L150.729,103.984L148.43,107.598L131.463,107.598L131.463,85.484ZM103.109,107.598L89.753,86.524C88.932,85.156 86.743,85.156 85.812,86.579L72.566,107.598L76.945,107.598L80.941,101.248L89.48,101.248L91.725,97.635L83.186,97.635L87.839,90.356L98.732,107.598L103.109,107.598ZM111.236,85.491C105.134,85.491 101.117,90.438 101.117,96.541C101.117,102.643 105.135,107.592 111.236,107.592L126.074,107.574L128.396,103.992L111.345,103.992C107.232,103.992 104.825,100.656 104.825,96.541C104.825,92.426 107.231,89.09 111.345,89.09L126.534,89.09L128.776,85.48L111.236,85.491ZM18.624,89.09L34.278,89.09C38.393,89.09 40.799,92.426 40.799,96.541C40.799,100.656 38.394,103.992 34.278,103.992L18.624,103.992C14.509,103.992 12.104,100.656 12.104,96.541C12.104,92.426 14.509,89.09 18.624,89.09ZM18.624,85.491C12.521,85.491 8.504,90.438 8.504,96.541C8.504,102.643 12.521,107.592 18.624,107.592L34.278,107.592C40.381,107.592 44.398,102.643 44.398,96.541C44.398,90.438 40.381,85.491 34.278,85.491L18.624,85.491ZM154.588,98.293C155.176,101.563 157.426,103.992 160.938,103.992L177.989,103.992L175.665,107.574L160.829,107.592C154.725,107.592 150.71,102.643 150.71,96.541C150.71,90.438 154.726,85.491 160.829,85.491L178.368,85.481L176.128,89.091L160.939,89.091C157.476,89.091 155.216,91.479 154.589,94.681L176.019,94.681L173.72,98.294L154.588,98.294L154.588,98.293ZM64.821,98.613C68.377,98.551 71.268,95.609 71.268,92.052C71.268,88.495 68.377,85.553 64.821,85.491L46.402,85.483L46.402,107.597L50.453,107.597L50.453,89.091L64.821,89.091C66.445,89.091 67.782,90.428 67.782,92.052C67.782,93.676 66.445,95.013 64.821,95.013L53.299,95.013L66.297,107.572L71.526,107.572L62.221,98.621L64.821,98.613ZM182.152,85.504C183.091,85.504 183.834,86.246 183.834,87.23C183.834,88.23 183.092,88.966 182.152,88.966C181.201,88.966 180.461,88.23 180.461,87.23C180.461,86.246 181.201,85.504 182.152,85.504L182.152,85.158C181.009,85.158 180.043,86.037 180.043,87.229C180.043,88.433 181.01,89.312 182.152,89.312C183.285,89.312 184.252,88.433 184.252,87.229C184.252,86.037 183.285,85.158 182.152,85.158L182.152,85.504Z"/>
                </g>
                <g transform="matrix(4.15032,0,0,4.15032,0,1198.17)">
                    <path d="M181.711,86.345L182.209,86.345C182.461,86.345 182.73,86.4 182.73,86.697C182.73,87.065 182.455,87.088 182.146,87.088L181.712,87.088L181.712,87.396L182.13,87.396L182.763,88.435L183.169,88.435L182.487,87.38C182.839,87.336 183.108,87.15 183.108,86.721C183.108,86.248 182.827,86.039 182.262,86.039L181.348,86.039L181.348,88.435L181.711,88.435L181.711,86.345Z"/>
                </g>
            </g>
        </g>
    </g>
</svg>
