<?xml version="1.0" encoding="UTF-8" standalone="no"?>
<!DOCTYPE svg PUBLIC "-//W3C//DTD SVG 1.1//EN" "http://www.w3.org/Graphics/SVG/1.1/DTD/svg11.dtd">
<svg width="100%" height="100%" viewBox="0 0 645 142" version="1.1" xmlns="http://www.w3.org/2000/svg" xmlns:xlink="http://www.w3.org/1999/xlink" xml:space="preserve" xmlns:serif="http://www.serif.com/" style="fill-rule:evenodd;clip-rule:evenodd;stroke-linejoin:round;stroke-miterlimit:2;">
    <g transform="matrix(1,0,0,1,-1561.54,-1850.34)">
        <g transform="matrix(1,0,0,1,1511,-0.168391)">
            <g id="Veradigm-Logo" serif:id="Veradigm Logo" transform="matrix(1,0,0,1,50.5515,1850.52)">
                <path d="M170.34,46.72L176.78,46.72C178.501,46.716 180.188,47.205 181.64,48.13C183.091,49.002 184.208,50.338 184.81,51.92L200.63,88.2C200.941,88.984 201.169,89.798 201.31,90.63C201.46,91.49 201.57,92.42 201.65,93.4C201.657,91.613 202.021,89.845 202.72,88.2L218.54,51.86C219.204,50.297 220.332,48.974 221.77,48.07C223.198,47.142 224.867,46.652 226.57,46.66L233,46.66L207.12,106.05L196.22,106.05L170.34,46.72Z" style="fill:rgb(47,34,87);fill-rule:nonzero;"/>
                <path d="M291.16,71.36C291.182,72.579 290.922,73.788 290.4,74.89C289.925,75.874 289.286,76.77 288.51,77.54C287.781,78.256 286.927,78.832 285.99,79.24C285.163,79.616 284.268,79.817 283.36,79.83L242.11,79.83C242.434,82.088 243.202,84.26 244.37,86.22C245.522,88.156 246.993,89.884 248.72,91.33C250.473,92.793 252.461,93.95 254.6,94.75C258.387,96.178 262.528,96.388 266.44,95.35C268.028,94.919 269.558,94.302 271,93.51C271.692,93.115 272.431,92.809 273.2,92.6C273.979,92.409 274.778,92.315 275.58,92.32C276.706,92.306 277.822,92.538 278.85,93C279.886,93.495 280.824,94.173 281.62,95L283.77,97.15C280.95,100.155 277.57,102.581 273.82,104.29C269.94,106.063 265.716,106.961 261.45,106.92C257.38,106.943 253.35,106.126 249.61,104.52C242.278,101.414 236.436,95.572 233.33,88.24C230.131,80.678 230.131,72.132 233.33,64.57C236.438,57.238 242.274,51.391 249.6,48.27C253.34,46.664 257.37,45.847 261.44,45.87C264.87,45.856 268.276,46.449 271.5,47.62C274.634,48.753 277.57,50.373 280.2,52.42C282.803,54.463 285.064,56.907 286.9,59.66C288.744,62.442 290.097,65.52 290.9,68.76C291.013,69.184 291.071,69.621 291.07,70.06C291.11,70.51 291.12,70.94 291.16,71.36ZM246.35,68.93L279.58,68.93C278.831,67.159 277.842,65.5 276.64,64C274.233,60.998 270.984,58.783 267.31,57.64C263.321,56.394 259.039,56.443 255.08,57.78C253.111,58.455 251.262,59.437 249.6,60.69C246.28,63.219 243.854,66.745 242.68,70.75C243.052,70.281 243.498,69.876 244,69.55C244.7,69.105 245.521,68.888 246.35,68.93Z" style="fill:rgb(47,34,87);fill-rule:nonzero;"/>
                <path d="M308.18,46.72C308.483,47.151 308.757,47.602 309,48.07C309.228,48.557 309.425,49.058 309.59,49.57C309.782,50.181 309.877,50.819 309.87,51.46L309.87,55.59C310.591,54.175 311.548,52.893 312.7,51.8C313.928,50.613 315.294,49.579 316.77,48.72C318.304,47.824 319.943,47.122 321.65,46.63C323.388,46.125 325.19,45.869 327,45.87C329.959,45.849 332.894,46.406 335.64,47.51L334.8,52.31C334.588,53.739 333.88,55.05 332.8,56.01C331.706,56.914 330.318,57.387 328.9,57.34C328.787,57.358 328.673,57.358 328.56,57.34C328.494,57.325 328.426,57.325 328.36,57.34C328.22,57.348 328.08,57.348 327.94,57.34L326.94,57.34C324.764,57.33 322.6,57.667 320.53,58.34C318.644,58.932 316.854,59.798 315.22,60.91C313.78,61.877 312.524,63.093 311.51,64.5C310.638,65.67 310.093,67.05 309.93,68.5L309.93,106.13L298.68,106.13L298.68,46.72L308.18,46.72Z" style="fill:rgb(47,34,87);fill-rule:nonzero;"/>
                <path d="M340.39,55.42C340.793,54.818 341.245,54.249 341.74,53.72C342.279,53.155 342.847,52.618 343.44,52.11C344.197,51.474 344.988,50.879 345.81,50.33C348.074,48.887 350.527,47.766 353.1,47C355.932,46.196 358.866,45.806 361.81,45.84C364.679,45.783 367.538,46.185 370.28,47.03C372.531,47.733 374.631,48.853 376.47,50.33C378.165,51.72 379.583,53.416 380.65,55.33C381.753,57.319 382.609,59.434 383.2,61.63C383.831,63.982 384.256,66.384 384.47,68.81C384.69,71.32 384.81,73.81 384.81,76.41L384.81,106.02L375.65,106.02C375.131,105.367 374.722,104.634 374.44,103.85C374.126,103.029 373.963,102.159 373.96,101.28L373.96,99.78C372.818,100.903 371.534,101.871 370.14,102.66C367.198,104.379 364.007,105.631 360.68,106.37C359.233,106.701 357.755,106.879 356.27,106.9C353.495,106.933 350.734,106.504 348.1,105.63C345.768,104.862 343.614,103.631 341.77,102.01C340.015,100.448 338.625,98.519 337.7,96.36C336.716,94.033 336.225,91.526 336.26,89C336.218,86.265 336.778,83.554 337.9,81.06C339.038,78.673 340.758,76.61 342.9,75.06C345.454,73.24 348.332,71.927 351.38,71.19C355.329,70.223 359.385,69.766 363.45,69.83C364.73,69.83 365.96,69.83 367.15,69.95C368.34,70.07 369.4,70.1 370.34,70.17C371.28,70.24 372.06,70.32 372.69,70.4C373.076,70.435 373.46,70.492 373.84,70.57C373.776,68.218 373.347,65.891 372.57,63.67C372.002,62.07 371.087,60.615 369.89,59.41C368.841,58.399 367.56,57.661 366.16,57.26C363.31,56.511 360.318,56.473 357.45,57.15C356.493,57.431 355.56,57.789 354.66,58.22C353.85,58.62 353.05,58.97 352.26,59.29C351.242,59.646 350.167,59.809 349.09,59.77C348.118,59.777 347.152,59.607 346.24,59.27C345.301,58.901 344.416,58.406 343.61,57.8L340.39,55.42ZM356.21,96.17C357.632,96.157 359.051,96.023 360.45,95.77C361.998,95.498 363.528,95.131 365.03,94.67C366.594,94.191 368.13,93.623 369.63,92.97C371.134,92.323 372.594,91.578 374,90.74L374,80.79C373.616,80.736 373.228,80.709 372.84,80.71L370.42,80.62L367.19,80.54L363.55,80.54C361.358,80.532 359.169,80.685 357,81C355.19,81.242 353.423,81.737 351.75,82.47C350.388,83.055 349.184,83.957 348.24,85.1C347.392,86.219 346.954,87.597 347,89C346.964,90.151 347.208,91.294 347.71,92.33C348.178,93.225 348.866,93.985 349.71,94.54C350.601,95.133 351.594,95.553 352.64,95.78C353.812,96.042 355.009,96.173 356.21,96.17Z" style="fill:rgb(47,34,87);fill-rule:nonzero;"/>
                <path d="M439.29,106.05C438.947,105.64 438.661,105.186 438.44,104.7C438.222,104.211 438.031,103.71 437.87,103.2C437.676,102.589 437.582,101.951 437.59,101.31L437.59,100.91C436.495,102.023 435.269,103 433.94,103.82C432.718,104.575 431.421,105.202 430.07,105.69C428.774,106.158 427.434,106.494 426.07,106.69C424.761,106.87 423.441,106.964 422.12,106.97C418.104,107.006 414.126,106.188 410.45,104.57C406.929,103.025 403.754,100.791 401.11,98C398.477,95.175 396.404,91.877 395,88.28C392.028,80.669 392.028,72.211 395,64.6C396.419,60.999 398.51,57.7 401.16,54.88C403.802,52.096 406.974,49.869 410.49,48.33C415.398,46.186 420.808,45.452 426.11,46.21C427.472,46.415 428.811,46.75 430.11,47.21C431.449,47.662 432.734,48.263 433.94,49C435.269,49.82 436.495,50.797 437.59,51.91L437.59,25.07L448.78,25.07L448.78,106.07L439.29,106.05ZM422.11,56.83C419.539,56.799 416.993,57.332 414.65,58.39C412.437,59.386 410.447,60.818 408.8,62.6C407.147,64.407 405.857,66.516 405,68.81C403.201,73.736 403.201,79.144 405,84.07C405.863,86.369 407.16,88.481 408.82,90.29C410.47,92.069 412.459,93.5 414.67,94.5C417.015,95.55 419.561,96.079 422.13,96.05C427.934,96.023 433.5,93.708 437.61,89.61L437.61,63.27C433.492,59.183 427.932,56.87 422.13,56.83L422.11,56.83Z" style="fill:rgb(47,34,87);fill-rule:nonzero;"/>
                <path d="M457.32,31.8C457.308,30.769 457.512,29.747 457.92,28.8C458.702,26.974 460.167,25.524 462,24.76C463.901,23.974 466.039,23.974 467.94,24.76C468.847,25.148 469.671,25.704 470.37,26.4C471.058,27.103 471.611,27.927 472,28.83C472.786,30.728 472.786,32.862 472,34.76C471.614,35.667 471.057,36.492 470.36,37.19C469.664,37.889 468.839,38.446 467.93,38.83C466.032,39.63 463.888,39.63 461.99,38.83C461.081,38.446 460.256,37.889 459.56,37.19C458.863,36.494 458.309,35.669 457.93,34.76C457.524,33.826 457.316,32.818 457.32,31.8ZM470.49,46.72L470.49,106.05L459.3,106.05L459.3,46.72L470.49,46.72Z" style="fill:rgb(47,34,87);fill-rule:nonzero;"/>
                <path d="M531.36,54.18C530.829,55.622 529.874,56.871 528.62,57.76C526.927,58.714 524.988,59.146 523.05,59C523.654,60.403 524.126,61.859 524.46,63.35C524.813,64.875 524.995,66.435 525,68C525.02,70.963 524.424,73.899 523.25,76.62C521,81.923 516.773,86.15 511.47,88.4C508.749,89.573 505.813,90.169 502.85,90.15C499.438,90.177 496.065,89.41 493,87.91C491.972,88.491 491.068,89.27 490.34,90.2C490.06,90.615 489.884,91.092 489.83,91.59C489.829,91.843 489.887,92.093 490,92.32L490.23,92.55C490.724,92.993 491.329,93.294 491.98,93.42C492.964,93.695 493.966,93.895 494.98,94.02C496.13,94.17 497.38,94.27 498.74,94.33C500.1,94.39 501.4,94.41 502.64,94.41C505.16,94.41 507.73,94.53 510.32,94.75C512.764,94.947 515.175,95.441 517.5,96.22C520.369,97.103 522.898,98.849 524.74,101.22C526.434,103.6 527.306,106.47 527.22,109.39C527.252,111.652 526.77,113.892 525.81,115.94C524.848,117.926 523.433,119.66 521.68,121C519.703,122.5 517.46,123.613 515.07,124.28C512.184,125.09 509.197,125.481 506.2,125.44C503.578,125.443 500.959,125.235 498.37,124.82C495.83,124.4 493.373,123.87 491,123.23C488.62,122.59 486.33,121.87 484.1,121.06C481.87,120.25 479.79,119.47 477.83,118.71L479.19,114.93C479.669,113.572 480.65,112.448 481.93,111.79C483.3,111.018 484.848,110.618 486.42,110.63C487.39,110.632 488.356,110.746 489.3,110.97C490.189,111.181 491.058,111.465 491.9,111.82L493.77,112.53C494.63,112.85 495.7,113.17 496.96,113.53C498.367,113.899 499.792,114.193 501.23,114.41C502.885,114.658 504.556,114.782 506.23,114.78C507.236,114.76 508.239,114.663 509.23,114.49C510.38,114.316 511.507,114.014 512.59,113.59C513.594,113.211 514.517,112.644 515.31,111.92C516.031,111.287 516.441,110.369 516.43,109.41C516.463,108.792 516.328,108.177 516.04,107.63C515.516,107.026 514.817,106.6 514.04,106.41C512.328,105.858 510.555,105.522 508.76,105.41C506.76,105.26 504.76,105.14 502.6,105.07C500.44,105 498.32,104.89 496.16,104.76C494.086,104.635 492.026,104.341 490,103.88C488.15,103.471 486.368,102.797 484.71,101.88C483.118,100.945 481.8,99.607 480.89,98C480.191,96.786 479.844,95.4 479.89,94C479.992,92.169 480.675,90.417 481.84,89C483.443,86.987 485.499,85.38 487.84,84.31C485.619,82.281 483.838,79.816 482.61,77.07C481.343,74.24 480.699,71.171 480.72,68.07C480.701,65.107 481.297,62.171 482.47,59.45C484.698,54.137 488.906,49.893 494.2,47.62C499.15,45.524 504.699,45.303 509.8,47C511.973,47.737 514.02,48.803 515.87,50.16C516.824,49.628 517.829,49.192 518.87,48.86C520.381,48.408 521.954,48.199 523.53,48.24C524.904,48.253 526.275,48.377 527.63,48.61C529.342,48.897 531.033,49.302 532.69,49.82L531.36,54.18ZM491.4,68C491.387,69.528 491.698,71.041 492.31,72.44C493.486,75.162 495.658,77.334 498.38,78.51C501.215,79.722 504.425,79.722 507.26,78.51C509.977,77.327 512.147,75.157 513.33,72.44C514.529,69.606 514.529,66.404 513.33,63.57C512.15,60.848 509.98,58.674 507.26,57.49C504.423,56.29 501.217,56.29 498.38,57.49C495.655,58.666 493.481,60.843 492.31,63.57C491.697,64.966 491.386,66.476 491.4,68Z" style="fill:rgb(47,34,87);fill-rule:nonzero;"/>
                <path d="M582.5,57.45C583.165,55.501 584.231,53.712 585.63,52.2C586.987,50.743 588.575,49.52 590.33,48.58C592.088,47.635 593.969,46.941 595.92,46.52C597.861,46.093 599.842,45.875 601.83,45.87C605.058,45.773 608.252,46.554 611.07,48.13C613.579,49.608 615.698,51.666 617.25,54.13C618.891,56.742 620.068,59.617 620.73,62.63C621.465,65.848 621.834,69.139 621.83,72.44L621.83,106.06L610.42,106.06L610.42,72.49C610.408,70.741 610.284,68.994 610.05,67.26C609.828,65.495 609.353,63.77 608.64,62.14C607.979,60.65 606.991,59.327 605.75,58.27C604.405,57.198 602.718,56.648 601,56.72C599.148,56.708 597.306,56.985 595.54,57.54C593.92,58.042 592.388,58.795 591,59.77C589.743,60.648 588.658,61.749 587.8,63.02C587.017,64.167 586.557,65.504 586.47,66.89L586.47,106.05L575,106.05L575,72.49C574.993,70.74 574.869,68.993 574.63,67.26C574.413,65.494 573.938,63.769 573.22,62.14C572.558,60.653 571.574,59.331 570.34,58.27C568.985,57.196 567.287,56.645 565.56,56.72C563.712,56.707 561.873,56.984 560.11,57.54C558.487,58.042 556.952,58.795 555.56,59.77C554.321,60.648 553.251,61.742 552.4,63C551.615,64.145 551.159,65.484 551.08,66.87L551.08,106.03L539.89,106.03L539.89,46.72L549.38,46.72C549.683,47.151 549.957,47.602 550.2,48.07C550.436,48.555 550.637,49.056 550.8,49.57C550.988,50.182 551.082,50.82 551.08,51.46L551.08,53.84C551.738,52.507 552.636,51.307 553.73,50.3C554.833,49.304 556.072,48.469 557.41,47.82C558.792,47.149 560.254,46.655 561.76,46.35C563.303,46.03 564.874,45.869 566.45,45.87C568.521,45.833 570.586,46.099 572.58,46.66C574.229,47.15 575.772,47.943 577.13,49C578.416,50.007 579.507,51.241 580.35,52.64C581.253,54.153 581.974,55.768 582.5,57.45Z" style="fill:rgb(47,34,87);fill-rule:nonzero;"/>
                <path d="M41,70.82C35.137,63.631 30.036,55.853 25.78,47.61C25,46 24.21,44.37 23.52,42.72C21.784,38.728 20.484,34.561 19.64,30.29C18.898,26.575 18.682,22.775 19,19C19.461,14.01 21.126,9.206 23.85,5C18.86,8.1 6.35,21.23 5,23.83C1.565,29.191 -0.178,35.465 0,41.83C0.1,49.22 2.42,56.83 5.84,64.18C6.84,66.41 8.01,68.61 9.22,70.76C11.653,75.017 14.324,79.134 17.22,83.09C20.15,87.09 23.11,90.81 25.81,93.96C32.635,101.675 39.925,108.965 47.64,115.79C55.884,111.521 63.663,106.407 70.85,100.53C60.077,91.489 50.091,81.55 41,70.82Z" style="fill:url(#_Linear1);fill-rule:nonzero;"/>
                <path d="M94,115.85C90.85,118.55 87.17,121.51 83.13,124.44C88.68,123.162 93.997,121.026 98.89,118.11C97.26,117.42 95.63,116.66 94,115.85Z" style="fill:url(#_Linear2);fill-rule:nonzero;"/>
                <path d="M47.61,25.78C50.76,23.08 54.44,20.12 58.48,17.19C52.93,18.468 47.613,20.604 42.72,23.52C44.37,24.21 46,25 47.61,25.78Z" style="fill:rgb(50,89,142);fill-rule:nonzero;"/>
                <path d="M23.85,5C21.126,9.206 19.461,14.01 19,19C22.764,18.686 26.552,18.891 30.26,19.61C40.028,11.852 51.827,7.071 64.24,5.84C56.92,2.42 49.28,0.1 41.89,0C35.511,-0.186 29.223,1.557 23.85,5Z" style="fill:rgb(50,89,142);fill-rule:nonzero;"/>
                <path d="M118.6,122.76C116.163,122.718 113.733,122.464 111.34,122C101.58,129.757 89.794,134.548 77.39,135.8C84.71,139.21 92.39,141.53 99.74,141.63C106.122,141.814 112.413,140.072 117.79,136.63C121.91,130.63 122.54,123.23 122.6,122.63C121.27,122.744 119.935,122.788 118.6,122.76Z" style="fill:url(#_Linear3);fill-rule:nonzero;"/>
                <path d="M77.39,5.84C60.498,4.127 43.587,9.082 30.29,19.64C26.344,22.771 22.771,26.344 19.64,30.29C20.484,34.561 21.784,38.728 23.52,42.72C31.211,29.796 43.865,20.566 58.52,17.19C62.478,14.292 66.598,11.621 70.86,9.19C73,8 75.16,6.87 77.39,5.84Z" style="fill:url(#_Linear4);fill-rule:nonzero;"/>
                <path d="M135.8,64.24C134.546,51.837 129.755,40.051 122,30.29C118.866,26.344 115.289,22.771 111.34,19.64C107.069,20.484 102.902,21.784 98.91,23.52C111.834,31.211 121.064,43.865 124.44,58.52C127.338,62.478 130.009,66.598 132.44,70.86C133.65,73 134.79,75.2 135.83,77.43C136.04,75.27 136.15,73.07 136.15,70.86C136.15,68.65 136,66.4 135.8,64.24Z" style="fill:url(#_Linear5);fill-rule:nonzero;"/>
                <path d="M98.91,118.11C94.017,121.026 88.7,123.162 83.15,124.44C79.194,127.336 75.077,130.007 70.82,132.44C68.67,133.65 66.47,134.79 64.24,135.83C66.4,136.04 68.6,136.16 70.82,136.16C73.04,136.16 75.23,136.04 77.39,135.83C89.811,134.587 101.616,129.796 111.39,122.03C115.321,118.881 118.881,115.294 122,111.34C121.148,107.07 119.844,102.903 118.11,98.91C113.405,106.805 106.805,113.405 98.91,118.11Z" style="fill:url(#_Linear6);fill-rule:nonzero;"/>
                <path d="M23.52,98.91C20.604,94.017 18.468,88.7 17.19,83.15C14.294,79.194 11.623,75.077 9.19,70.82C8,68.67 6.87,66.47 5.84,64.24C4.127,81.132 9.082,98.043 19.64,111.34C22.773,115.287 26.346,118.863 30.29,122C34.56,121.148 38.727,119.844 42.72,118.11C34.825,113.405 28.225,106.805 23.52,98.91Z" style="fill:url(#_Linear7);fill-rule:nonzero;"/>
                <path d="M70.82,100.59C63.633,106.467 55.854,111.581 47.61,115.85C46,116.66 44.37,117.42 42.72,118.11C38.727,119.844 34.56,121.148 30.29,122C26.572,122.629 22.794,122.83 19.03,122.6C14.043,122.148 9.239,120.494 5.03,117.78C6.83,121.01 19.45,134.13 23.87,136.63C29.231,140.065 35.505,141.808 41.87,141.63C49.26,141.53 56.87,139.21 64.22,135.8C66.45,134.8 68.65,133.62 70.8,132.41C75.057,129.977 79.174,127.306 83.13,124.41C87.13,121.48 90.85,118.52 94,115.82C101.721,108.999 109.018,101.712 115.85,94C111.584,85.757 106.469,77.982 100.59,70.8C93.3,80.13 81.65,91.79 70.82,100.59Z" style="fill:url(#_Linear8);fill-rule:nonzero;"/>
                <path d="M136.64,23.85C132.395,21.214 127.609,19.57 122.64,19.04C122.924,22.802 122.709,26.585 122,30.29C129.76,40.048 134.552,51.835 135.8,64.24C139.21,56.92 141.53,49.24 141.63,41.89C141.819,35.512 140.08,29.224 136.64,23.85Z" style="fill:url(#_Linear9);fill-rule:nonzero;"/>
                <path d="M115.85,47.61C118.55,50.76 121.51,54.44 124.44,58.48C123.162,52.93 121.026,47.613 118.11,42.72C117.42,44.37 116.66,46 115.85,47.61Z" style="fill:url(#_Linear10);fill-rule:nonzero;"/>
                <path d="M25.78,94C23.08,90.85 20.12,87.17 17.19,83.13C18.468,88.68 20.604,93.997 23.52,98.89C24.21,97.26 25,95.63 25.78,94Z" style="fill:url(#_Linear11);fill-rule:nonzero;"/>
                <path d="M19.64,111.34C11.88,101.582 7.088,89.795 5.84,77.39C2.42,84.71 0.1,92.35 0,99.74C-0.178,106.105 1.565,112.379 5,117.74C9.209,120.454 14.013,122.108 19,122.56C18.643,118.809 18.859,115.026 19.64,111.34Z" style="fill:url(#_Linear12);fill-rule:nonzero;"/>
                <path d="M141.63,99.74C141.53,92.35 139.21,84.74 135.8,77.39C134.8,75.16 133.62,72.96 132.41,70.82C129.979,66.558 127.308,62.438 124.41,58.48C121.48,54.48 118.52,50.76 115.82,47.61C108.998,39.895 101.711,32.605 94,25.78C85.766,30.035 77.997,35.136 70.82,41C79.96,48 93.48,61.74 100.59,70.78C106.436,77.994 111.548,85.772 115.85,94C116.66,95.61 117.42,97.24 118.11,98.89C119.846,102.89 121.15,107.064 122,111.34C122.674,115.053 122.875,118.836 122.6,122.6C122.54,123.24 121.91,130.6 117.79,136.6C123.5,132.23 132.27,123.6 136.64,117.74C140.19,113 141.72,106.49 141.63,99.74Z" style="fill:url(#_Linear13);fill-rule:nonzero;"/>
                <path d="M23.52,98.91C24.21,97.26 24.97,95.63 25.78,94.02C23.08,90.87 20.12,87.19 17.19,83.15C18.468,88.7 20.604,94.017 23.52,98.91Z" style="fill:url(#_Linear14);fill-rule:nonzero;"/>
                <path d="M5.84,77.39C2.42,84.71 0.1,92.35 0,99.74C-0.178,106.105 1.565,112.379 5,117.74C9.209,120.454 14.013,122.108 19,122.56C18.629,118.798 18.835,115 19.61,111.3C11.868,101.55 7.087,89.778 5.84,77.39Z" style="fill:url(#_Linear15);fill-rule:nonzero;"/>
                <path d="M117.79,5C112.392,1.605 106.115,-0.134 99.74,0C92.35,0.1 84.74,2.42 77.39,5.84C75.16,6.87 73,8 70.82,9.22C66.558,11.651 62.438,14.322 58.48,17.22C54.48,20.15 50.79,23.14 47.61,25.81C39.785,32.506 32.487,39.794 25.78,47.61C30.036,55.853 35.137,63.631 41,70.82C48.09,61.28 62.23,47.94 70.82,41C77.997,35.136 85.766,30.035 94,25.78C95.61,24.97 97.24,24.21 98.89,23.52C102.882,21.784 107.049,20.484 111.32,19.64C115.035,18.925 118.828,18.709 122.6,19C127.571,19.528 132.358,21.176 136.6,23.82C131.34,16.07 121.53,7.39 117.79,5Z" style="fill:url(#_Linear16);fill-rule:nonzero;"/>
                <path d="M3,99.78C3.068,95.953 3.681,92.154 4.82,88.5C5.364,86.758 5.998,85.046 6.72,83.37C6.33,81.37 6.04,79.37 5.84,77.37C2.42,84.71 0.1,92.35 0,99.74C-0.178,106.105 1.565,112.379 5,117.74C6.751,118.875 8.614,119.827 10.56,120.58C9.34,118.87 8.18,117.06 7.18,115.58C4.57,111.68 2.93,105.66 3,99.78Z" style="fill:url(#_Linear17);fill-rule:nonzero;"/>
                <path d="M119.06,125.78C119.77,125.78 120.98,125.78 122.15,125.68C122.47,124 122.58,122.84 122.6,122.6C121.27,122.724 119.935,122.778 118.6,122.76C116.163,122.718 113.733,122.464 111.34,122C110.27,122.85 109.16,123.66 108.04,124.45C109.5,124.75 111.77,125.13 112.13,125.19C114.419,125.584 116.737,125.782 119.06,125.78Z" style="fill:url(#_Linear18);fill-rule:nonzero;"/>
                <path d="M141.63,41.89C141.808,35.525 140.065,29.251 136.63,23.89C134.73,22.718 132.721,21.733 130.63,20.95C128.539,20.167 132.89,23.72 134.46,26.1C137.46,30.6 138.7,36.03 138.62,41.9C138.475,45.719 137.867,49.507 136.81,53.18C136.314,54.897 135.675,56.569 134.9,58.18C135.287,60.18 135.587,62.2 135.8,64.24C139.21,56.92 141.53,49.28 141.63,41.89Z" style="fill:url(#_Linear19);fill-rule:nonzero;"/>
                <path d="M32.16,22C41.467,14.598 52.709,10.026 64.54,8.83L65.72,8.72C67.1,8.58 70.3,8.18 73,8C74.43,7.24 75.88,6.51 77.35,5.83C60.458,4.117 43.547,9.072 30.25,19.63C26.318,22.766 22.758,26.343 19.64,30.29C19.87,31.55 20.17,32.8 20.51,34.06C21.39,32.93 22.18,31.94 22.87,31.06C25.646,27.728 28.759,24.691 32.16,22Z" style="fill:url(#_Linear20);fill-rule:nonzero;"/>
                <path d="M133.71,73.5L133.71,73.15L133.58,72.9L133.71,73.5Z" style="fill:rgb(244,121,32);fill-rule:nonzero;"/>
                <path d="M136.12,70.82C136.12,68.6 136.01,66.4 135.8,64.24C133.993,46.691 125.167,30.597 111.34,19.64C110.1,19.87 108.86,20.16 107.62,20.49C108.71,21.33 109.76,22.24 110.55,22.87C113.893,25.644 116.939,28.758 119.64,32.16C127.088,41.439 131.663,52.696 132.8,64.54C132.89,65.54 133.47,70.54 133.68,73.15C134.42,74.54 135.13,75.96 135.8,77.39C136,75.23 136.12,73 136.12,70.82Z" style="fill:url(#_Linear21);fill-rule:nonzero;"/>
                <path d="M100.45,120.7C107.03,116.772 112.776,111.591 117.36,105.45C118.15,104.39 118.88,103.33 119.51,102.45C119.08,101.25 118.62,100.06 118.11,98.88C110.419,111.804 97.765,121.034 83.11,124.41C80.93,125.99 78.65,127.55 76.28,129.06L84.39,127.2C90.041,125.856 95.455,123.665 100.45,120.7Z" style="fill:url(#_Linear22);fill-rule:nonzero;"/>
                <path d="M20.93,100.45C24.858,107.03 30.039,112.776 36.18,117.36C37.25,118.19 38.28,118.86 39.18,119.49C40.35,119.06 41.52,118.61 42.68,118.11C29.756,110.419 20.526,97.765 17.15,83.11C15.61,80.98 14.07,78.74 12.59,76.42C12.93,78.31 13.59,81.06 14.36,84.42C15.728,90.064 17.944,95.469 20.93,100.45Z" style="fill:url(#_Linear23);fill-rule:nonzero;"/>
                <path d="M16,18.77C15.643,22.807 15.862,26.875 16.65,30.85C17.538,35.315 18.899,39.673 20.71,43.85C21.43,45.53 22.22,47.24 23.06,48.91C27.416,57.372 32.658,65.347 38.7,72.7C45,80.56 57.25,93 66,100.52L68.4,102.52C69.22,101.89 70.01,101.26 70.79,100.64C60.033,91.562 50.067,81.586 41,70.82C35.137,63.631 30.036,55.853 25.78,47.61C25,46 24.21,44.37 23.52,42.72C21.784,38.728 20.484,34.561 19.64,30.29C18.898,26.575 18.682,22.775 19,19C19.461,14.01 21.126,9.206 23.85,5C21.847,6.376 19.961,7.915 18.21,9.6C17.424,11.457 16.864,13.4 16.54,15.39C16.303,16.507 16.122,17.635 16,18.77Z" style="fill:url(#_Linear24);fill-rule:nonzero;"/>
                <path d="M49.55,28.08C52.55,25.54 56.23,22.54 60.24,19.63C64.106,16.811 68.13,14.214 72.29,11.85C74.41,10.65 76.56,9.55 78.66,8.56C86.37,5 93.48,3.1 99.78,3C105.563,2.878 111.258,4.449 116.16,7.52C119.899,10.194 123.384,13.207 126.57,16.52C128.005,17.884 129.361,19.33 130.63,20.85C132.725,21.647 134.735,22.652 136.63,23.85C131.34,16.07 121.53,7.39 117.79,5C112.392,1.605 106.115,-0.134 99.74,0C92.35,0.1 84.74,2.42 77.39,5.84C75.16,6.87 73,8 70.82,9.22C66.558,11.651 62.438,14.322 58.48,17.22C54.48,20.15 50.79,23.14 47.61,25.81C39.785,32.506 32.487,39.794 25.78,47.61C26.25,48.55 26.73,49.47 27.23,50.39C27.98,49.58 28.71,48.77 29.37,48.01C35.628,40.908 42.371,34.249 49.55,28.08Z" style="fill:url(#_Linear25);fill-rule:nonzero;"/>
                <path d="M18.75,125.6L18.85,125.6C22.862,125.854 26.889,125.636 30.85,124.95C35.315,124.062 39.673,122.701 43.85,120.89C45.53,120.17 47.23,119.38 48.91,118.55C57.366,114.197 65.34,108.964 72.7,102.94C82.55,94.94 94.84,82.94 100.54,75.66C101.207,74.767 101.827,73.927 102.4,73.14C101.79,72.35 101.18,71.58 100.58,70.83C93.29,80.14 81.64,91.83 70.81,100.6C63.623,106.477 55.844,111.591 47.6,115.86C45.99,116.67 44.36,117.43 42.71,118.12C38.719,119.85 34.556,121.151 30.29,122C26.572,122.629 22.794,122.83 19.03,122.6C14.043,122.148 9.239,120.494 5.03,117.78C6.489,119.916 8.128,121.924 9.93,123.78C11.707,124.338 13.517,124.782 15.35,125.11C16.64,125.3 17.58,125.48 18.75,125.6Z" style="fill:url(#_Linear26);fill-rule:nonzero;"/>
                <path d="M41.85,3C45.675,3.098 49.469,3.71 53.13,4.82C55.018,5.303 56.873,5.911 58.68,6.64C60.507,6.293 62.36,6.027 64.24,5.84C56.92,2.42 49.28,0.1 41.89,0C35.525,-0.178 29.251,1.565 23.89,5C22.813,6.663 21.902,8.428 21.17,10.27C22.48,9.41 24.17,8.37 26.07,7.18C30.823,4.309 36.299,2.858 41.85,3Z" style="fill:url(#_Linear27);fill-rule:nonzero;"/>
                <path d="M135.8,77.39C134.8,75.16 133.62,72.96 132.41,70.82C129.979,66.558 127.308,62.438 124.41,58.48C121.48,54.48 118.52,50.76 115.82,47.61C108.998,39.895 101.711,32.605 94,25.78C93,26.26 92.07,26.78 91.12,27.28C91.85,27.9 92.66,28.6 93.56,29.39C100.59,35.746 107.267,42.483 113.56,49.57C116.56,53.1 119.42,56.69 121.99,60.24C124.806,64.11 127.407,68.133 129.78,72.29C130.97,74.41 132.07,76.55 133.06,78.66C136.65,86.37 138.52,93.47 138.61,99.78C138.69,106.29 137.14,112.05 134.21,115.99C131.427,119.583 128.385,122.969 125.11,126.12C124,127.18 122.61,128.39 121.11,129.61C120.336,132.092 119.208,134.45 117.76,136.61C123.47,132.24 132.24,123.61 136.61,117.75C140.16,112.97 141.69,106.46 141.61,99.75C141.53,92.35 139.21,84.71 135.8,77.39Z" style="fill:url(#_Linear28);fill-rule:nonzero;"/>
                <path d="M98.91,118.11C97.26,117.42 95.63,116.66 94.02,115.85C93.18,116.57 92.3,117.31 91.39,118.06C92.763,118.727 94.137,119.363 95.51,119.97C96.67,119.39 97.8,118.77 98.91,118.11Z" style="fill:url(#_Linear29);fill-rule:nonzero;"/>
                <path d="M119.54,122.76L118.61,122.76C117.54,122.76 116.46,122.68 115.38,122.57C114.04,122.44 112.7,122.25 111.38,121.99C110.3,122.85 109.2,123.66 108.07,124.45L110.81,124.96L112.17,125.2L112.32,125.2C112.82,125.28 113.32,125.36 113.82,125.42L115.28,125.58L115.54,125.58C116,125.58 116.47,125.66 116.92,125.68L119.13,125.68C120.13,125.68 121.13,125.68 122.13,125.57C122.13,125.43 122.13,125.3 122.2,125.17C122.27,125.04 122.3,124.66 122.34,124.41C122.44,123.78 122.52,123.14 122.58,122.5C121.6,122.69 120.58,122.75 119.54,122.76Z" style="fill:url(#_Linear30);fill-rule:nonzero;"/>
                <path d="M636.93,101L635.78,101L635.78,103L633.68,103L633.68,95.52L637.08,95.52C637.68,95.507 638.276,95.619 638.83,95.85C639.799,96.253 640.419,97.221 640.38,98.27C640.395,98.767 640.263,99.258 640,99.68C639.738,100.087 639.367,100.413 638.93,100.62L640.53,102.96L638.28,102.96L636.93,101ZM637.93,97.48C637.642,97.268 637.286,97.169 636.93,97.2L635.76,97.2L635.76,99.37L637,99.37C637.356,99.401 637.712,99.302 638,99.09C638.226,98.887 638.347,98.593 638.33,98.29C638.34,97.965 638.19,97.655 637.93,97.46L637.93,97.48Z" style="fill:rgb(47,34,87);fill-rule:nonzero;"/>
                <path d="M636.81,106.74C632.564,106.74 629.07,103.246 629.07,99C629.07,94.754 632.564,91.26 636.81,91.26C641.056,91.26 644.55,94.754 644.55,99C644.55,103.246 641.056,106.74 636.81,106.74ZM636.81,92.36C633.162,92.36 630.16,95.362 630.16,99.01C630.16,102.658 633.162,105.66 636.81,105.66C640.458,105.66 643.46,102.658 643.46,99.01C643.46,99.007 643.46,99.003 643.46,99C643.449,95.358 640.452,92.365 636.81,92.36Z" style="fill:rgb(47,34,87);fill-rule:nonzero;"/>
            </g>
        </g>
    </g>
    <defs>
        <linearGradient id="_Linear1" x1="0" y1="0" x2="1" y2="0" gradientUnits="userSpaceOnUse" gradientTransform="matrix(-94.6,-120.63,120.63,-94.6,98.8,143.99)"><stop offset="0" style="stop-color:rgb(47,34,87);stop-opacity:1"/><stop offset="0.37" style="stop-color:rgb(42,31,82);stop-opacity:1"/><stop offset="0.81" style="stop-color:rgb(29,22,68);stop-opacity:1"/><stop offset="1" style="stop-color:rgb(21,17,59);stop-opacity:1"/></linearGradient>
        <linearGradient id="_Linear2" x1="0" y1="0" x2="1" y2="0" gradientUnits="userSpaceOnUse" gradientTransform="matrix(-1490.9,-1036.21,1036.21,-1490.9,1738.25,1310.8)"><stop offset="0" style="stop-color:rgb(47,34,87);stop-opacity:1"/><stop offset="0.37" style="stop-color:rgb(42,31,82);stop-opacity:1"/><stop offset="0.81" style="stop-color:rgb(29,22,68);stop-opacity:1"/><stop offset="1" style="stop-color:rgb(21,17,59);stop-opacity:1"/></linearGradient>
        <linearGradient id="_Linear3" x1="0" y1="0" x2="1" y2="0" gradientUnits="userSpaceOnUse" gradientTransform="matrix(-4276.41,-2369.76,2369.76,-4276.41,4902.2,2828.45)"><stop offset="0" style="stop-color:rgb(47,34,87);stop-opacity:1"/><stop offset="0.37" style="stop-color:rgb(42,31,82);stop-opacity:1"/><stop offset="0.81" style="stop-color:rgb(29,22,68);stop-opacity:1"/><stop offset="1" style="stop-color:rgb(21,17,59);stop-opacity:1"/></linearGradient>
        <linearGradient id="_Linear4" x1="0" y1="0" x2="1" y2="0" gradientUnits="userSpaceOnUse" gradientTransform="matrix(-53.95,36.77,-36.77,-53.95,73.47,-0.66)"><stop offset="0" style="stop-color:rgb(158,28,49);stop-opacity:1"/><stop offset="1" style="stop-color:rgb(192,32,43);stop-opacity:1"/></linearGradient>
        <linearGradient id="_Linear5" x1="0" y1="0" x2="1" y2="0" gradientUnits="userSpaceOnUse" gradientTransform="matrix(966.75,2025.54,-2025.54,966.75,3968.52,1180.06)"><stop offset="0" style="stop-color:rgb(47,34,87);stop-opacity:1"/><stop offset="0.37" style="stop-color:rgb(42,31,82);stop-opacity:1"/><stop offset="0.81" style="stop-color:rgb(29,22,68);stop-opacity:1"/><stop offset="1" style="stop-color:rgb(21,17,59);stop-opacity:1"/></linearGradient>
        <linearGradient id="_Linear6" x1="0" y1="0" x2="1" y2="0" gradientUnits="userSpaceOnUse" gradientTransform="matrix(-47.71,35.2,-35.2,-47.71,121.08,104.36)"><stop offset="0" style="stop-color:rgb(241,88,76);stop-opacity:1"/><stop offset="1" style="stop-color:rgb(239,56,48);stop-opacity:1"/></linearGradient>
        <linearGradient id="_Linear7" x1="0" y1="0" x2="1" y2="0" gradientUnits="userSpaceOnUse" gradientTransform="matrix(-24.33,-59.52,59.52,-24.33,32.4,121.16)"><stop offset="0" style="stop-color:rgb(50,89,142);stop-opacity:1"/><stop offset="0.01" style="stop-color:rgb(49,88,141);stop-opacity:1"/><stop offset="0.26" style="stop-color:rgb(41,76,127);stop-opacity:1"/><stop offset="0.48" style="stop-color:rgb(38,72,122);stop-opacity:1"/><stop offset="0.72" style="stop-color:rgb(40,75,125);stop-opacity:1"/><stop offset="0.92" style="stop-color:rgb(46,83,135);stop-opacity:1"/><stop offset="1" style="stop-color:rgb(50,89,142);stop-opacity:1"/></linearGradient>
        <linearGradient id="_Linear8" x1="0" y1="0" x2="1" y2="0" gradientUnits="userSpaceOnUse" gradientTransform="matrix(-12171.4,8031.4,-8031.4,-12171.4,15352.5,1877.28)"><stop offset="0" style="stop-color:rgb(158,28,49);stop-opacity:1"/><stop offset="1" style="stop-color:rgb(192,32,43);stop-opacity:1"/></linearGradient>
        <linearGradient id="_Linear9" x1="0" y1="0" x2="1" y2="0" gradientUnits="userSpaceOnUse" gradientTransform="matrix(-2157.49,5124.32,-5124.32,-2157.49,2906.72,1314.92)"><stop offset="0" style="stop-color:rgb(158,28,49);stop-opacity:1"/><stop offset="1" style="stop-color:rgb(192,32,43);stop-opacity:1"/></linearGradient>
        <linearGradient id="_Linear10" x1="0" y1="0" x2="1" y2="0" gradientUnits="userSpaceOnUse" gradientTransform="matrix(-943.44,1786.71,-1786.71,-943.44,1336.92,500.548)"><stop offset="0" style="stop-color:rgb(158,28,49);stop-opacity:1"/><stop offset="1" style="stop-color:rgb(192,32,43);stop-opacity:1"/></linearGradient>
        <linearGradient id="_Linear11" x1="0" y1="0" x2="1" y2="0" gradientUnits="userSpaceOnUse" gradientTransform="matrix(939.317,-1812.87,1812.87,939.317,14.8707,1859.75)"><stop offset="0" style="stop-color:rgb(241,88,76);stop-opacity:1"/><stop offset="1" style="stop-color:rgb(239,56,48);stop-opacity:1"/></linearGradient>
        <linearGradient id="_Linear12" x1="0" y1="0" x2="1" y2="0" gradientUnits="userSpaceOnUse" gradientTransform="matrix(2149.19,-5195.91,5195.91,2149.19,0.773699,5182.96)"><stop offset="0" style="stop-color:rgb(241,88,76);stop-opacity:1"/><stop offset="1" style="stop-color:rgb(239,56,48);stop-opacity:1"/></linearGradient>
        <linearGradient id="_Linear13" x1="0" y1="0" x2="1" y2="0" gradientUnits="userSpaceOnUse" gradientTransform="matrix(103.1,106.28,-106.28,103.1,33.67,6.21)"><stop offset="0" style="stop-color:rgb(38,72,122);stop-opacity:1"/><stop offset="0.42" style="stop-color:rgb(41,76,129);stop-opacity:1"/><stop offset="1" style="stop-color:rgb(62,101,153);stop-opacity:1"/></linearGradient>
        <linearGradient id="_Linear14" x1="0" y1="0" x2="1" y2="0" gradientUnits="userSpaceOnUse" gradientTransform="matrix(939.317,-1812.87,1812.87,939.317,14.8707,1859.77)"><stop offset="0" style="stop-color:rgb(241,88,76);stop-opacity:1"/><stop offset="1" style="stop-color:rgb(239,56,48);stop-opacity:1"/></linearGradient>
        <linearGradient id="_Linear15" x1="0" y1="0" x2="1" y2="0" gradientUnits="userSpaceOnUse" gradientTransform="matrix(2145.91,-5195.91,5195.91,2145.91,0.772499,5182.96)"><stop offset="0" style="stop-color:rgb(241,88,76);stop-opacity:1"/><stop offset="1" style="stop-color:rgb(239,56,48);stop-opacity:1"/></linearGradient>
        <linearGradient id="_Linear16" x1="0" y1="0" x2="1" y2="0" gradientUnits="userSpaceOnUse" gradientTransform="matrix(12138.1,-8160,8160,12138.1,457.978,8274.74)"><stop offset="0" style="stop-color:rgb(241,88,76);stop-opacity:1"/><stop offset="1" style="stop-color:rgb(239,56,48);stop-opacity:1"/></linearGradient>
        <linearGradient id="_Linear17" x1="0" y1="0" x2="1" y2="0" gradientUnits="userSpaceOnUse" gradientTransform="matrix(112.31,-113.02,113.02,112.31,-2.59,109.86)"><stop offset="0" style="stop-color:rgb(241,88,76);stop-opacity:1"/><stop offset="0.51" style="stop-color:rgb(244,123,103);stop-opacity:1"/><stop offset="1" style="stop-color:rgb(239,56,48);stop-opacity:1"/></linearGradient>
        <linearGradient id="_Linear18" x1="0" y1="0" x2="1" y2="0" gradientUnits="userSpaceOnUse" gradientTransform="matrix(-103.63,-115.32,115.32,-103.63,119.01,127.63)"><stop offset="0" style="stop-color:rgb(47,34,87);stop-opacity:1"/><stop offset="0.18" style="stop-color:rgb(52,39,90);stop-opacity:1"/><stop offset="0.38" style="stop-color:rgb(66,53,100);stop-opacity:1"/><stop offset="0.51" style="stop-color:rgb(78,65,108);stop-opacity:1"/><stop offset="0.63" style="stop-color:rgb(73,61,104);stop-opacity:1"/><stop offset="0.77" style="stop-color:rgb(59,49,91);stop-opacity:1"/><stop offset="0.93" style="stop-color:rgb(35,29,71);stop-opacity:1"/><stop offset="1" style="stop-color:rgb(21,17,59);stop-opacity:1"/></linearGradient>
        <linearGradient id="_Linear19" x1="0" y1="0" x2="1" y2="0" gradientUnits="userSpaceOnUse" gradientTransform="matrix(-126.66,100.44,-100.44,-126.66,144.7,33.46)"><stop offset="0" style="stop-color:rgb(158,28,49);stop-opacity:1"/><stop offset="0.5" style="stop-color:rgb(202,83,69);stop-opacity:1"/><stop offset="1" style="stop-color:rgb(192,32,43);stop-opacity:1"/></linearGradient>
        <linearGradient id="_Linear20" x1="0" y1="0" x2="1" y2="0" gradientUnits="userSpaceOnUse" gradientTransform="matrix(-56.8,28.4,-28.4,-56.8,75.23,1.26)"><stop offset="0" style="stop-color:rgb(158,28,49);stop-opacity:1"/><stop offset="1" style="stop-color:rgb(202,83,69);stop-opacity:1"/></linearGradient>
        <linearGradient id="_Linear21" x1="0" y1="0" x2="1" y2="0" gradientUnits="userSpaceOnUse" gradientTransform="matrix(27.96,43.99,-43.99,27.96,107.89,20.45)"><stop offset="0" style="stop-color:rgb(78,65,108);stop-opacity:1"/><stop offset="1" style="stop-color:rgb(21,17,59);stop-opacity:1"/></linearGradient>
        <linearGradient id="_Linear22" x1="0" y1="0" x2="1" y2="0" gradientUnits="userSpaceOnUse" gradientTransform="matrix(43.05,-27.43,27.43,43.05,77.32,130.19)"><stop offset="0" style="stop-color:rgb(239,56,48);stop-opacity:1"/><stop offset="1" style="stop-color:rgb(244,123,103);stop-opacity:1"/></linearGradient>
        <linearGradient id="_Linear23" x1="0" y1="0" x2="1" y2="0" gradientUnits="userSpaceOnUse" gradientTransform="matrix(26.98,43.8,-43.8,26.98,11.73,76.66)"><stop offset="0" style="stop-color:rgb(38,72,122);stop-opacity:1"/><stop offset="1" style="stop-color:rgb(62,101,153);stop-opacity:1"/></linearGradient>
        <linearGradient id="_Linear24" x1="0" y1="0" x2="1" y2="0" gradientUnits="userSpaceOnUse" gradientTransform="matrix(-103.63,-115.32,115.32,-103.63,114.54,131.64)"><stop offset="0" style="stop-color:rgb(47,34,87);stop-opacity:1"/><stop offset="0.18" style="stop-color:rgb(52,39,90);stop-opacity:1"/><stop offset="0.39" style="stop-color:rgb(66,53,100);stop-opacity:1"/><stop offset="0.51" style="stop-color:rgb(78,65,108);stop-opacity:1"/><stop offset="0.63" style="stop-color:rgb(73,61,104);stop-opacity:1"/><stop offset="0.77" style="stop-color:rgb(59,49,91);stop-opacity:1"/><stop offset="0.93" style="stop-color:rgb(35,29,71);stop-opacity:1"/><stop offset="1" style="stop-color:rgb(21,17,59);stop-opacity:1"/></linearGradient>
        <linearGradient id="_Linear25" x1="0" y1="0" x2="1" y2="0" gradientUnits="userSpaceOnUse" gradientTransform="matrix(12449.6,-5695.89,5695.89,12449.6,281.843,5782.07)"><stop offset="0" style="stop-color:rgb(241,88,76);stop-opacity:1"/><stop offset="0.51" style="stop-color:rgb(244,123,103);stop-opacity:1"/><stop offset="1" style="stop-color:rgb(239,56,48);stop-opacity:1"/></linearGradient>
        <linearGradient id="_Linear26" x1="0" y1="0" x2="1" y2="0" gradientUnits="userSpaceOnUse" gradientTransform="matrix(-12332.9,5511.4,-5511.4,-12332.9,13760.5,1669.82)"><stop offset="0" style="stop-color:rgb(158,28,49);stop-opacity:1"/><stop offset="0.5" style="stop-color:rgb(202,83,69);stop-opacity:1"/><stop offset="1" style="stop-color:rgb(192,32,43);stop-opacity:1"/></linearGradient>
        <linearGradient id="_Linear27" x1="0" y1="0" x2="1" y2="0" gradientUnits="userSpaceOnUse" gradientTransform="matrix(-103.8,-112.84,112.84,-103.8,138.66,112.38)"><stop offset="0" style="stop-color:rgb(62,101,153);stop-opacity:1"/><stop offset="0.58" style="stop-color:rgb(50,89,142);stop-opacity:1"/><stop offset="1" style="stop-color:rgb(62,101,153);stop-opacity:1"/></linearGradient>
        <linearGradient id="_Linear28" x1="0" y1="0" x2="1" y2="0" gradientUnits="userSpaceOnUse" gradientTransform="matrix(-103.8,-112.84,112.84,-103.8,136.95,113.96)"><stop offset="0" style="stop-color:rgb(62,101,153);stop-opacity:1"/><stop offset="0.17" style="stop-color:rgb(62,101,153);stop-opacity:1"/><stop offset="1" style="stop-color:rgb(50,89,142);stop-opacity:1"/></linearGradient>
        <linearGradient id="_Linear29" x1="0" y1="0" x2="1" y2="0" gradientUnits="userSpaceOnUse" gradientTransform="matrix(-779.298,-475.118,475.118,-779.298,922.726,672.956)"><stop offset="0" style="stop-color:rgb(47,34,87);stop-opacity:1"/><stop offset="0.18" style="stop-color:rgb(52,39,90);stop-opacity:1"/><stop offset="0.38" style="stop-color:rgb(66,53,100);stop-opacity:1"/><stop offset="0.51" style="stop-color:rgb(78,65,108);stop-opacity:1"/><stop offset="0.63" style="stop-color:rgb(73,61,104);stop-opacity:1"/><stop offset="0.77" style="stop-color:rgb(59,49,91);stop-opacity:1"/><stop offset="0.93" style="stop-color:rgb(35,29,71);stop-opacity:1"/><stop offset="1" style="stop-color:rgb(21,17,59);stop-opacity:1"/></linearGradient>
        <linearGradient id="_Linear30" x1="0" y1="0" x2="1" y2="0" gradientUnits="userSpaceOnUse" gradientTransform="matrix(14.55,0,0,14.55,108.05,123.89)"><stop offset="0" style="stop-color:rgb(54,42,102);stop-opacity:1"/><stop offset="0.02" style="stop-color:rgb(54,42,102);stop-opacity:1"/><stop offset="0.4" style="stop-color:rgb(59,48,103);stop-opacity:1"/><stop offset="0.89" style="stop-color:rgb(71,64,105);stop-opacity:1"/><stop offset="1" style="stop-color:rgb(75,68,106);stop-opacity:1"/></linearGradient>
    </defs>
</svg>
