<svg width="315" height="80" viewBox="0 0 315 80" fill="none" xmlns="http://www.w3.org/2000/svg">
<g clip-path="url(#clip0_3131_55)">
<path d="M118.876 43.228C118.876 32.3883 110.023 23.5416 99.169 23.5416C88.3148 23.5416 79.4622 32.3849 79.4622 43.228C79.4622 54.1648 88.3148 63.0081 99.169 63.0081C110.023 63.0081 118.876 54.1648 118.876 43.228ZM108.116 38.0915C113.066 46.6498 113.066 55.8756 108.116 58.7273C103.166 61.5788 95.1693 57.0162 90.2192 48.4582C85.2688 39.8999 85.2688 30.6775 90.2192 27.8224C95.1693 24.9709 103.166 29.5335 108.116 38.0915Z" fill="#333333"/>
<path d="M160.352 42.2783C160.638 37.7125 159.781 32.2946 157.115 28.3927C155.117 25.541 152.071 23.5416 147.88 23.5416C141.788 23.5416 136.454 28.3927 133.6 33.908V6.61652L118.655 9.08896V10.0383C121.987 10.0383 124.176 11.9407 124.176 15.6476V56.4459C126.651 58.8246 129.221 60.3444 131.887 61.3911C135.218 62.5318 138.742 63.0081 142.835 63.0081C147.789 63.0081 152.739 60.5354 155.879 56.0669C158.64 52.0714 160.067 47.0322 160.352 42.2783ZM133.603 37.4274C135.793 32.0059 140.935 28.3927 145.122 29.5334C149.502 30.5802 151.12 36.0954 151.12 41.896C151.12 45.4151 150.549 50.4543 148.645 54.2585C147.027 57.4926 144.457 59.5827 141.697 60.059C138.936 60.6294 135.984 59.5827 133.607 56.8252V37.4274H133.603Z" fill="#333333"/>
<path d="M167.177 25.7323V51.8834C167.177 60.0624 170.603 63.0115 175.838 63.0115C181.168 63.0115 184.691 59.9687 186.404 57.0196L185.453 56.1642C181.551 59.301 176.6 59.3983 176.6 51.8834V25.7323H185.645V23.5449H176.6V12.4171H175.267C175.267 18.7877 171.553 23.5449 162.606 23.5449V25.7323H167.177Z" fill="#333333"/>
<path d="M224.974 41.2316C224.974 31.7209 218.12 23.5449 207.554 23.5449C197.083 23.5449 187.848 32.3883 187.848 43.2314C187.848 54.1681 196.7 63.0115 207.554 63.0115C213.076 63.0115 219.645 60.8241 223.07 57.1169L222.308 56.3553C217.549 60.2537 210.312 59.7774 205.459 56.3553C202.507 54.2618 200.032 51.1251 198.225 47.6999C197.083 45.6065 196.227 43.419 195.656 41.2316H224.974ZM213.647 39.0479H195.179C194.514 34.9547 194.987 29.9158 198.987 27.6344C205.936 23.5449 213.647 32.2006 213.647 39.0479Z" fill="#333333"/>
<path d="M239.736 27.8224C244.687 24.9709 252.684 29.5334 257.632 38.0915C262.583 46.6498 262.583 55.8755 257.632 58.7273C252.684 61.5821 244.687 57.0196 239.736 48.4582C234.786 39.8999 234.786 30.6741 239.736 27.8224ZM236.21 58.5393C232.879 61.6761 230.31 65.6719 230.31 70.0464C230.31 75.2767 234.403 82.1239 245.825 78.9871L260.485 75.089C266.483 73.3779 268.673 76.7057 265.912 79.9399H267.623C275.049 75.186 271.05 63.3939 260.485 65.769L244.109 70.1438C240.207 71.2845 237.254 69.0031 236.59 66.8157C235.827 64.6285 236.496 62.1558 238.114 59.9687C241.16 61.8708 244.777 63.0115 248.68 63.0115C259.629 63.0115 268.387 54.1681 268.387 43.2313C268.387 36.8604 265.341 31.2478 260.676 27.6344L260.961 27.2554C262.104 25.9236 263.529 26.1147 265.148 28.2048C267.245 30.9625 270.006 30.8685 271.526 29.3455C273.052 27.9197 273.431 25.162 271.146 23.1625C269.72 21.9245 267.435 21.1664 265.246 21.5455C262.964 22.0218 260.774 23.4476 259.441 25.541L258.775 26.3027C255.823 24.5916 252.399 23.5449 248.683 23.5449C237.832 23.5449 228.976 32.3883 228.976 43.228C228.976 49.4109 231.831 54.9262 236.21 58.5393Z" fill="#333333"/>
<path d="M314.438 43.228C314.438 32.3883 305.584 23.5416 294.731 23.5416C283.878 23.5416 275.024 32.3849 275.024 43.228C275.024 54.1648 283.878 63.0081 294.731 63.0081C305.584 63.0081 314.438 54.1648 314.438 43.228ZM303.678 38.0915C308.628 46.6498 308.628 55.8756 303.678 58.7273C298.727 61.5788 290.73 57.0162 285.782 48.4582C280.831 39.8999 280.831 30.6775 285.782 27.8224C290.73 24.9709 298.727 29.5335 303.678 38.0915Z" fill="#333333"/>
<path fill-rule="evenodd" clip-rule="evenodd" d="M26.9083 30.1656L23.5776 24.3815C17.5868 14.1697 23.1461 8.44785 28.2024 7.09514C32.4315 5.96373 36.9599 7.40975 40.8552 9.81352C40.8552 9.81352 45.7232 12.623 44.875 17.0485C48.2859 14.1016 53.154 16.9107 53.154 16.9107C57.1846 19.0796 60.702 22.2776 61.8363 26.5042C63.1925 31.5577 61.0137 39.2281 49.17 39.1498L42.4912 39.1581L45.8225 44.9432C51.8133 55.155 46.2539 60.8769 41.1976 62.2296C36.9682 63.3611 32.4405 61.9164 28.5449 59.5118C28.5449 59.5118 23.6772 56.704 24.5253 52.2773C21.1141 55.2232 16.2464 52.4154 16.2464 52.4154C12.2159 50.2467 8.69843 47.0488 7.56414 42.8222C6.20792 37.7687 8.38606 30.0955 20.2302 30.1767L26.9083 30.1656ZM43.885 18.7625C44.9093 13.9915 39.9666 12.0211 39.9666 12.0211C37.4329 11.0245 34.8693 11.019 32.9524 12.3205C31.0099 13.5278 29.569 16.967 31.6824 20.4381L37.2983 30.1666L48.5341 30.1614C52.5989 30.2557 54.8586 27.2905 54.9337 25.0054C55.1026 22.6952 53.8163 20.4789 51.6858 18.7839C51.6858 18.7839 47.5069 15.4906 43.885 18.7625ZM25.5153 50.5642C24.4908 55.3336 29.4334 57.3045 29.4334 57.3045C31.9672 58.3008 34.5308 58.3072 36.4483 57.0064C38.3903 55.7975 39.8312 52.3592 37.7177 48.887L32.1019 39.1599L20.8654 39.1624C16.8016 39.0707 14.5419 42.0358 14.4668 44.3209C14.2976 46.6312 15.5842 48.8474 17.7146 50.5425C17.7146 50.5425 21.8936 53.8358 25.5153 50.5642Z" fill="#333333"/>
</g>
<defs>
<clipPath id="clip0_3131_55">
<rect width="314.455" height="80" fill="white"/>
</clipPath>
</defs>
</svg>
