<?xml version="1.0" encoding="UTF-8" standalone="no"?>
<!DOCTYPE svg PUBLIC "-//W3C//DTD SVG 1.1//EN" "http://www.w3.org/Graphics/SVG/1.1/DTD/svg11.dtd">
<svg width="100%" height="100%" viewBox="0 0 443 65" version="1.1" xmlns="http://www.w3.org/2000/svg" xmlns:xlink="http://www.w3.org/1999/xlink" xml:space="preserve" xmlns:serif="http://www.serif.com/" style="fill-rule:evenodd;clip-rule:evenodd;stroke-linejoin:round;stroke-miterlimit:2;">
    <g transform="matrix(1,0,0,1,-2546.31,-1550.02)">
        <g transform="matrix(1,0,0,1,1511,-0.168391)">
            <g id="Meditech-Logo" serif:id="Meditech Logo" transform="matrix(1,0,0,1,314.237,36.1351)">
                <g transform="matrix(1,0,0,1,720.972,1513.95)">
                    <path d="M53.6,18.3L33.6,45L31.3,45L11.7,18.2L11.7,63L0.1,63L0.1,1.5L13.5,1.5L32.7,28L51.9,1.5L65.2,1.5L65.2,63L53.6,63L53.6,18.3Z" style="fill:rgb(0,188,111);fill-rule:nonzero;"/>
                </g>
                <g transform="matrix(1,0,0,1,720.972,1513.95)">
                    <path d="M122,62.9L76,62.9L76,1.4L122,1.4L122,12.7L87.5,12.7L87.5,26.9L120.8,26.9L120.8,37.7L87.5,37.7L87.5,51.6L122,51.6L122,62.9Z" style="fill:rgb(0,188,111);fill-rule:nonzero;"/>
                </g>
                <g transform="matrix(1,0,0,1,720.972,1513.95)">
                    <path d="M185.2,31.6C185.5,47.2 176,62.9 154.4,62.9L130.2,62.9L130.2,1.4L154.4,1.4C175.5,1.4 184.9,16.4 185.2,31.6ZM141.7,51.7L154.4,51.7C168.4,51.7 173.9,41.5 173.6,31.5C173.3,21.9 167.7,12.3 154.4,12.3L141.7,12.3L141.7,51.7Z" style="fill:rgb(0,188,111);fill-rule:nonzero;"/>
                </g>
                <g transform="matrix(1,0,0,1,720.972,1513.95)">
                    <rect x="193.9" y="1.4" width="11.5" height="61.5" style="fill:rgb(0,188,111);fill-rule:nonzero;"/>
                </g>
                <g transform="matrix(1,0,0,1,720.972,1513.95)">
                    <path d="M235.1,11.9L215.6,11.9L215.6,1.4L266.2,1.4L266.2,11.9L246.7,11.9L246.7,62.9L235.1,62.9L235.1,11.9Z" style="fill:rgb(0,188,111);fill-rule:nonzero;"/>
                </g>
                <g transform="matrix(1,0,0,1,720.972,1513.95)">
                    <path d="M319.1,62.9L273,62.9L273,1.4L319.1,1.4L319.1,12.7L284.6,12.7L284.6,26.9L317.9,26.9L317.9,37.7L284.6,37.7L284.6,51.6L319.1,51.6L319.1,62.9Z" style="fill:rgb(0,188,111);fill-rule:nonzero;"/>
                </g>
                <g transform="matrix(1,0,0,1,720.972,1513.95)">
                    <path d="M382.3,55.2C376,61.4 367.8,64.3 358.9,64.3C336,64.3 326.4,48.6 326.3,32.6C326.3,16.5 336.7,0.1 359,0.1C367.3,0.1 375.3,3.3 381.6,9.5L373.9,17C369.9,13 364.4,11.2 359,11.2C344.1,11.2 337.7,22.3 337.8,32.6C337.9,42.8 343.8,53.4 359,53.4C364.4,53.4 370.4,51.2 374.5,47.2L382.3,55.2Z" style="fill:rgb(0,188,111);fill-rule:nonzero;"/>
                </g>
                <g transform="matrix(1,0,0,1,720.972,1513.95)">
                    <path d="M430.8,63L430.8,38.1L400.6,38.1L400.6,63L389,63L389,1.5L400.6,1.5L400.6,27.4L430.8,27.4L430.8,1.5L442.3,1.5L442.3,63L430.8,63Z" style="fill:rgb(0,188,111);fill-rule:nonzero;"/>
                </g>
            </g>
        </g>
    </g>
</svg>
