<?xml version="1.0" encoding="UTF-8" standalone="no"?>
<!DOCTYPE svg PUBLIC "-//W3C//DTD SVG 1.1//EN" "http://www.w3.org/Graphics/SVG/1.1/DTD/svg11.dtd">
<svg width="100%" height="100%" viewBox="0 0 924 130" version="1.1" xmlns="http://www.w3.org/2000/svg" xmlns:xlink="http://www.w3.org/1999/xlink" xml:space="preserve" xmlns:serif="http://www.serif.com/" style="fill-rule:evenodd;clip-rule:evenodd;stroke-linejoin:round;stroke-miterlimit:2;">
    <g transform="matrix(1,0,0,1,-2353.25,-1785.45)">
        <g transform="matrix(1,0,0,1,1511,-0.168391)">
            <g id="AthenaHealth-Logo" serif:id="AthenaHealth Logo" transform="matrix(1,0,0,1,168.579,-36.0611)">
                <g transform="matrix(2.71487,0,0,2.71487,673.668,1821.68)">
                    <path d="M71.508,47.1L66.208,47.1L66.208,44.2C64.508,46.4 62.008,47.8 58.508,47.8C51.708,47.8 46.308,42.4 46.308,35C46.308,27.6 51.708,22 58.508,22C62.008,22 64.508,23.4 66.208,25.6L66.208,22.6L71.508,22.6L71.508,47.1ZM51.808,34.9C51.808,39.2 54.608,42.7 59.208,42.7C63.608,42.7 66.608,39.3 66.608,34.9C66.608,30.5 63.608,27.1 59.208,27.1C54.508,27 51.808,30.6 51.808,34.9ZM93.408,27.5L84.008,27.5L84.008,38.1C84.008,41.4 85.708,42.7 87.908,42.7C89.608,42.7 91.408,42 92.808,41L94.908,45.3C92.908,46.6 90.508,47.7 87.408,47.7C81.908,47.7 78.608,44.7 78.608,38.2L78.608,27.5L73.708,27.5L73.708,22.7L78.608,22.7L78.608,15.3L84.008,15.3L84.008,22.7L93.408,22.7L93.408,27.5ZM102.508,25.6C104.508,22.8 107.508,22.1 109.908,22.1C115.708,22.1 119.808,26.1 119.808,31.8L119.808,47.1L114.408,47.1L114.408,33.5C114.408,29.4 112.308,27.1 108.708,27.1C105.308,27.1 102.408,29.4 102.408,33.5L102.408,47L97.008,47L97.008,10.4L102.408,10.4L102.408,25.6L102.508,25.6ZM147.108,34.8C147.108,35.5 147.008,36.2 147.008,36.8L129.008,36.8C129.708,41.2 132.808,43 136.308,43C138.708,43 141.308,42 143.408,40.4L146.108,44.2C143.108,46.7 139.808,47.6 136.108,47.6C128.808,47.6 123.608,42.5 123.608,34.8C123.608,27.2 128.608,22 135.808,22C142.408,22 147.108,27.2 147.108,34.8ZM129.008,32.8L141.708,32.8C141.108,29 138.908,26.8 135.508,26.8C131.708,26.8 129.608,29.2 129.008,32.8ZM173.608,31.7L173.608,47L168.208,47L168.208,33.5C168.208,29.4 166.108,27.1 162.508,27.1C159.108,27.1 156.208,29.4 156.208,33.5L156.208,47L150.808,47L150.808,22.7L156.108,22.7L156.108,25.7C158.108,22.8 161.108,22.1 163.608,22.1C169.508,22 173.608,26 173.608,31.7ZM202.308,47.1L197.008,47.1L197.008,44.2C195.308,46.4 192.808,47.8 189.308,47.8C182.508,47.8 177.108,42.4 177.108,35C177.108,27.6 182.508,22 189.308,22C192.808,22 195.308,23.4 197.008,25.6L197.008,22.6L202.308,22.6L202.308,47.1ZM182.608,34.9C182.608,39.2 185.408,42.7 190.008,42.7C194.408,42.7 197.408,39.3 197.408,34.9C197.408,30.5 194.408,27.1 190.008,27.1C185.408,27 182.608,30.6 182.608,34.9ZM210.708,27.2C212.608,24 216.008,22.7 219.208,22.7C225.208,22.7 229.308,26.4 229.308,32.4L229.308,47.1L226.408,47.1L226.408,33.3C226.408,28.5 223.608,25.5 218.708,25.5C214.208,25.5 210.708,28.7 210.708,33.5L210.708,47.2L207.808,47.2L207.808,10.4L210.708,10.4L210.708,27.2ZM256.608,34.9C256.608,35.3 256.608,35.7 256.508,36.1L236.408,36.1C236.808,41.7 240.808,44.9 245.708,44.9C249.008,44.9 251.708,43.6 253.808,41.5L255.408,43.5C252.408,46.6 249.008,47.5 245.608,47.5C238.608,47.5 233.508,42.5 233.508,35.1C233.508,27.9 238.608,22.7 245.408,22.7C251.708,22.7 256.508,27.8 256.608,34.9ZM236.408,33.6L253.608,33.6C253.208,28.6 249.808,25.2 245.308,25.2C240.408,25.3 237.008,28.8 236.408,33.6ZM283.608,47.1L280.708,47.1L280.708,42.5C278.808,45.5 275.608,47.5 271.208,47.5C264.508,47.5 259.208,42.3 259.208,35.1C259.208,27.9 264.508,22.7 271.208,22.7C275.608,22.7 278.808,24.7 280.708,27.7L280.708,23.1L283.608,23.1L283.608,47.1ZM262.108,35.1C262.108,40.5 266.008,44.7 271.508,44.7C276.908,44.7 280.808,40.6 280.808,35.1C280.808,29.6 276.908,25.4 271.508,25.4C266.008,25.4 262.108,29.7 262.108,35.1ZM292.408,47.1L289.508,47.1L289.508,10.4L292.408,10.4L292.408,47.1ZM314.708,25.7L303.608,25.7L303.608,38.8C303.608,42.9 305.708,44.7 308.908,44.7C311.008,44.7 312.908,44 314.308,42.9L315.708,45.1C314.008,46.5 311.608,47.5 308.708,47.5C303.708,47.5 300.708,44.7 300.708,38.9L300.708,25.7L295.208,25.7L295.208,23L300.708,23L300.708,15.2L303.608,15.2L303.608,23L314.708,23L314.708,25.7ZM321.408,27.2C323.308,24 326.708,22.7 329.908,22.7C335.908,22.7 340.008,26.4 340.008,32.4L340.008,47.1L337.108,47.1L337.108,33.3C337.108,28.5 334.308,25.5 329.408,25.5C324.908,25.5 321.408,28.7 321.408,33.5L321.408,47.2L318.508,47.2L318.508,10.4L321.408,10.4L321.408,27.2Z" style="fill:rgb(90,45,129);fill-rule:nonzero;"/>
                </g>
                <g transform="matrix(2.71487,0,0,2.71487,673.668,1821.68)">
                    <path d="M17.708,22.6C17.708,22.6 13.008,16.9 12.908,10.6C12.808,4.4 17.308,0 17.308,0C17.308,0 22.008,5.7 22.108,12C22.208,18.2 17.708,22.6 17.708,22.6Z" style="fill:rgb(186,202,51);fill-rule:nonzero;"/>
                </g>
                <g transform="matrix(2.71487,0,0,2.71487,673.668,1821.68)">
                    <path d="M42.808,15.5C42.808,15.5 43.308,28.1 37.108,36.8C30.808,45.4 20.108,46.9 20.108,46.9C20.108,46.9 19.608,34.3 25.808,25.6C32.008,16.9 42.808,15.5 42.808,15.5ZM25.308,14C25.308,15.7 26.608,17 28.308,17C30.008,17 31.308,15.7 31.308,14C31.308,12.3 30.008,11 28.308,11C26.608,11 25.308,12.4 25.308,14Z" style="fill:rgb(121,155,62);fill-rule:nonzero;"/>
                </g>
                <g transform="matrix(2.71487,0,0,2.71487,673.668,1821.68)">
                    <path d="M17.508,46.3C17.508,46.3 17.508,35.5 17.508,35.6C17.508,33 17.108,25.5 13.108,20C8.208,13.4 0.008,12.3 0.008,12.3C0.008,12.3 -0.392,22 4.408,28.6C7.808,33.3 13.008,35.2 15.708,35.9L15.708,46.3C15.708,46.8 16.108,47.2 16.608,47.2C17.108,47.2 17.508,46.8 17.508,46.3Z" style="fill:rgb(186,202,51);fill-rule:nonzero;"/>
                </g>
            </g>
        </g>
    </g>
</svg>
