<?xml version="1.0" encoding="UTF-8" standalone="no"?>
<!DOCTYPE svg PUBLIC "-//W3C//DTD SVG 1.1//EN" "http://www.w3.org/Graphics/SVG/1.1/DTD/svg11.dtd">
<svg width="100%" height="100%" viewBox="0 0 404 152" version="1.1" xmlns="http://www.w3.org/2000/svg" xmlns:xlink="http://www.w3.org/1999/xlink" xml:space="preserve" xmlns:serif="http://www.serif.com/" style="fill-rule:evenodd;clip-rule:evenodd;stroke-linejoin:round;stroke-miterlimit:2;">
    <g transform="matrix(1,0,0,1,-1681.86,-1506.19)">
        <g transform="matrix(1,0,0,1,1511,-0.168391)">
            <g id="Epic-Logo" serif:id="Epic Logo" transform="matrix(1.6703,0,0,1.6703,212.462,1358.79)">
                <path d="M41.241,179.053C41.151,178.907 41.197,178.162 41.344,177.396C41.777,175.139 43.435,167.29 44.146,164.133C44.509,162.526 44.711,161.116 44.596,161.002C44.482,160.887 28.796,160.763 9.74,160.726L-24.909,160.659L-24.895,159.336C-24.888,158.608 -24.263,155.036 -23.508,151.398C-20.626,137.518 -19.99,134.429 -19.776,133.274C-19.654,132.62 -18.945,129.107 -18.199,125.469C-16.066,115.051 -13.19,100.969 -12.313,96.645C-11.872,94.47 -11.396,92.476 -11.255,92.213C-11.011,91.756 -9.477,91.735 24.033,91.735C48.35,91.735 59.118,91.82 59.238,92.014C59.333,92.168 59.228,93.091 59.004,94.065C58.78,95.039 58.161,97.919 57.627,100.466C57.094,103.013 56.547,105.542 56.412,106.087L56.167,107.078L9.002,107.213L8.807,107.875C8.7,108.238 8.358,109.965 8.047,111.711C7.736,113.457 7.305,115.696 7.089,116.687C6.873,117.677 6.766,118.6 6.85,118.737C6.945,118.89 14.919,118.987 27.479,118.987C39.564,118.987 48.014,119.086 48.102,119.229C48.185,119.362 47.838,121.416 47.333,123.793C46.827,126.17 46.22,129.068 45.983,130.232C45.746,131.396 45.447,132.616 45.318,132.944L45.085,133.539L24.436,133.539C13.98,133.693 24.436,133.539 3.698,133.648L1.499,145.637C24.868,145.646 16.789,145.668 24.868,145.646L48.07,145.578L48.403,143.991C48.586,143.117 49.111,140.677 49.571,138.567C50.03,136.457 50.803,132.825 51.288,130.497C52.401,125.161 54.239,116.481 54.734,114.225C54.941,113.279 55.377,111.285 55.702,109.793L56.293,107.081L66.095,107.085C71.486,107.087 76.044,107.182 76.223,107.296C76.475,107.456 76.391,108.213 75.857,110.608C75.477,112.316 75.235,113.783 75.32,113.868C75.406,113.953 75.762,113.8 76.112,113.529C78.865,111.392 80.084,110.569 81.953,109.584C87.873,106.466 95.078,105.248 102.41,106.125C109.725,107 113.969,108.812 117.972,112.77C120.822,115.587 122.638,119.205 123.27,123.321C123.356,123.886 123.522,124.243 123.637,124.115C123.83,123.901 124.397,121.516 125.39,116.738C126.759,110.156 127.414,107.475 127.697,107.295C128.142,107.012 147.512,107.034 147.959,107.317C148.254,107.504 148.263,107.802 148.008,108.967C147.836,109.749 147.461,111.46 147.172,112.77C146.884,114.079 146.25,117.056 145.762,119.384C145.275,121.713 144.791,123.945 144.688,124.345C144.356,125.63 145.001,125.144 146,123.356C148.087,119.624 152.191,115.285 156.113,112.663C164.589,106.996 177.073,104.301 190.641,105.209C198.254,105.718 202.302,106.617 206.915,108.825C211.696,111.113 214.503,114.139 216.082,118.711C216.731,120.587 216.868,121.422 216.892,123.618L216.921,126.263L195.533,126.263L195.009,124.69C193.895,121.347 190.806,119.455 185.746,119.015C178.849,118.416 173.634,119.991 169.381,123.956C164.557,128.452 162.18,137.91 164.577,143.064C166.469,147.133 170.484,149.15 176.692,149.15C183.587,149.15 188.814,146.626 192.031,141.742L193.252,139.889L204.094,139.889C213.931,139.889 214.936,139.929 214.936,140.32C214.936,140.557 214.439,141.658 213.831,142.767C207.302,154.689 197.86,160.633 182.437,162.531C178.059,163.069 166.475,162.931 162.673,162.295C157.894,161.495 154.831,160.529 151.304,158.711C148.014,157.016 144.545,153.61 143.183,150.737C142.206,148.677 141.554,146.5 141.252,144.289C141.042,142.754 140.702,142.941 140.338,144.794C140.196,145.516 139.664,148.072 139.154,150.473C138.645,152.874 138.039,155.731 137.808,156.823C137.577,157.914 137.27,159.254 137.126,159.799L136.864,160.792L126.679,160.792C118.215,160.792 116.471,160.729 116.353,160.423C116.22,160.076 116.833,156.772 118.101,151.002C118.405,149.619 118.773,147.834 118.92,147.033C119.066,146.233 119.247,145.37 119.322,145.115C119.546,144.347 119.04,144.594 118.507,145.512C116.705,148.616 112.84,152.848 109.55,155.317C102.696,160.462 95.007,162.903 85.64,162.906C77.697,162.909 72.345,161.24 68.428,157.535C67.658,156.807 66.95,156.29 66.854,156.386C66.758,156.482 66.521,157.304 66.328,158.213C66.135,159.122 65.565,161.83 65.061,164.231C64.557,166.632 63.899,169.728 63.597,171.11C63.296,172.493 62.859,174.517 62.625,175.608C62.391,176.7 62.122,177.95 62.027,178.386L61.853,179.18L51.629,179.249C45.014,179.294 41.347,179.225 41.241,179.054L41.241,179.053ZM89.58,147.059C95.556,145.335 99.189,141.595 101.018,135.285C101.916,132.186 101.958,128.708 101.125,126.48C100.339,124.38 98.411,122.488 96.131,121.578C92.706,120.211 86.879,120.08 83.041,121.283C75.841,123.542 71.289,129.77 71.182,137.508C71.148,140.035 71.211,140.429 71.882,141.873C73.37,145.079 76.022,146.914 80.131,147.583C82.272,147.931 87.575,147.637 89.58,147.059ZM129.044,99.761C129.224,98.448 130.97,90.212 131.306,89.089L131.504,88.428L141.652,88.358C147.234,88.32 151.903,88.392 152.03,88.518C152.249,88.738 151.881,90.855 150.643,96.497C150.34,97.88 150.002,99.428 149.892,99.937L149.693,100.863L139.283,100.932L128.874,101.001L129.044,99.761Z" style="fill:rgb(186,2,57);fill-rule:nonzero;"/>
            </g>
        </g>
    </g>
</svg>
