<?xml version="1.0" encoding="UTF-8" standalone="no"?>
<!DOCTYPE svg PUBLIC "-//W3C//DTD SVG 1.1//EN" "http://www.w3.org/Graphics/SVG/1.1/DTD/svg11.dtd">
<svg width="100%" height="100%" viewBox="0 0 322 102" version="1.1" xmlns="http://www.w3.org/2000/svg" xmlns:xlink="http://www.w3.org/1999/xlink" xml:space="preserve" xmlns:serif="http://www.serif.com/" style="fill-rule:evenodd;clip-rule:evenodd;stroke-linejoin:round;stroke-miterlimit:2;">
    <g transform="matrix(1,0,0,1,-5910.49,-6487.2)">
        <g transform="matrix(1,0,0,0.958091,5742.07,6251.3)">
            <g transform="matrix(1,0,0,1.25816,0,0)">
                <g transform="matrix(1.50743,0,0,1.73839,-74.8805,-288.407)">
                    <path d="M241.737,316.527C238.298,316.527 235.666,315.824 233.84,314.419C232.014,313.014 231.102,311.029 231.102,308.464L231.102,291.605C231.102,289.039 232.014,287.054 233.84,285.649C235.666,284.244 238.298,283.542 241.737,283.542C245.176,283.542 247.808,284.244 249.634,285.649C251.459,287.054 252.372,289.039 252.372,291.605L252.372,308.464C252.372,311.029 251.459,313.014 249.634,314.419C247.808,315.824 245.176,316.527 241.737,316.527ZM241.737,311.946C244.157,311.946 245.367,310.892 245.367,308.784L245.367,291.284C245.367,289.177 244.157,288.123 241.737,288.123C239.317,288.123 238.107,289.177 238.107,291.284L238.107,308.784C238.107,310.892 239.317,311.946 241.737,311.946Z" style="fill:rgb(8,75,63);fill-rule:nonzero;"/>
                    <path d="M257.085,284L267.657,284C271.265,284 273.898,284.603 275.554,285.81C277.209,287.016 278.037,288.871 278.037,291.376L278.037,292.659C278.037,294.308 277.666,295.652 276.923,296.69C276.18,297.728 275.044,298.477 273.516,298.935L273.516,299.026C276.997,299.882 278.738,302.111 278.738,305.715L278.738,308.464C278.738,310.938 277.836,312.824 276.031,314.122C274.227,315.42 271.584,316.069 268.102,316.069L257.085,316.069L257.085,284ZM266.829,297.057C268.23,297.057 269.281,296.797 269.981,296.278C270.682,295.758 271.032,294.888 271.032,293.666L271.032,291.88C271.032,290.719 270.745,289.879 270.172,289.36C269.599,288.841 268.697,288.581 267.466,288.581L264.09,288.581L264.09,297.057L266.829,297.057ZM268.102,311.487C269.334,311.487 270.246,311.251 270.841,310.777C271.435,310.304 271.732,309.487 271.732,308.326L271.732,305.532C271.732,304.066 271.382,303.05 270.682,302.485C269.981,301.92 268.824,301.638 267.211,301.638L264.09,301.638L264.09,311.487L268.102,311.487Z" style="fill:rgb(8,75,63);fill-rule:nonzero;"/>
                    <path d="M288.29,288.581L280.967,288.581L280.967,284L302.62,284L302.62,288.581L295.296,288.581L295.296,316.069L288.29,316.069L288.29,288.581Z" style="fill:rgb(8,75,63);fill-rule:nonzero;"/>
                    <path d="M305.995,284L325.1,284L325.1,288.581L313,288.581L313,297.057L322.617,297.057L322.617,301.638L313,301.638L313,311.487L325.1,311.487L325.1,316.069L305.995,316.069L305.995,284Z" style="fill:rgb(8,75,63);fill-rule:nonzero;"/>
                    <path d="M339.047,316.527C335.651,316.527 333.061,315.832 331.278,314.442C329.495,313.053 328.603,311.06 328.603,308.464L328.603,291.605C328.603,289.009 329.495,287.016 331.278,285.626C333.061,284.237 335.651,283.542 339.047,283.542C342.444,283.542 345.034,284.237 346.817,285.626C348.6,287.016 349.492,289.009 349.492,291.605L349.492,294.354L342.868,294.354L342.868,291.284C342.868,289.177 341.658,288.123 339.238,288.123C336.818,288.123 335.608,289.177 335.608,291.284L335.608,308.83C335.608,310.907 336.818,311.946 339.238,311.946C341.658,311.946 342.868,310.907 342.868,308.83L342.868,302.554L339.366,302.554L339.366,297.973L349.492,297.973L349.492,308.464C349.492,311.06 348.6,313.053 346.817,314.442C345.034,315.832 342.444,316.527 339.047,316.527Z" style="fill:rgb(8,75,63);fill-rule:nonzero;"/>
                    <path d="M364.139,316.527C360.7,316.527 358.068,315.824 356.242,314.419C354.416,313.014 353.504,311.029 353.504,308.464L353.504,291.605C353.504,289.039 354.416,287.054 356.242,285.649C358.068,284.244 360.7,283.542 364.139,283.542C367.578,283.542 370.21,284.244 372.036,285.649C373.862,287.054 374.774,289.039 374.774,291.605L374.774,308.464C374.774,311.029 373.862,313.014 372.036,314.419C370.21,315.824 367.578,316.527 364.139,316.527ZM364.139,311.946C366.559,311.946 367.769,310.892 367.769,308.784L367.769,291.284C367.769,289.177 366.559,288.123 364.139,288.123C361.719,288.123 360.509,289.177 360.509,291.284L360.509,308.784C360.509,310.892 361.719,311.946 364.139,311.946Z" style="fill:rgb(8,75,63);fill-rule:nonzero;"/>
                </g>
                <g transform="matrix(-0.39015,1.20792,-2.0241,-0.449929,942.151,-48.3068)">
                    <path d="M349.499,295.469L349.492,297.973L349.492,308.464C349.492,311.06 348.6,313.053 346.817,314.442C345.034,315.832 342.444,316.527 339.047,316.527C335.651,316.527 333.061,315.832 331.278,314.442C329.495,313.053 328.603,311.06 328.603,308.464L328.603,305.751L324.832,305.751C321.223,305.751 318.453,305.11 316.521,303.827C314.589,302.544 313.623,300.681 313.623,298.238C313.623,295.794 314.589,293.931 316.521,292.649C318.453,291.366 321.223,290.725 324.832,290.725L342.868,290.725L342.868,277.724C342.868,275.128 343.759,273.135 345.543,271.746C347.326,270.356 349.916,269.661 353.312,269.661C356.709,269.661 359.299,270.356 361.082,271.746C362.865,273.135 363.756,275.128 363.756,277.724L363.756,280.437L367.528,280.437C371.136,280.437 373.907,281.078 375.838,282.361C377.77,283.644 378.736,285.507 378.736,287.95C378.736,290.394 377.77,292.257 375.838,293.539C373.907,294.822 371.136,295.463 367.528,295.463L352.944,295.463L349.499,295.469ZM342.868,295.479L333.047,295.489L324.322,295.489C321.435,295.489 319.992,296.359 319.992,298.1C319.992,299.841 321.435,300.712 324.322,300.712L332.74,300.712C332.904,300.712 333.059,300.727 333.206,300.757C333.718,300.817 334.265,301.019 334.723,301.348C335.181,301.678 335.462,302.072 335.545,302.44C335.586,302.545 335.608,302.657 335.608,302.775L335.608,308.83C335.608,310.907 336.818,311.946 339.238,311.946C341.658,311.946 342.868,310.907 342.868,308.83L342.868,295.479ZM359.154,285.431C358.642,285.371 358.094,285.169 357.636,284.84C357.178,284.51 356.897,284.116 356.814,283.748C356.773,283.643 356.751,283.531 356.751,283.413L356.751,277.358C356.751,275.281 355.541,274.243 353.121,274.243C350.701,274.243 349.491,275.281 349.491,277.358L349.491,283.634L349.477,290.699L368.037,290.699C370.924,290.699 372.368,289.829 372.368,288.088C372.368,286.347 370.924,285.476 368.037,285.476L359.619,285.476C359.456,285.476 359.3,285.461 359.154,285.431Z" style="fill:rgb(8,75,63);"/>
                </g>
            </g>
        </g>
    </g>
</svg>
