<?xml version="1.0" encoding="UTF-8" standalone="no"?>
<!DOCTYPE svg PUBLIC "-//W3C//DTD SVG 1.1//EN" "http://www.w3.org/Graphics/SVG/1.1/DTD/svg11.dtd">
<svg width="100%" height="100%" viewBox="0 0 1228 1233" version="1.1" xmlns="http://www.w3.org/2000/svg" xmlns:xlink="http://www.w3.org/1999/xlink" xml:space="preserve" xmlns:serif="http://www.serif.com/" style="fill-rule:evenodd;clip-rule:evenodd;stroke-linejoin:round;stroke-miterlimit:2;">
    <g transform="matrix(1,0,0,1,-2528.49,-395.481)">
        <g transform="matrix(1,0,0,1,2182.12,0)">
            <g transform="matrix(1.0634,0,0,1.12313,-63.3069,885.412)">
                <path d="M1067.31,293.709L1067.31,552.342C1067.31,565.936 1055.65,576.974 1041.29,576.974L411.267,576.974C396.909,576.974 385.251,565.936 385.251,552.342L385.251,293.709C385.251,280.115 396.909,269.077 411.267,269.077L1041.29,269.077C1055.65,269.077 1067.31,280.115 1067.31,293.709Z" style="fill:rgb(221,221,221);"/>
            </g>
            <g transform="matrix(1.04537,0,0,1.04537,-50.2144,912.337)">
                <path d="M1067.31,293.709L1067.31,552.342C1067.31,565.936 1056.27,576.974 1042.67,576.974L409.883,576.974C396.289,576.974 385.251,565.936 385.251,552.342L385.251,293.709C385.251,280.115 396.289,269.077 409.883,269.077L1042.67,269.077C1056.27,269.077 1067.31,280.115 1067.31,293.709Z" style="fill:white;"/>
            </g>
            <g transform="matrix(1.04537,0,0,1.04537,-50.2144,912.337)">
                <path d="M1067.31,293.709L1067.31,423.026L385.251,423.026L385.251,293.709C385.251,280.115 396.289,269.077 409.883,269.077L1042.67,269.077C1056.27,269.077 1067.31,280.115 1067.31,293.709Z" style="fill:rgb(214,247,246);"/>
            </g>
            <g transform="matrix(1,0,0,1,-85.4362,505.902)">
                <g transform="matrix(48,0,0,48,488.709,785.641)">
                    <path d="M0.072,-0L0.072,-0.727L0.345,-0.727C0.4,-0.727 0.447,-0.718 0.485,-0.698C0.523,-0.679 0.552,-0.651 0.572,-0.617C0.591,-0.582 0.601,-0.541 0.601,-0.495C0.601,-0.448 0.591,-0.408 0.571,-0.374C0.551,-0.339 0.522,-0.313 0.484,-0.294C0.446,-0.276 0.399,-0.266 0.343,-0.266L0.148,-0.266L0.148,-0.376L0.325,-0.376C0.358,-0.376 0.384,-0.38 0.405,-0.389C0.426,-0.398 0.441,-0.412 0.451,-0.43C0.461,-0.447 0.466,-0.469 0.466,-0.495C0.466,-0.52 0.461,-0.542 0.451,-0.561C0.441,-0.579 0.426,-0.593 0.405,-0.603C0.384,-0.612 0.357,-0.617 0.324,-0.617L0.203,-0.617L0.203,-0L0.072,-0ZM0.447,-0.33L0.628,-0L0.48,-0L0.304,-0.33L0.447,-0.33Z" style="fill:rgb(51,51,51);fill-rule:nonzero;"/>
                </g>
                <g transform="matrix(48,0,0,48,519.561,785.641)">
                    <path d="M0.308,0.011C0.253,0.011 0.206,-0.001 0.166,-0.024C0.126,-0.047 0.096,-0.079 0.075,-0.121C0.053,-0.163 0.043,-0.213 0.043,-0.27C0.043,-0.326 0.053,-0.375 0.075,-0.417C0.096,-0.46 0.126,-0.493 0.165,-0.517C0.203,-0.541 0.249,-0.553 0.301,-0.553C0.334,-0.553 0.366,-0.547 0.396,-0.536C0.426,-0.526 0.453,-0.509 0.476,-0.487C0.499,-0.464 0.517,-0.436 0.53,-0.401C0.543,-0.366 0.55,-0.325 0.55,-0.277L0.55,-0.237L0.103,-0.237L0.103,-0.324L0.427,-0.324C0.427,-0.349 0.421,-0.371 0.411,-0.39C0.401,-0.409 0.386,-0.425 0.368,-0.436C0.349,-0.447 0.327,-0.452 0.303,-0.452C0.276,-0.452 0.253,-0.446 0.233,-0.433C0.213,-0.421 0.198,-0.404 0.187,-0.384C0.176,-0.363 0.17,-0.341 0.17,-0.316L0.17,-0.241C0.17,-0.209 0.176,-0.182 0.187,-0.159C0.199,-0.137 0.215,-0.119 0.236,-0.107C0.257,-0.095 0.281,-0.089 0.309,-0.089C0.328,-0.089 0.345,-0.092 0.36,-0.097C0.375,-0.103 0.388,-0.111 0.4,-0.121C0.411,-0.132 0.419,-0.145 0.425,-0.16L0.545,-0.146C0.537,-0.115 0.523,-0.087 0.502,-0.064C0.48,-0.04 0.453,-0.022 0.42,-0.009C0.388,0.004 0.35,0.011 0.308,0.011Z" style="fill:rgb(51,51,51);fill-rule:nonzero;"/>
                </g>
                <g transform="matrix(48,0,0,48,548.007,785.641)">
                    <path d="M0.304,0.011C0.25,0.011 0.203,-0.001 0.164,-0.025C0.125,-0.049 0.095,-0.082 0.074,-0.124C0.053,-0.167 0.043,-0.215 0.043,-0.27C0.043,-0.326 0.053,-0.375 0.075,-0.417C0.096,-0.46 0.126,-0.493 0.165,-0.517C0.204,-0.541 0.25,-0.553 0.303,-0.553C0.348,-0.553 0.387,-0.544 0.421,-0.528C0.455,-0.512 0.482,-0.489 0.503,-0.46C0.523,-0.43 0.535,-0.396 0.538,-0.357L0.415,-0.357C0.41,-0.383 0.398,-0.405 0.379,-0.422C0.361,-0.44 0.336,-0.449 0.305,-0.449C0.279,-0.449 0.256,-0.442 0.236,-0.428C0.216,-0.414 0.201,-0.393 0.19,-0.367C0.179,-0.341 0.173,-0.309 0.173,-0.273C0.173,-0.236 0.178,-0.204 0.189,-0.177C0.2,-0.15 0.216,-0.13 0.235,-0.115C0.255,-0.101 0.278,-0.094 0.305,-0.094C0.324,-0.094 0.341,-0.098 0.356,-0.105C0.371,-0.112 0.384,-0.123 0.394,-0.136C0.404,-0.15 0.411,-0.167 0.415,-0.186L0.538,-0.186C0.535,-0.148 0.523,-0.114 0.504,-0.084C0.484,-0.054 0.457,-0.031 0.423,-0.014C0.39,0.002 0.35,0.011 0.304,0.011Z" style="fill:rgb(51,51,51);fill-rule:nonzero;"/>
                </g>
                <g transform="matrix(48,0,0,48,575.729,785.641)">
                    <path d="M0.304,0.011C0.251,0.011 0.205,-0.001 0.166,-0.024C0.126,-0.048 0.096,-0.081 0.075,-0.123C0.053,-0.165 0.043,-0.214 0.043,-0.27C0.043,-0.327 0.053,-0.376 0.075,-0.419C0.096,-0.461 0.126,-0.494 0.166,-0.517C0.205,-0.541 0.251,-0.553 0.304,-0.553C0.357,-0.553 0.403,-0.541 0.442,-0.517C0.482,-0.494 0.512,-0.461 0.533,-0.419C0.555,-0.376 0.565,-0.327 0.565,-0.27C0.565,-0.214 0.555,-0.165 0.533,-0.123C0.512,-0.081 0.482,-0.048 0.442,-0.024C0.403,-0.001 0.357,0.011 0.304,0.011ZM0.305,-0.092C0.334,-0.092 0.358,-0.1 0.377,-0.116C0.396,-0.132 0.411,-0.154 0.421,-0.181C0.43,-0.208 0.435,-0.238 0.435,-0.271C0.435,-0.304 0.43,-0.335 0.421,-0.362C0.411,-0.389 0.396,-0.41 0.377,-0.426C0.358,-0.443 0.334,-0.451 0.305,-0.451C0.275,-0.451 0.251,-0.443 0.231,-0.426C0.212,-0.41 0.197,-0.389 0.187,-0.362C0.178,-0.335 0.173,-0.304 0.173,-0.271C0.173,-0.238 0.178,-0.208 0.187,-0.181C0.197,-0.154 0.212,-0.132 0.231,-0.116C0.251,-0.1 0.275,-0.092 0.305,-0.092Z" style="fill:rgb(51,51,51);fill-rule:nonzero;"/>
                </g>
                <g transform="matrix(48,0,0,48,604.911,785.641)">
                    <path d="M0.066,-0L0.066,-0.545L0.189,-0.545L0.189,-0.453L0.195,-0.453C0.207,-0.484 0.226,-0.508 0.252,-0.526C0.278,-0.544 0.309,-0.553 0.346,-0.553C0.383,-0.553 0.414,-0.544 0.439,-0.526C0.465,-0.508 0.483,-0.484 0.493,-0.453L0.499,-0.453C0.511,-0.483 0.531,-0.507 0.56,-0.525C0.589,-0.544 0.623,-0.553 0.663,-0.553C0.713,-0.553 0.754,-0.537 0.786,-0.505C0.817,-0.473 0.833,-0.427 0.833,-0.366L0.833,-0L0.704,-0L0.704,-0.346C0.704,-0.38 0.695,-0.405 0.677,-0.421C0.659,-0.436 0.637,-0.444 0.611,-0.444C0.58,-0.444 0.556,-0.435 0.538,-0.415C0.521,-0.396 0.513,-0.371 0.513,-0.34L0.513,-0L0.386,-0L0.386,-0.351C0.386,-0.38 0.378,-0.402 0.361,-0.419C0.344,-0.436 0.322,-0.444 0.295,-0.444C0.276,-0.444 0.26,-0.44 0.244,-0.43C0.229,-0.421 0.217,-0.408 0.208,-0.391C0.199,-0.374 0.195,-0.354 0.195,-0.332L0.195,-0L0.066,-0Z" style="fill:rgb(51,51,51);fill-rule:nonzero;"/>
                </g>
                <g transform="matrix(48,0,0,48,648.002,785.641)">
                    <path d="M0.066,-0L0.066,-0.545L0.189,-0.545L0.189,-0.453L0.195,-0.453C0.207,-0.484 0.226,-0.508 0.252,-0.526C0.278,-0.544 0.309,-0.553 0.346,-0.553C0.383,-0.553 0.414,-0.544 0.439,-0.526C0.465,-0.508 0.483,-0.484 0.493,-0.453L0.499,-0.453C0.511,-0.483 0.531,-0.507 0.56,-0.525C0.589,-0.544 0.623,-0.553 0.663,-0.553C0.713,-0.553 0.754,-0.537 0.786,-0.505C0.817,-0.473 0.833,-0.427 0.833,-0.366L0.833,-0L0.704,-0L0.704,-0.346C0.704,-0.38 0.695,-0.405 0.677,-0.421C0.659,-0.436 0.637,-0.444 0.611,-0.444C0.58,-0.444 0.556,-0.435 0.538,-0.415C0.521,-0.396 0.513,-0.371 0.513,-0.34L0.513,-0L0.386,-0L0.386,-0.351C0.386,-0.38 0.378,-0.402 0.361,-0.419C0.344,-0.436 0.322,-0.444 0.295,-0.444C0.276,-0.444 0.26,-0.44 0.244,-0.43C0.229,-0.421 0.217,-0.408 0.208,-0.391C0.199,-0.374 0.195,-0.354 0.195,-0.332L0.195,-0L0.066,-0Z" style="fill:rgb(51,51,51);fill-rule:nonzero;"/>
                </g>
                <g transform="matrix(48,0,0,48,691.093,785.641)">
                    <path d="M0.308,0.011C0.253,0.011 0.206,-0.001 0.166,-0.024C0.126,-0.047 0.096,-0.079 0.075,-0.121C0.053,-0.163 0.043,-0.213 0.043,-0.27C0.043,-0.326 0.053,-0.375 0.075,-0.417C0.096,-0.46 0.126,-0.493 0.165,-0.517C0.203,-0.541 0.249,-0.553 0.301,-0.553C0.334,-0.553 0.366,-0.547 0.396,-0.536C0.426,-0.526 0.453,-0.509 0.476,-0.487C0.499,-0.464 0.517,-0.436 0.53,-0.401C0.543,-0.366 0.55,-0.325 0.55,-0.277L0.55,-0.237L0.103,-0.237L0.103,-0.324L0.427,-0.324C0.427,-0.349 0.421,-0.371 0.411,-0.39C0.401,-0.409 0.386,-0.425 0.368,-0.436C0.349,-0.447 0.327,-0.452 0.303,-0.452C0.276,-0.452 0.253,-0.446 0.233,-0.433C0.213,-0.421 0.198,-0.404 0.187,-0.384C0.176,-0.363 0.17,-0.341 0.17,-0.316L0.17,-0.241C0.17,-0.209 0.176,-0.182 0.187,-0.159C0.199,-0.137 0.215,-0.119 0.236,-0.107C0.257,-0.095 0.281,-0.089 0.309,-0.089C0.328,-0.089 0.345,-0.092 0.36,-0.097C0.375,-0.103 0.388,-0.111 0.4,-0.121C0.411,-0.132 0.419,-0.145 0.425,-0.16L0.545,-0.146C0.537,-0.115 0.523,-0.087 0.502,-0.064C0.48,-0.04 0.453,-0.022 0.42,-0.009C0.388,0.004 0.35,0.011 0.308,0.011Z" style="fill:rgb(51,51,51);fill-rule:nonzero;"/>
                </g>
                <g transform="matrix(48,0,0,48,719.539,785.641)">
                    <path d="M0.195,-0.32L0.195,-0L0.066,-0L0.066,-0.545L0.189,-0.545L0.189,-0.453L0.195,-0.453C0.208,-0.483 0.228,-0.508 0.255,-0.526C0.283,-0.544 0.317,-0.553 0.358,-0.553C0.396,-0.553 0.428,-0.545 0.456,-0.528C0.484,-0.512 0.506,-0.489 0.522,-0.458C0.537,-0.428 0.545,-0.391 0.545,-0.347L0.545,-0L0.416,-0L0.416,-0.327C0.416,-0.364 0.407,-0.392 0.388,-0.413C0.369,-0.433 0.343,-0.444 0.31,-0.444C0.287,-0.444 0.268,-0.439 0.25,-0.429C0.233,-0.419 0.219,-0.405 0.209,-0.387C0.2,-0.368 0.195,-0.346 0.195,-0.32Z" style="fill:rgb(51,51,51);fill-rule:nonzero;"/>
                </g>
                <g transform="matrix(48,0,0,48,748.803,785.641)">
                    <path d="M0.268,0.01C0.226,0.01 0.187,-0.001 0.153,-0.023C0.12,-0.045 0.093,-0.077 0.073,-0.119C0.054,-0.161 0.044,-0.212 0.044,-0.272C0.044,-0.333 0.054,-0.384 0.074,-0.426C0.094,-0.467 0.121,-0.499 0.155,-0.52C0.189,-0.542 0.227,-0.553 0.269,-0.553C0.301,-0.553 0.327,-0.547 0.348,-0.536C0.368,-0.526 0.385,-0.513 0.397,-0.498C0.409,-0.483 0.418,-0.468 0.425,-0.455L0.43,-0.455L0.43,-0.727L0.559,-0.727L0.559,-0L0.432,-0L0.432,-0.086L0.425,-0.086C0.418,-0.073 0.408,-0.059 0.396,-0.044C0.383,-0.029 0.367,-0.016 0.346,-0.006C0.326,0.004 0.3,0.01 0.268,0.01ZM0.304,-0.096C0.332,-0.096 0.355,-0.103 0.374,-0.118C0.393,-0.133 0.408,-0.153 0.418,-0.18C0.428,-0.206 0.433,-0.237 0.433,-0.273C0.433,-0.308 0.428,-0.339 0.418,-0.365C0.408,-0.391 0.393,-0.411 0.374,-0.426C0.355,-0.44 0.332,-0.447 0.304,-0.447C0.276,-0.447 0.252,-0.44 0.233,-0.425C0.214,-0.41 0.199,-0.389 0.189,-0.363C0.18,-0.337 0.175,-0.307 0.175,-0.273C0.175,-0.239 0.18,-0.208 0.19,-0.182C0.199,-0.155 0.214,-0.134 0.233,-0.119C0.252,-0.103 0.276,-0.096 0.304,-0.096Z" style="fill:rgb(51,51,51);fill-rule:nonzero;"/>
                </g>
                <g transform="matrix(48,0,0,48,779.062,785.641)">
                    <path d="M0.223,0.011C0.188,0.011 0.157,0.005 0.13,-0.008C0.102,-0.02 0.08,-0.039 0.064,-0.063C0.048,-0.087 0.04,-0.117 0.04,-0.153C0.04,-0.184 0.046,-0.209 0.058,-0.229C0.069,-0.25 0.085,-0.266 0.104,-0.278C0.124,-0.29 0.146,-0.299 0.171,-0.305C0.195,-0.311 0.221,-0.316 0.247,-0.319C0.28,-0.322 0.306,-0.325 0.325,-0.328C0.345,-0.331 0.36,-0.335 0.369,-0.341C0.378,-0.347 0.382,-0.356 0.382,-0.368L0.382,-0.37C0.382,-0.397 0.374,-0.418 0.359,-0.432C0.343,-0.447 0.32,-0.454 0.29,-0.454C0.259,-0.454 0.234,-0.447 0.215,-0.434C0.197,-0.42 0.185,-0.404 0.178,-0.385L0.058,-0.402C0.068,-0.435 0.083,-0.463 0.105,-0.485C0.127,-0.508 0.154,-0.524 0.185,-0.536C0.217,-0.547 0.251,-0.553 0.289,-0.553C0.316,-0.553 0.342,-0.549 0.368,-0.543C0.394,-0.537 0.418,-0.527 0.439,-0.513C0.461,-0.499 0.478,-0.48 0.491,-0.455C0.505,-0.431 0.511,-0.401 0.511,-0.365L0.511,-0L0.388,-0L0.388,-0.075L0.383,-0.075C0.375,-0.06 0.365,-0.046 0.35,-0.032C0.336,-0.019 0.319,-0.009 0.297,-0.001C0.276,0.007 0.252,0.011 0.223,0.011ZM0.256,-0.084C0.282,-0.084 0.305,-0.089 0.323,-0.099C0.342,-0.109 0.357,-0.123 0.367,-0.14C0.378,-0.157 0.383,-0.175 0.383,-0.196L0.383,-0.26C0.379,-0.257 0.372,-0.253 0.362,-0.251C0.353,-0.248 0.342,-0.245 0.33,-0.243C0.318,-0.241 0.307,-0.239 0.295,-0.237C0.283,-0.236 0.273,-0.234 0.265,-0.233C0.246,-0.231 0.229,-0.226 0.213,-0.22C0.198,-0.215 0.186,-0.206 0.178,-0.196C0.169,-0.185 0.164,-0.172 0.164,-0.155C0.164,-0.132 0.173,-0.114 0.19,-0.102C0.208,-0.09 0.23,-0.084 0.256,-0.084Z" style="fill:rgb(51,51,51);fill-rule:nonzero;"/>
                </g>
                <g transform="matrix(48,0,0,48,806.648,785.641)">
                    <path d="M0.338,-0.545L0.338,-0.446L0.025,-0.446L0.025,-0.545L0.338,-0.545ZM0.102,-0.676L0.231,-0.676L0.231,-0.164C0.231,-0.147 0.234,-0.134 0.239,-0.124C0.244,-0.115 0.251,-0.109 0.26,-0.106C0.269,-0.103 0.278,-0.101 0.289,-0.101C0.297,-0.101 0.304,-0.101 0.311,-0.103C0.318,-0.104 0.323,-0.105 0.327,-0.106L0.348,-0.005C0.341,-0.003 0.332,-0 0.319,0.002C0.306,0.005 0.291,0.007 0.273,0.007C0.241,0.008 0.212,0.003 0.186,-0.007C0.16,-0.018 0.14,-0.035 0.125,-0.058C0.11,-0.08 0.102,-0.109 0.102,-0.143L0.102,-0.676Z" style="fill:rgb(51,51,51);fill-rule:nonzero;"/>
                </g>
                <g transform="matrix(48,0,0,48,824.894,785.641)">
                    <path d="M0.066,-0L0.066,-0.545L0.195,-0.545L0.195,-0L0.066,-0ZM0.131,-0.623C0.11,-0.623 0.093,-0.63 0.078,-0.643C0.064,-0.657 0.056,-0.673 0.056,-0.693C0.056,-0.712 0.064,-0.728 0.078,-0.742C0.093,-0.756 0.11,-0.763 0.131,-0.763C0.151,-0.763 0.169,-0.756 0.183,-0.742C0.198,-0.728 0.205,-0.712 0.205,-0.693C0.205,-0.673 0.198,-0.657 0.183,-0.643C0.169,-0.63 0.151,-0.623 0.131,-0.623Z" style="fill:rgb(51,51,51);fill-rule:nonzero;"/>
                </g>
                <g transform="matrix(48,0,0,48,837.398,785.641)">
                    <path d="M0.304,0.011C0.251,0.011 0.205,-0.001 0.166,-0.024C0.126,-0.048 0.096,-0.081 0.075,-0.123C0.053,-0.165 0.043,-0.214 0.043,-0.27C0.043,-0.327 0.053,-0.376 0.075,-0.419C0.096,-0.461 0.126,-0.494 0.166,-0.517C0.205,-0.541 0.251,-0.553 0.304,-0.553C0.357,-0.553 0.403,-0.541 0.442,-0.517C0.482,-0.494 0.512,-0.461 0.533,-0.419C0.555,-0.376 0.565,-0.327 0.565,-0.27C0.565,-0.214 0.555,-0.165 0.533,-0.123C0.512,-0.081 0.482,-0.048 0.442,-0.024C0.403,-0.001 0.357,0.011 0.304,0.011ZM0.305,-0.092C0.334,-0.092 0.358,-0.1 0.377,-0.116C0.396,-0.132 0.411,-0.154 0.421,-0.181C0.43,-0.208 0.435,-0.238 0.435,-0.271C0.435,-0.304 0.43,-0.335 0.421,-0.362C0.411,-0.389 0.396,-0.41 0.377,-0.426C0.358,-0.443 0.334,-0.451 0.305,-0.451C0.275,-0.451 0.251,-0.443 0.231,-0.426C0.212,-0.41 0.197,-0.389 0.187,-0.362C0.178,-0.335 0.173,-0.304 0.173,-0.271C0.173,-0.238 0.178,-0.208 0.187,-0.181C0.197,-0.154 0.212,-0.132 0.231,-0.116C0.251,-0.1 0.275,-0.092 0.305,-0.092Z" style="fill:rgb(51,51,51);fill-rule:nonzero;"/>
                </g>
                <g transform="matrix(48,0,0,48,866.58,785.641)">
                    <path d="M0.195,-0.32L0.195,-0L0.066,-0L0.066,-0.545L0.189,-0.545L0.189,-0.453L0.195,-0.453C0.208,-0.483 0.228,-0.508 0.255,-0.526C0.283,-0.544 0.317,-0.553 0.358,-0.553C0.396,-0.553 0.428,-0.545 0.456,-0.528C0.484,-0.512 0.506,-0.489 0.522,-0.458C0.537,-0.428 0.545,-0.391 0.545,-0.347L0.545,-0L0.416,-0L0.416,-0.327C0.416,-0.364 0.407,-0.392 0.388,-0.413C0.369,-0.433 0.343,-0.444 0.31,-0.444C0.287,-0.444 0.268,-0.439 0.25,-0.429C0.233,-0.419 0.219,-0.405 0.209,-0.387C0.2,-0.368 0.195,-0.346 0.195,-0.32Z" style="fill:rgb(51,51,51);fill-rule:nonzero;"/>
                </g>
                <g transform="matrix(48,0,0,48,895.844,785.641)">
                </g>
            </g>
            <g transform="matrix(1,0,0,1,-85.4362,668.965)">
                <g transform="matrix(48,0,0,48,488.709,785.641)">
                    <path d="M0.694,-0.482L0.561,-0.482C0.558,-0.504 0.551,-0.523 0.541,-0.54C0.53,-0.557 0.518,-0.571 0.503,-0.583C0.487,-0.595 0.47,-0.604 0.451,-0.61C0.431,-0.616 0.411,-0.619 0.389,-0.619C0.349,-0.619 0.314,-0.609 0.283,-0.589C0.253,-0.57 0.229,-0.541 0.212,-0.503C0.194,-0.465 0.186,-0.418 0.186,-0.364C0.186,-0.308 0.194,-0.261 0.212,-0.223C0.229,-0.185 0.253,-0.157 0.284,-0.137C0.314,-0.118 0.349,-0.108 0.388,-0.108C0.41,-0.108 0.43,-0.111 0.449,-0.117C0.469,-0.123 0.486,-0.131 0.501,-0.143C0.516,-0.154 0.529,-0.168 0.54,-0.185C0.55,-0.201 0.557,-0.22 0.561,-0.241L0.694,-0.241C0.689,-0.206 0.679,-0.174 0.662,-0.143C0.646,-0.113 0.624,-0.086 0.598,-0.063C0.571,-0.04 0.54,-0.022 0.505,-0.009C0.469,0.003 0.43,0.01 0.386,0.01C0.322,0.01 0.265,-0.005 0.215,-0.035C0.165,-0.064 0.126,-0.107 0.097,-0.163C0.068,-0.218 0.053,-0.285 0.053,-0.364C0.053,-0.442 0.068,-0.509 0.097,-0.565C0.126,-0.621 0.166,-0.663 0.216,-0.693C0.266,-0.722 0.323,-0.737 0.386,-0.737C0.427,-0.737 0.464,-0.732 0.499,-0.72C0.534,-0.709 0.565,-0.692 0.592,-0.67C0.62,-0.648 0.642,-0.622 0.66,-0.59C0.677,-0.558 0.689,-0.522 0.694,-0.482Z" style="fill:rgb(102,102,102);fill-rule:nonzero;"/>
                </g>
                <g transform="matrix(48,0,0,48,524.409,785.641)">
                    <path d="M0.223,0.011C0.188,0.011 0.157,0.005 0.13,-0.008C0.102,-0.02 0.08,-0.039 0.064,-0.063C0.048,-0.087 0.04,-0.117 0.04,-0.153C0.04,-0.184 0.046,-0.209 0.058,-0.229C0.069,-0.25 0.085,-0.266 0.104,-0.278C0.124,-0.29 0.146,-0.299 0.171,-0.305C0.195,-0.311 0.221,-0.316 0.247,-0.319C0.28,-0.322 0.306,-0.325 0.325,-0.328C0.345,-0.331 0.36,-0.335 0.369,-0.341C0.378,-0.347 0.382,-0.356 0.382,-0.368L0.382,-0.37C0.382,-0.397 0.374,-0.418 0.359,-0.432C0.343,-0.447 0.32,-0.454 0.29,-0.454C0.259,-0.454 0.234,-0.447 0.215,-0.434C0.197,-0.42 0.185,-0.404 0.178,-0.385L0.058,-0.402C0.068,-0.435 0.083,-0.463 0.105,-0.485C0.127,-0.508 0.154,-0.524 0.185,-0.536C0.217,-0.547 0.251,-0.553 0.289,-0.553C0.316,-0.553 0.342,-0.549 0.368,-0.543C0.394,-0.537 0.418,-0.527 0.439,-0.513C0.461,-0.499 0.478,-0.48 0.491,-0.455C0.505,-0.431 0.511,-0.401 0.511,-0.365L0.511,-0L0.388,-0L0.388,-0.075L0.383,-0.075C0.375,-0.06 0.365,-0.046 0.35,-0.032C0.336,-0.019 0.319,-0.009 0.297,-0.001C0.276,0.007 0.252,0.011 0.223,0.011ZM0.256,-0.084C0.282,-0.084 0.305,-0.089 0.323,-0.099C0.342,-0.109 0.357,-0.123 0.367,-0.14C0.378,-0.157 0.383,-0.175 0.383,-0.196L0.383,-0.26C0.379,-0.257 0.372,-0.253 0.362,-0.251C0.353,-0.248 0.342,-0.245 0.33,-0.243C0.318,-0.241 0.307,-0.239 0.295,-0.237C0.283,-0.236 0.273,-0.234 0.265,-0.233C0.246,-0.231 0.229,-0.226 0.213,-0.22C0.198,-0.215 0.186,-0.206 0.178,-0.196C0.169,-0.185 0.164,-0.172 0.164,-0.155C0.164,-0.132 0.173,-0.114 0.19,-0.102C0.208,-0.09 0.23,-0.084 0.256,-0.084Z" style="fill:rgb(102,102,102);fill-rule:nonzero;"/>
                </g>
                <g transform="matrix(48,0,0,48,551.995,785.641)">
                    <path d="M0.066,-0L0.066,-0.545L0.191,-0.545L0.191,-0.455L0.196,-0.455C0.206,-0.486 0.223,-0.51 0.248,-0.528C0.272,-0.545 0.3,-0.553 0.331,-0.553C0.338,-0.553 0.346,-0.553 0.355,-0.552C0.364,-0.552 0.371,-0.551 0.377,-0.55L0.377,-0.432C0.372,-0.433 0.363,-0.435 0.351,-0.437C0.34,-0.438 0.328,-0.439 0.318,-0.439C0.294,-0.439 0.273,-0.434 0.254,-0.424C0.236,-0.414 0.221,-0.4 0.211,-0.382C0.2,-0.364 0.195,-0.344 0.195,-0.321L0.195,-0L0.066,-0Z" style="fill:rgb(102,102,102);fill-rule:nonzero;"/>
                </g>
                <g transform="matrix(48,0,0,48,569.941,785.641)">
                    <path d="M0.268,0.01C0.226,0.01 0.187,-0.001 0.153,-0.023C0.12,-0.045 0.093,-0.077 0.073,-0.119C0.054,-0.161 0.044,-0.212 0.044,-0.272C0.044,-0.333 0.054,-0.384 0.074,-0.426C0.094,-0.467 0.121,-0.499 0.155,-0.52C0.189,-0.542 0.227,-0.553 0.269,-0.553C0.301,-0.553 0.327,-0.547 0.348,-0.536C0.368,-0.526 0.385,-0.513 0.397,-0.498C0.409,-0.483 0.418,-0.468 0.425,-0.455L0.43,-0.455L0.43,-0.727L0.559,-0.727L0.559,-0L0.432,-0L0.432,-0.086L0.425,-0.086C0.418,-0.073 0.408,-0.059 0.396,-0.044C0.383,-0.029 0.367,-0.016 0.346,-0.006C0.326,0.004 0.3,0.01 0.268,0.01ZM0.304,-0.096C0.332,-0.096 0.355,-0.103 0.374,-0.118C0.393,-0.133 0.408,-0.153 0.418,-0.18C0.428,-0.206 0.433,-0.237 0.433,-0.273C0.433,-0.308 0.428,-0.339 0.418,-0.365C0.408,-0.391 0.393,-0.411 0.374,-0.426C0.355,-0.44 0.332,-0.447 0.304,-0.447C0.276,-0.447 0.252,-0.44 0.233,-0.425C0.214,-0.41 0.199,-0.389 0.189,-0.363C0.18,-0.337 0.175,-0.307 0.175,-0.273C0.175,-0.239 0.18,-0.208 0.19,-0.182C0.199,-0.155 0.214,-0.134 0.233,-0.119C0.252,-0.103 0.276,-0.096 0.304,-0.096Z" style="fill:rgb(102,102,102);fill-rule:nonzero;"/>
                </g>
                <g transform="matrix(48,0,0,48,600.2,785.641)">
                    <path d="M0.066,-0L0.066,-0.545L0.195,-0.545L0.195,-0L0.066,-0ZM0.131,-0.623C0.11,-0.623 0.093,-0.63 0.078,-0.643C0.064,-0.657 0.056,-0.673 0.056,-0.693C0.056,-0.712 0.064,-0.728 0.078,-0.742C0.093,-0.756 0.11,-0.763 0.131,-0.763C0.151,-0.763 0.169,-0.756 0.183,-0.742C0.198,-0.728 0.205,-0.712 0.205,-0.693C0.205,-0.673 0.198,-0.657 0.183,-0.643C0.169,-0.63 0.151,-0.623 0.131,-0.623Z" style="fill:rgb(102,102,102);fill-rule:nonzero;"/>
                </g>
                <g transform="matrix(48,0,0,48,612.705,785.641)">
                    <path d="M0.304,0.011C0.251,0.011 0.205,-0.001 0.166,-0.024C0.126,-0.048 0.096,-0.081 0.075,-0.123C0.053,-0.165 0.043,-0.214 0.043,-0.27C0.043,-0.327 0.053,-0.376 0.075,-0.419C0.096,-0.461 0.126,-0.494 0.166,-0.517C0.205,-0.541 0.251,-0.553 0.304,-0.553C0.357,-0.553 0.403,-0.541 0.442,-0.517C0.482,-0.494 0.512,-0.461 0.533,-0.419C0.555,-0.376 0.565,-0.327 0.565,-0.27C0.565,-0.214 0.555,-0.165 0.533,-0.123C0.512,-0.081 0.482,-0.048 0.442,-0.024C0.403,-0.001 0.357,0.011 0.304,0.011ZM0.305,-0.092C0.334,-0.092 0.358,-0.1 0.377,-0.116C0.396,-0.132 0.411,-0.154 0.421,-0.181C0.43,-0.208 0.435,-0.238 0.435,-0.271C0.435,-0.304 0.43,-0.335 0.421,-0.362C0.411,-0.389 0.396,-0.41 0.377,-0.426C0.358,-0.443 0.334,-0.451 0.305,-0.451C0.275,-0.451 0.251,-0.443 0.231,-0.426C0.212,-0.41 0.197,-0.389 0.187,-0.362C0.178,-0.335 0.173,-0.304 0.173,-0.271C0.173,-0.238 0.178,-0.208 0.187,-0.181C0.197,-0.154 0.212,-0.132 0.231,-0.116C0.251,-0.1 0.275,-0.092 0.305,-0.092Z" style="fill:rgb(102,102,102);fill-rule:nonzero;"/>
                </g>
                <g transform="matrix(48,0,0,48,641.886,785.641)">
                    <rect x="0.066" y="-0.727" width="0.129" height="0.727" style="fill:rgb(102,102,102);fill-rule:nonzero;"/>
                </g>
                <g transform="matrix(48,0,0,48,654.391,785.641)">
                    <path d="M0.304,0.011C0.251,0.011 0.205,-0.001 0.166,-0.024C0.126,-0.048 0.096,-0.081 0.075,-0.123C0.053,-0.165 0.043,-0.214 0.043,-0.27C0.043,-0.327 0.053,-0.376 0.075,-0.419C0.096,-0.461 0.126,-0.494 0.166,-0.517C0.205,-0.541 0.251,-0.553 0.304,-0.553C0.357,-0.553 0.403,-0.541 0.442,-0.517C0.482,-0.494 0.512,-0.461 0.533,-0.419C0.555,-0.376 0.565,-0.327 0.565,-0.27C0.565,-0.214 0.555,-0.165 0.533,-0.123C0.512,-0.081 0.482,-0.048 0.442,-0.024C0.403,-0.001 0.357,0.011 0.304,0.011ZM0.305,-0.092C0.334,-0.092 0.358,-0.1 0.377,-0.116C0.396,-0.132 0.411,-0.154 0.421,-0.181C0.43,-0.208 0.435,-0.238 0.435,-0.271C0.435,-0.304 0.43,-0.335 0.421,-0.362C0.411,-0.389 0.396,-0.41 0.377,-0.426C0.358,-0.443 0.334,-0.451 0.305,-0.451C0.275,-0.451 0.251,-0.443 0.231,-0.426C0.212,-0.41 0.197,-0.389 0.187,-0.362C0.178,-0.335 0.173,-0.304 0.173,-0.271C0.173,-0.238 0.178,-0.208 0.187,-0.181C0.197,-0.154 0.212,-0.132 0.231,-0.116C0.251,-0.1 0.275,-0.092 0.305,-0.092Z" style="fill:rgb(102,102,102);fill-rule:nonzero;"/>
                </g>
                <g transform="matrix(48,0,0,48,683.573,785.641)">
                    <path d="M0.303,0.216C0.257,0.216 0.217,0.21 0.184,0.197C0.151,0.185 0.125,0.168 0.105,0.147C0.084,0.127 0.07,0.104 0.063,0.078L0.178,0.05C0.183,0.061 0.191,0.071 0.201,0.082C0.211,0.092 0.225,0.101 0.241,0.108C0.258,0.115 0.28,0.119 0.305,0.119C0.342,0.119 0.372,0.11 0.396,0.092C0.42,0.074 0.432,0.046 0.432,0.005L0.432,-0.098L0.425,-0.098C0.419,-0.085 0.409,-0.071 0.397,-0.057C0.384,-0.043 0.367,-0.032 0.346,-0.022C0.326,-0.013 0.3,-0.008 0.268,-0.008C0.227,-0.008 0.189,-0.018 0.155,-0.038C0.121,-0.057 0.094,-0.087 0.074,-0.126C0.054,-0.166 0.044,-0.215 0.044,-0.274C0.044,-0.334 0.054,-0.385 0.074,-0.426C0.094,-0.468 0.121,-0.499 0.155,-0.52C0.189,-0.542 0.227,-0.553 0.269,-0.553C0.301,-0.553 0.327,-0.547 0.348,-0.536C0.369,-0.526 0.385,-0.513 0.397,-0.498C0.41,-0.483 0.419,-0.468 0.426,-0.455L0.432,-0.455L0.432,-0.545L0.559,-0.545L0.559,0.009C0.559,0.055 0.548,0.094 0.526,0.125C0.504,0.155 0.473,0.178 0.435,0.193C0.396,0.208 0.352,0.216 0.303,0.216ZM0.304,-0.109C0.332,-0.109 0.355,-0.115 0.374,-0.129C0.393,-0.142 0.408,-0.161 0.418,-0.186C0.428,-0.211 0.433,-0.241 0.433,-0.275C0.433,-0.31 0.428,-0.34 0.418,-0.365C0.408,-0.391 0.393,-0.411 0.374,-0.426C0.355,-0.44 0.332,-0.447 0.304,-0.447C0.276,-0.447 0.252,-0.44 0.233,-0.425C0.214,-0.41 0.199,-0.389 0.189,-0.364C0.18,-0.338 0.175,-0.308 0.175,-0.275C0.175,-0.242 0.18,-0.213 0.19,-0.188C0.199,-0.163 0.214,-0.143 0.233,-0.13C0.252,-0.116 0.276,-0.109 0.304,-0.109Z" style="fill:rgb(102,102,102);fill-rule:nonzero;"/>
                </g>
                <g transform="matrix(48,0,0,48,713.587,785.641)">
                    <path d="M0.146,0.205C0.129,0.205 0.112,0.203 0.098,0.2C0.083,0.198 0.071,0.195 0.062,0.191L0.092,0.091C0.111,0.096 0.127,0.099 0.142,0.099C0.157,0.099 0.17,0.094 0.181,0.085C0.192,0.076 0.202,0.062 0.209,0.041L0.22,0.011L0.023,-0.545L0.159,-0.545L0.285,-0.134L0.29,-0.134L0.416,-0.545L0.553,-0.545L0.335,0.066C0.325,0.095 0.311,0.12 0.294,0.14C0.278,0.161 0.257,0.177 0.233,0.188C0.208,0.199 0.18,0.205 0.146,0.205Z" style="fill:rgb(102,102,102);fill-rule:nonzero;"/>
                </g>
                <g transform="matrix(48,0,0,48,741.241,785.641)">
                </g>
                <g transform="matrix(48,0,0,48,753.159,785.641)">
                    <path d="M0.694,-0.482L0.561,-0.482C0.558,-0.504 0.551,-0.523 0.541,-0.54C0.53,-0.557 0.518,-0.571 0.503,-0.583C0.487,-0.595 0.47,-0.604 0.451,-0.61C0.431,-0.616 0.411,-0.619 0.389,-0.619C0.349,-0.619 0.314,-0.609 0.283,-0.589C0.253,-0.57 0.229,-0.541 0.212,-0.503C0.194,-0.465 0.186,-0.418 0.186,-0.364C0.186,-0.308 0.194,-0.261 0.212,-0.223C0.229,-0.185 0.253,-0.157 0.284,-0.137C0.314,-0.118 0.349,-0.108 0.388,-0.108C0.41,-0.108 0.43,-0.111 0.449,-0.117C0.469,-0.123 0.486,-0.131 0.501,-0.143C0.516,-0.154 0.529,-0.168 0.54,-0.185C0.55,-0.201 0.557,-0.22 0.561,-0.241L0.694,-0.241C0.689,-0.206 0.679,-0.174 0.662,-0.143C0.646,-0.113 0.624,-0.086 0.598,-0.063C0.571,-0.04 0.54,-0.022 0.505,-0.009C0.469,0.003 0.43,0.01 0.386,0.01C0.322,0.01 0.265,-0.005 0.215,-0.035C0.165,-0.064 0.126,-0.107 0.097,-0.163C0.068,-0.218 0.053,-0.285 0.053,-0.364C0.053,-0.442 0.068,-0.509 0.097,-0.565C0.126,-0.621 0.166,-0.663 0.216,-0.693C0.266,-0.722 0.323,-0.737 0.386,-0.737C0.427,-0.737 0.464,-0.732 0.499,-0.72C0.534,-0.709 0.565,-0.692 0.592,-0.67C0.62,-0.648 0.642,-0.622 0.66,-0.59C0.677,-0.558 0.689,-0.522 0.694,-0.482Z" style="fill:rgb(102,102,102);fill-rule:nonzero;"/>
                </g>
                <g transform="matrix(48,0,0,48,788.859,785.641)">
                    <path d="M0.304,0.011C0.251,0.011 0.205,-0.001 0.166,-0.024C0.126,-0.048 0.096,-0.081 0.075,-0.123C0.053,-0.165 0.043,-0.214 0.043,-0.27C0.043,-0.327 0.053,-0.376 0.075,-0.419C0.096,-0.461 0.126,-0.494 0.166,-0.517C0.205,-0.541 0.251,-0.553 0.304,-0.553C0.357,-0.553 0.403,-0.541 0.442,-0.517C0.482,-0.494 0.512,-0.461 0.533,-0.419C0.555,-0.376 0.565,-0.327 0.565,-0.27C0.565,-0.214 0.555,-0.165 0.533,-0.123C0.512,-0.081 0.482,-0.048 0.442,-0.024C0.403,-0.001 0.357,0.011 0.304,0.011ZM0.305,-0.092C0.334,-0.092 0.358,-0.1 0.377,-0.116C0.396,-0.132 0.411,-0.154 0.421,-0.181C0.43,-0.208 0.435,-0.238 0.435,-0.271C0.435,-0.304 0.43,-0.335 0.421,-0.362C0.411,-0.389 0.396,-0.41 0.377,-0.426C0.358,-0.443 0.334,-0.451 0.305,-0.451C0.275,-0.451 0.251,-0.443 0.231,-0.426C0.212,-0.41 0.197,-0.389 0.187,-0.362C0.178,-0.335 0.173,-0.304 0.173,-0.271C0.173,-0.238 0.178,-0.208 0.187,-0.181C0.197,-0.154 0.212,-0.132 0.231,-0.116C0.251,-0.1 0.275,-0.092 0.305,-0.092Z" style="fill:rgb(102,102,102);fill-rule:nonzero;"/>
                </g>
                <g transform="matrix(48,0,0,48,818.041,785.641)">
                    <path d="M0.195,-0.32L0.195,-0L0.066,-0L0.066,-0.545L0.189,-0.545L0.189,-0.453L0.195,-0.453C0.208,-0.483 0.228,-0.508 0.255,-0.526C0.283,-0.544 0.317,-0.553 0.358,-0.553C0.396,-0.553 0.428,-0.545 0.456,-0.528C0.484,-0.512 0.506,-0.489 0.522,-0.458C0.537,-0.428 0.545,-0.391 0.545,-0.347L0.545,-0L0.416,-0L0.416,-0.327C0.416,-0.364 0.407,-0.392 0.388,-0.413C0.369,-0.433 0.343,-0.444 0.31,-0.444C0.287,-0.444 0.268,-0.439 0.25,-0.429C0.233,-0.419 0.219,-0.405 0.209,-0.387C0.2,-0.368 0.195,-0.346 0.195,-0.32Z" style="fill:rgb(102,102,102);fill-rule:nonzero;"/>
                </g>
                <g transform="matrix(48,0,0,48,847.305,785.641)">
                    <path d="M0.497,-0.401L0.38,-0.388C0.377,-0.4 0.371,-0.412 0.363,-0.422C0.354,-0.432 0.344,-0.441 0.33,-0.447C0.316,-0.454 0.299,-0.457 0.28,-0.457C0.253,-0.457 0.23,-0.451 0.212,-0.439C0.194,-0.428 0.185,-0.413 0.185,-0.394C0.185,-0.378 0.191,-0.365 0.203,-0.355C0.215,-0.345 0.235,-0.337 0.263,-0.331L0.355,-0.311C0.407,-0.3 0.445,-0.282 0.471,-0.258C0.496,-0.234 0.509,-0.202 0.509,-0.163C0.509,-0.129 0.499,-0.099 0.479,-0.073C0.459,-0.046 0.432,-0.026 0.397,-0.011C0.362,0.003 0.321,0.011 0.276,0.011C0.209,0.011 0.155,-0.003 0.115,-0.031C0.074,-0.06 0.05,-0.099 0.042,-0.149L0.167,-0.161C0.173,-0.136 0.185,-0.118 0.204,-0.105C0.222,-0.093 0.246,-0.086 0.276,-0.086C0.306,-0.086 0.331,-0.093 0.349,-0.105C0.368,-0.118 0.377,-0.133 0.377,-0.152C0.377,-0.167 0.371,-0.18 0.359,-0.19C0.347,-0.201 0.329,-0.208 0.304,-0.214L0.211,-0.233C0.158,-0.244 0.12,-0.263 0.095,-0.289C0.069,-0.314 0.057,-0.347 0.057,-0.387C0.057,-0.421 0.066,-0.45 0.085,-0.475C0.103,-0.499 0.129,-0.518 0.162,-0.532C0.196,-0.546 0.234,-0.553 0.278,-0.553C0.342,-0.553 0.392,-0.539 0.429,-0.512C0.466,-0.484 0.488,-0.448 0.497,-0.401Z" style="fill:rgb(102,102,102);fill-rule:nonzero;"/>
                </g>
                <g transform="matrix(48,0,0,48,873.65,785.641)">
                    <path d="M0.414,-0.229L0.414,-0.545L0.542,-0.545L0.542,-0L0.418,-0L0.418,-0.097L0.412,-0.097C0.4,-0.066 0.379,-0.041 0.351,-0.022C0.323,-0.003 0.289,0.007 0.248,0.007C0.212,0.007 0.181,-0.001 0.153,-0.017C0.126,-0.033 0.105,-0.056 0.089,-0.087C0.074,-0.117 0.066,-0.155 0.066,-0.198L0.066,-0.545L0.195,-0.545L0.195,-0.218C0.195,-0.184 0.204,-0.156 0.223,-0.136C0.242,-0.115 0.267,-0.105 0.297,-0.105C0.316,-0.105 0.335,-0.11 0.353,-0.119C0.37,-0.128 0.385,-0.142 0.397,-0.16C0.408,-0.179 0.414,-0.202 0.414,-0.229Z" style="fill:rgb(102,102,102);fill-rule:nonzero;"/>
                </g>
                <g transform="matrix(48,0,0,48,902.846,785.641)">
                    <rect x="0.066" y="-0.727" width="0.129" height="0.727" style="fill:rgb(102,102,102);fill-rule:nonzero;"/>
                </g>
                <g transform="matrix(48,0,0,48,915.351,785.641)">
                    <path d="M0.338,-0.545L0.338,-0.446L0.025,-0.446L0.025,-0.545L0.338,-0.545ZM0.102,-0.676L0.231,-0.676L0.231,-0.164C0.231,-0.147 0.234,-0.134 0.239,-0.124C0.244,-0.115 0.251,-0.109 0.26,-0.106C0.269,-0.103 0.278,-0.101 0.289,-0.101C0.297,-0.101 0.304,-0.101 0.311,-0.103C0.318,-0.104 0.323,-0.105 0.327,-0.106L0.348,-0.005C0.341,-0.003 0.332,-0 0.319,0.002C0.306,0.005 0.291,0.007 0.273,0.007C0.241,0.008 0.212,0.003 0.186,-0.007C0.16,-0.018 0.14,-0.035 0.125,-0.058C0.11,-0.08 0.102,-0.109 0.102,-0.143L0.102,-0.676Z" style="fill:rgb(102,102,102);fill-rule:nonzero;"/>
                </g>
                <g transform="matrix(48,0,0,48,933.596,785.641)">
                </g>
            </g>
        </g>
        <g transform="matrix(1,0,0,1,2182.12,0)">
            <g transform="matrix(1,0,0,1,-6.14766,-10.1419)">
                <g transform="matrix(1.0634,0,0,1.12313,-57.1592,499.484)">
                    <path d="M1067.31,293.709L1067.31,552.342C1067.31,565.936 1055.65,576.974 1041.29,576.974L411.267,576.974C396.909,576.974 385.251,565.936 385.251,552.342L385.251,293.709C385.251,280.115 396.909,269.077 411.267,269.077L1041.29,269.077C1055.65,269.077 1067.31,280.115 1067.31,293.709Z" style="fill:rgb(221,221,221);"/>
                </g>
                <g transform="matrix(1.04537,0,0,1.04537,-44.0667,526.408)">
                    <path d="M1067.31,293.709L1067.31,552.342C1067.31,565.936 1056.27,576.974 1042.67,576.974L409.883,576.974C396.289,576.974 385.251,565.936 385.251,552.342L385.251,293.709C385.251,280.115 396.289,269.077 409.883,269.077L1042.67,269.077C1056.27,269.077 1067.31,280.115 1067.31,293.709Z" style="fill:white;"/>
                </g>
                <g transform="matrix(1.04537,0,0,1.04537,-44.0667,526.408)">
                    <path d="M1067.31,293.709L1067.31,423.026L385.251,423.026L385.251,293.709C385.251,280.115 396.289,269.077 409.883,269.077L1042.67,269.077C1056.27,269.077 1067.31,280.115 1067.31,293.709Z" style="fill:rgb(255,237,212);"/>
                </g>
                <g transform="matrix(1,0,0,1,-79.2885,119.973)">
                    <g transform="matrix(48,0,0,48,488.709,785.641)">
                        <path d="M0.04,-0.617L0.04,-0.727L0.62,-0.727L0.62,-0.617L0.395,-0.617L0.395,-0L0.264,-0L0.264,-0.617L0.04,-0.617Z" style="fill:rgb(51,51,51);fill-rule:nonzero;"/>
                    </g>
                    <g transform="matrix(48,0,0,48,516.554,785.641)">
                        <path d="M0.308,0.011C0.253,0.011 0.206,-0.001 0.166,-0.024C0.126,-0.047 0.096,-0.079 0.075,-0.121C0.053,-0.163 0.043,-0.213 0.043,-0.27C0.043,-0.326 0.053,-0.375 0.075,-0.417C0.096,-0.46 0.126,-0.493 0.165,-0.517C0.203,-0.541 0.249,-0.553 0.301,-0.553C0.334,-0.553 0.366,-0.547 0.396,-0.536C0.426,-0.526 0.453,-0.509 0.476,-0.487C0.499,-0.464 0.517,-0.436 0.53,-0.401C0.543,-0.366 0.55,-0.325 0.55,-0.277L0.55,-0.237L0.103,-0.237L0.103,-0.324L0.427,-0.324C0.427,-0.349 0.421,-0.371 0.411,-0.39C0.401,-0.409 0.386,-0.425 0.368,-0.436C0.349,-0.447 0.327,-0.452 0.303,-0.452C0.276,-0.452 0.253,-0.446 0.233,-0.433C0.213,-0.421 0.198,-0.404 0.187,-0.384C0.176,-0.363 0.17,-0.341 0.17,-0.316L0.17,-0.241C0.17,-0.209 0.176,-0.182 0.187,-0.159C0.199,-0.137 0.215,-0.119 0.236,-0.107C0.257,-0.095 0.281,-0.089 0.309,-0.089C0.328,-0.089 0.345,-0.092 0.36,-0.097C0.375,-0.103 0.388,-0.111 0.4,-0.121C0.411,-0.132 0.419,-0.145 0.425,-0.16L0.545,-0.146C0.537,-0.115 0.523,-0.087 0.502,-0.064C0.48,-0.04 0.453,-0.022 0.42,-0.009C0.388,0.004 0.35,0.011 0.308,0.011Z" style="fill:rgb(51,51,51);fill-rule:nonzero;"/>
                    </g>
                    <g transform="matrix(48,0,0,48,545,785.641)">
                        <path d="M0.497,-0.401L0.38,-0.388C0.377,-0.4 0.371,-0.412 0.363,-0.422C0.354,-0.432 0.344,-0.441 0.33,-0.447C0.316,-0.454 0.299,-0.457 0.28,-0.457C0.253,-0.457 0.23,-0.451 0.212,-0.439C0.194,-0.428 0.185,-0.413 0.185,-0.394C0.185,-0.378 0.191,-0.365 0.203,-0.355C0.215,-0.345 0.235,-0.337 0.263,-0.331L0.355,-0.311C0.407,-0.3 0.445,-0.282 0.471,-0.258C0.496,-0.234 0.509,-0.202 0.509,-0.163C0.509,-0.129 0.499,-0.099 0.479,-0.073C0.459,-0.046 0.432,-0.026 0.397,-0.011C0.362,0.003 0.321,0.011 0.276,0.011C0.209,0.011 0.155,-0.003 0.115,-0.031C0.074,-0.06 0.05,-0.099 0.042,-0.149L0.167,-0.161C0.173,-0.136 0.185,-0.118 0.204,-0.105C0.222,-0.093 0.246,-0.086 0.276,-0.086C0.306,-0.086 0.331,-0.093 0.349,-0.105C0.368,-0.118 0.377,-0.133 0.377,-0.152C0.377,-0.167 0.371,-0.18 0.359,-0.19C0.347,-0.201 0.329,-0.208 0.304,-0.214L0.211,-0.233C0.158,-0.244 0.12,-0.263 0.095,-0.289C0.069,-0.314 0.057,-0.347 0.057,-0.387C0.057,-0.421 0.066,-0.45 0.085,-0.475C0.103,-0.499 0.129,-0.518 0.162,-0.532C0.196,-0.546 0.234,-0.553 0.278,-0.553C0.342,-0.553 0.392,-0.539 0.429,-0.512C0.466,-0.484 0.488,-0.448 0.497,-0.401Z" style="fill:rgb(51,51,51);fill-rule:nonzero;"/>
                    </g>
                    <g transform="matrix(48,0,0,48,571.345,785.641)">
                        <path d="M0.338,-0.545L0.338,-0.446L0.025,-0.446L0.025,-0.545L0.338,-0.545ZM0.102,-0.676L0.231,-0.676L0.231,-0.164C0.231,-0.147 0.234,-0.134 0.239,-0.124C0.244,-0.115 0.251,-0.109 0.26,-0.106C0.269,-0.103 0.278,-0.101 0.289,-0.101C0.297,-0.101 0.304,-0.101 0.311,-0.103C0.318,-0.104 0.323,-0.105 0.327,-0.106L0.348,-0.005C0.341,-0.003 0.332,-0 0.319,0.002C0.306,0.005 0.291,0.007 0.273,0.007C0.241,0.008 0.212,0.003 0.186,-0.007C0.16,-0.018 0.14,-0.035 0.125,-0.058C0.11,-0.08 0.102,-0.109 0.102,-0.143L0.102,-0.676Z" style="fill:rgb(51,51,51);fill-rule:nonzero;"/>
                    </g>
                    <g transform="matrix(48,0,0,48,589.591,785.641)">
                    </g>
                    <g transform="matrix(48,0,0,48,601.509,785.641)">
                        <path d="M0.072,-0L0.072,-0.727L0.345,-0.727C0.4,-0.727 0.447,-0.718 0.485,-0.698C0.523,-0.679 0.552,-0.651 0.572,-0.617C0.591,-0.582 0.601,-0.541 0.601,-0.495C0.601,-0.448 0.591,-0.408 0.571,-0.374C0.551,-0.339 0.522,-0.313 0.484,-0.294C0.446,-0.276 0.399,-0.266 0.343,-0.266L0.148,-0.266L0.148,-0.376L0.325,-0.376C0.358,-0.376 0.384,-0.38 0.405,-0.389C0.426,-0.398 0.441,-0.412 0.451,-0.43C0.461,-0.447 0.466,-0.469 0.466,-0.495C0.466,-0.52 0.461,-0.542 0.451,-0.561C0.441,-0.579 0.426,-0.593 0.405,-0.603C0.384,-0.612 0.357,-0.617 0.324,-0.617L0.203,-0.617L0.203,-0L0.072,-0ZM0.447,-0.33L0.628,-0L0.48,-0L0.304,-0.33L0.447,-0.33Z" style="fill:rgb(51,51,51);fill-rule:nonzero;"/>
                    </g>
                    <g transform="matrix(48,0,0,48,632.361,785.641)">
                        <path d="M0.308,0.011C0.253,0.011 0.206,-0.001 0.166,-0.024C0.126,-0.047 0.096,-0.079 0.075,-0.121C0.053,-0.163 0.043,-0.213 0.043,-0.27C0.043,-0.326 0.053,-0.375 0.075,-0.417C0.096,-0.46 0.126,-0.493 0.165,-0.517C0.203,-0.541 0.249,-0.553 0.301,-0.553C0.334,-0.553 0.366,-0.547 0.396,-0.536C0.426,-0.526 0.453,-0.509 0.476,-0.487C0.499,-0.464 0.517,-0.436 0.53,-0.401C0.543,-0.366 0.55,-0.325 0.55,-0.277L0.55,-0.237L0.103,-0.237L0.103,-0.324L0.427,-0.324C0.427,-0.349 0.421,-0.371 0.411,-0.39C0.401,-0.409 0.386,-0.425 0.368,-0.436C0.349,-0.447 0.327,-0.452 0.303,-0.452C0.276,-0.452 0.253,-0.446 0.233,-0.433C0.213,-0.421 0.198,-0.404 0.187,-0.384C0.176,-0.363 0.17,-0.341 0.17,-0.316L0.17,-0.241C0.17,-0.209 0.176,-0.182 0.187,-0.159C0.199,-0.137 0.215,-0.119 0.236,-0.107C0.257,-0.095 0.281,-0.089 0.309,-0.089C0.328,-0.089 0.345,-0.092 0.36,-0.097C0.375,-0.103 0.388,-0.111 0.4,-0.121C0.411,-0.132 0.419,-0.145 0.425,-0.16L0.545,-0.146C0.537,-0.115 0.523,-0.087 0.502,-0.064C0.48,-0.04 0.453,-0.022 0.42,-0.009C0.388,0.004 0.35,0.011 0.308,0.011Z" style="fill:rgb(51,51,51);fill-rule:nonzero;"/>
                    </g>
                    <g transform="matrix(48,0,0,48,660.807,785.641)">
                        <path d="M0.497,-0.401L0.38,-0.388C0.377,-0.4 0.371,-0.412 0.363,-0.422C0.354,-0.432 0.344,-0.441 0.33,-0.447C0.316,-0.454 0.299,-0.457 0.28,-0.457C0.253,-0.457 0.23,-0.451 0.212,-0.439C0.194,-0.428 0.185,-0.413 0.185,-0.394C0.185,-0.378 0.191,-0.365 0.203,-0.355C0.215,-0.345 0.235,-0.337 0.263,-0.331L0.355,-0.311C0.407,-0.3 0.445,-0.282 0.471,-0.258C0.496,-0.234 0.509,-0.202 0.509,-0.163C0.509,-0.129 0.499,-0.099 0.479,-0.073C0.459,-0.046 0.432,-0.026 0.397,-0.011C0.362,0.003 0.321,0.011 0.276,0.011C0.209,0.011 0.155,-0.003 0.115,-0.031C0.074,-0.06 0.05,-0.099 0.042,-0.149L0.167,-0.161C0.173,-0.136 0.185,-0.118 0.204,-0.105C0.222,-0.093 0.246,-0.086 0.276,-0.086C0.306,-0.086 0.331,-0.093 0.349,-0.105C0.368,-0.118 0.377,-0.133 0.377,-0.152C0.377,-0.167 0.371,-0.18 0.359,-0.19C0.347,-0.201 0.329,-0.208 0.304,-0.214L0.211,-0.233C0.158,-0.244 0.12,-0.263 0.095,-0.289C0.069,-0.314 0.057,-0.347 0.057,-0.387C0.057,-0.421 0.066,-0.45 0.085,-0.475C0.103,-0.499 0.129,-0.518 0.162,-0.532C0.196,-0.546 0.234,-0.553 0.278,-0.553C0.342,-0.553 0.392,-0.539 0.429,-0.512C0.466,-0.484 0.488,-0.448 0.497,-0.401Z" style="fill:rgb(51,51,51);fill-rule:nonzero;"/>
                    </g>
                    <g transform="matrix(48,0,0,48,687.152,785.641)">
                        <path d="M0.414,-0.229L0.414,-0.545L0.542,-0.545L0.542,-0L0.418,-0L0.418,-0.097L0.412,-0.097C0.4,-0.066 0.379,-0.041 0.351,-0.022C0.323,-0.003 0.289,0.007 0.248,0.007C0.212,0.007 0.181,-0.001 0.153,-0.017C0.126,-0.033 0.105,-0.056 0.089,-0.087C0.074,-0.117 0.066,-0.155 0.066,-0.198L0.066,-0.545L0.195,-0.545L0.195,-0.218C0.195,-0.184 0.204,-0.156 0.223,-0.136C0.242,-0.115 0.267,-0.105 0.297,-0.105C0.316,-0.105 0.335,-0.11 0.353,-0.119C0.37,-0.128 0.385,-0.142 0.397,-0.16C0.408,-0.179 0.414,-0.202 0.414,-0.229Z" style="fill:rgb(51,51,51);fill-rule:nonzero;"/>
                    </g>
                    <g transform="matrix(48,0,0,48,716.348,785.641)">
                        <rect x="0.066" y="-0.727" width="0.129" height="0.727" style="fill:rgb(51,51,51);fill-rule:nonzero;"/>
                    </g>
                    <g transform="matrix(48,0,0,48,728.853,785.641)">
                        <path d="M0.338,-0.545L0.338,-0.446L0.025,-0.446L0.025,-0.545L0.338,-0.545ZM0.102,-0.676L0.231,-0.676L0.231,-0.164C0.231,-0.147 0.234,-0.134 0.239,-0.124C0.244,-0.115 0.251,-0.109 0.26,-0.106C0.269,-0.103 0.278,-0.101 0.289,-0.101C0.297,-0.101 0.304,-0.101 0.311,-0.103C0.318,-0.104 0.323,-0.105 0.327,-0.106L0.348,-0.005C0.341,-0.003 0.332,-0 0.319,0.002C0.306,0.005 0.291,0.007 0.273,0.007C0.241,0.008 0.212,0.003 0.186,-0.007C0.16,-0.018 0.14,-0.035 0.125,-0.058C0.11,-0.08 0.102,-0.109 0.102,-0.143L0.102,-0.676Z" style="fill:rgb(51,51,51);fill-rule:nonzero;"/>
                    </g>
                    <g transform="matrix(48,0,0,48,747.098,785.641)">
                    </g>
                </g>
                <g transform="matrix(1,0,0,1,-79.2885,282.898)">
                    <g transform="matrix(48,0,0,48,488.709,785.641)">
                        <path d="M0.072,-0L0.072,-0.727L0.545,-0.727L0.545,-0.617L0.203,-0.617L0.203,-0.419L0.52,-0.419L0.52,-0.309L0.203,-0.309L0.203,-0.111L0.547,-0.111L0.547,-0L0.072,-0Z" style="fill:rgb(102,102,102);fill-rule:nonzero;"/>
                    </g>
                    <g transform="matrix(48,0,0,48,517.877,785.641)">
                        <rect x="0.066" y="-0.727" width="0.129" height="0.727" style="fill:rgb(102,102,102);fill-rule:nonzero;"/>
                    </g>
                    <g transform="matrix(48,0,0,48,530.382,785.641)">
                        <path d="M0.308,0.011C0.253,0.011 0.206,-0.001 0.166,-0.024C0.126,-0.047 0.096,-0.079 0.075,-0.121C0.053,-0.163 0.043,-0.213 0.043,-0.27C0.043,-0.326 0.053,-0.375 0.075,-0.417C0.096,-0.46 0.126,-0.493 0.165,-0.517C0.203,-0.541 0.249,-0.553 0.301,-0.553C0.334,-0.553 0.366,-0.547 0.396,-0.536C0.426,-0.526 0.453,-0.509 0.476,-0.487C0.499,-0.464 0.517,-0.436 0.53,-0.401C0.543,-0.366 0.55,-0.325 0.55,-0.277L0.55,-0.237L0.103,-0.237L0.103,-0.324L0.427,-0.324C0.427,-0.349 0.421,-0.371 0.411,-0.39C0.401,-0.409 0.386,-0.425 0.368,-0.436C0.349,-0.447 0.327,-0.452 0.303,-0.452C0.276,-0.452 0.253,-0.446 0.233,-0.433C0.213,-0.421 0.198,-0.404 0.187,-0.384C0.176,-0.363 0.17,-0.341 0.17,-0.316L0.17,-0.241C0.17,-0.209 0.176,-0.182 0.187,-0.159C0.199,-0.137 0.215,-0.119 0.236,-0.107C0.257,-0.095 0.281,-0.089 0.309,-0.089C0.328,-0.089 0.345,-0.092 0.36,-0.097C0.375,-0.103 0.388,-0.111 0.4,-0.121C0.411,-0.132 0.419,-0.145 0.425,-0.16L0.545,-0.146C0.537,-0.115 0.523,-0.087 0.502,-0.064C0.48,-0.04 0.453,-0.022 0.42,-0.009C0.388,0.004 0.35,0.011 0.308,0.011Z" style="fill:rgb(102,102,102);fill-rule:nonzero;"/>
                    </g>
                    <g transform="matrix(48,0,0,48,558.06,785.641)">
                        <path d="M0.553,-0.545L0.359,-0L0.217,-0L0.023,-0.545L0.16,-0.545L0.285,-0.14L0.291,-0.14L0.416,-0.545L0.553,-0.545Z" style="fill:rgb(102,102,102);fill-rule:nonzero;"/>
                    </g>
                    <g transform="matrix(48,0,0,48,584.948,785.641)">
                        <path d="M0.223,0.011C0.188,0.011 0.157,0.005 0.13,-0.008C0.102,-0.02 0.08,-0.039 0.064,-0.063C0.048,-0.087 0.04,-0.117 0.04,-0.153C0.04,-0.184 0.046,-0.209 0.058,-0.229C0.069,-0.25 0.085,-0.266 0.104,-0.278C0.124,-0.29 0.146,-0.299 0.171,-0.305C0.195,-0.311 0.221,-0.316 0.247,-0.319C0.28,-0.322 0.306,-0.325 0.325,-0.328C0.345,-0.331 0.36,-0.335 0.369,-0.341C0.378,-0.347 0.382,-0.356 0.382,-0.368L0.382,-0.37C0.382,-0.397 0.374,-0.418 0.359,-0.432C0.343,-0.447 0.32,-0.454 0.29,-0.454C0.259,-0.454 0.234,-0.447 0.215,-0.434C0.197,-0.42 0.185,-0.404 0.178,-0.385L0.058,-0.402C0.068,-0.435 0.083,-0.463 0.105,-0.485C0.127,-0.508 0.154,-0.524 0.185,-0.536C0.217,-0.547 0.251,-0.553 0.289,-0.553C0.316,-0.553 0.342,-0.549 0.368,-0.543C0.394,-0.537 0.418,-0.527 0.439,-0.513C0.461,-0.499 0.478,-0.48 0.491,-0.455C0.505,-0.431 0.511,-0.401 0.511,-0.365L0.511,-0L0.388,-0L0.388,-0.075L0.383,-0.075C0.375,-0.06 0.365,-0.046 0.35,-0.032C0.336,-0.019 0.319,-0.009 0.297,-0.001C0.276,0.007 0.252,0.011 0.223,0.011ZM0.256,-0.084C0.282,-0.084 0.305,-0.089 0.323,-0.099C0.342,-0.109 0.357,-0.123 0.367,-0.14C0.378,-0.157 0.383,-0.175 0.383,-0.196L0.383,-0.26C0.379,-0.257 0.372,-0.253 0.362,-0.251C0.353,-0.248 0.342,-0.245 0.33,-0.243C0.318,-0.241 0.307,-0.239 0.295,-0.237C0.283,-0.236 0.273,-0.234 0.265,-0.233C0.246,-0.231 0.229,-0.226 0.213,-0.22C0.198,-0.215 0.186,-0.206 0.178,-0.196C0.169,-0.185 0.164,-0.172 0.164,-0.155C0.164,-0.132 0.173,-0.114 0.19,-0.102C0.208,-0.09 0.23,-0.084 0.256,-0.084Z" style="fill:rgb(102,102,102);fill-rule:nonzero;"/>
                    </g>
                    <g transform="matrix(48,0,0,48,612.534,785.641)">
                        <path d="M0.338,-0.545L0.338,-0.446L0.025,-0.446L0.025,-0.545L0.338,-0.545ZM0.102,-0.676L0.231,-0.676L0.231,-0.164C0.231,-0.147 0.234,-0.134 0.239,-0.124C0.244,-0.115 0.251,-0.109 0.26,-0.106C0.269,-0.103 0.278,-0.101 0.289,-0.101C0.297,-0.101 0.304,-0.101 0.311,-0.103C0.318,-0.104 0.323,-0.105 0.327,-0.106L0.348,-0.005C0.341,-0.003 0.332,-0 0.319,0.002C0.306,0.005 0.291,0.007 0.273,0.007C0.241,0.008 0.212,0.003 0.186,-0.007C0.16,-0.018 0.14,-0.035 0.125,-0.058C0.11,-0.08 0.102,-0.109 0.102,-0.143L0.102,-0.676Z" style="fill:rgb(102,102,102);fill-rule:nonzero;"/>
                    </g>
                    <g transform="matrix(48,0,0,48,630.507,785.641)">
                        <path d="M0.308,0.011C0.253,0.011 0.206,-0.001 0.166,-0.024C0.126,-0.047 0.096,-0.079 0.075,-0.121C0.053,-0.163 0.043,-0.213 0.043,-0.27C0.043,-0.326 0.053,-0.375 0.075,-0.417C0.096,-0.46 0.126,-0.493 0.165,-0.517C0.203,-0.541 0.249,-0.553 0.301,-0.553C0.334,-0.553 0.366,-0.547 0.396,-0.536C0.426,-0.526 0.453,-0.509 0.476,-0.487C0.499,-0.464 0.517,-0.436 0.53,-0.401C0.543,-0.366 0.55,-0.325 0.55,-0.277L0.55,-0.237L0.103,-0.237L0.103,-0.324L0.427,-0.324C0.427,-0.349 0.421,-0.371 0.411,-0.39C0.401,-0.409 0.386,-0.425 0.368,-0.436C0.349,-0.447 0.327,-0.452 0.303,-0.452C0.276,-0.452 0.253,-0.446 0.233,-0.433C0.213,-0.421 0.198,-0.404 0.187,-0.384C0.176,-0.363 0.17,-0.341 0.17,-0.316L0.17,-0.241C0.17,-0.209 0.176,-0.182 0.187,-0.159C0.199,-0.137 0.215,-0.119 0.236,-0.107C0.257,-0.095 0.281,-0.089 0.309,-0.089C0.328,-0.089 0.345,-0.092 0.36,-0.097C0.375,-0.103 0.388,-0.111 0.4,-0.121C0.411,-0.132 0.419,-0.145 0.425,-0.16L0.545,-0.146C0.537,-0.115 0.523,-0.087 0.502,-0.064C0.48,-0.04 0.453,-0.022 0.42,-0.009C0.388,0.004 0.35,0.011 0.308,0.011Z" style="fill:rgb(102,102,102);fill-rule:nonzero;"/>
                    </g>
                    <g transform="matrix(48,0,0,48,658.952,785.641)">
                        <path d="M0.268,0.01C0.226,0.01 0.187,-0.001 0.153,-0.023C0.12,-0.045 0.093,-0.077 0.073,-0.119C0.054,-0.161 0.044,-0.212 0.044,-0.272C0.044,-0.333 0.054,-0.384 0.074,-0.426C0.094,-0.467 0.121,-0.499 0.155,-0.52C0.189,-0.542 0.227,-0.553 0.269,-0.553C0.301,-0.553 0.327,-0.547 0.348,-0.536C0.368,-0.526 0.385,-0.513 0.397,-0.498C0.409,-0.483 0.418,-0.468 0.425,-0.455L0.43,-0.455L0.43,-0.727L0.559,-0.727L0.559,-0L0.432,-0L0.432,-0.086L0.425,-0.086C0.418,-0.073 0.408,-0.059 0.396,-0.044C0.383,-0.029 0.367,-0.016 0.346,-0.006C0.326,0.004 0.3,0.01 0.268,0.01ZM0.304,-0.096C0.332,-0.096 0.355,-0.103 0.374,-0.118C0.393,-0.133 0.408,-0.153 0.418,-0.18C0.428,-0.206 0.433,-0.237 0.433,-0.273C0.433,-0.308 0.428,-0.339 0.418,-0.365C0.408,-0.391 0.393,-0.411 0.374,-0.426C0.355,-0.44 0.332,-0.447 0.304,-0.447C0.276,-0.447 0.252,-0.44 0.233,-0.425C0.214,-0.41 0.199,-0.389 0.189,-0.363C0.18,-0.337 0.175,-0.307 0.175,-0.273C0.175,-0.239 0.18,-0.208 0.19,-0.182C0.199,-0.155 0.214,-0.134 0.233,-0.119C0.252,-0.103 0.276,-0.096 0.304,-0.096Z" style="fill:rgb(102,102,102);fill-rule:nonzero;"/>
                    </g>
                    <g transform="matrix(48,0,0,48,689.212,785.641)">
                    </g>
                    <g transform="matrix(48,0,0,48,701.13,785.641)">
                        <path d="M0.04,-0.617L0.04,-0.727L0.62,-0.727L0.62,-0.617L0.395,-0.617L0.395,-0L0.264,-0L0.264,-0.617L0.04,-0.617Z" style="fill:rgb(102,102,102);fill-rule:nonzero;"/>
                    </g>
                    <g transform="matrix(48,0,0,48,730.066,785.641)">
                        <path d="M0.066,-0L0.066,-0.545L0.191,-0.545L0.191,-0.455L0.196,-0.455C0.206,-0.486 0.223,-0.51 0.248,-0.528C0.272,-0.545 0.3,-0.553 0.331,-0.553C0.338,-0.553 0.346,-0.553 0.355,-0.552C0.364,-0.552 0.371,-0.551 0.377,-0.55L0.377,-0.432C0.372,-0.433 0.363,-0.435 0.351,-0.437C0.34,-0.438 0.328,-0.439 0.318,-0.439C0.294,-0.439 0.273,-0.434 0.254,-0.424C0.236,-0.414 0.221,-0.4 0.211,-0.382C0.2,-0.364 0.195,-0.344 0.195,-0.321L0.195,-0L0.066,-0Z" style="fill:rgb(102,102,102);fill-rule:nonzero;"/>
                    </g>
                    <g transform="matrix(48,0,0,48,748.012,785.641)">
                        <path d="M0.304,0.011C0.251,0.011 0.205,-0.001 0.166,-0.024C0.126,-0.048 0.096,-0.081 0.075,-0.123C0.053,-0.165 0.043,-0.214 0.043,-0.27C0.043,-0.327 0.053,-0.376 0.075,-0.419C0.096,-0.461 0.126,-0.494 0.166,-0.517C0.205,-0.541 0.251,-0.553 0.304,-0.553C0.357,-0.553 0.403,-0.541 0.442,-0.517C0.482,-0.494 0.512,-0.461 0.533,-0.419C0.555,-0.376 0.565,-0.327 0.565,-0.27C0.565,-0.214 0.555,-0.165 0.533,-0.123C0.512,-0.081 0.482,-0.048 0.442,-0.024C0.403,-0.001 0.357,0.011 0.304,0.011ZM0.305,-0.092C0.334,-0.092 0.358,-0.1 0.377,-0.116C0.396,-0.132 0.411,-0.154 0.421,-0.181C0.43,-0.208 0.435,-0.238 0.435,-0.271C0.435,-0.304 0.43,-0.335 0.421,-0.362C0.411,-0.389 0.396,-0.41 0.377,-0.426C0.358,-0.443 0.334,-0.451 0.305,-0.451C0.275,-0.451 0.251,-0.443 0.231,-0.426C0.212,-0.41 0.197,-0.389 0.187,-0.362C0.178,-0.335 0.173,-0.304 0.173,-0.271C0.173,-0.238 0.178,-0.208 0.187,-0.181C0.197,-0.154 0.212,-0.132 0.231,-0.116C0.251,-0.1 0.275,-0.092 0.305,-0.092Z" style="fill:rgb(102,102,102);fill-rule:nonzero;"/>
                    </g>
                    <g transform="matrix(48,0,0,48,777.193,785.641)">
                        <path d="M0.066,0.205L0.066,-0.545L0.192,-0.545L0.192,-0.455L0.2,-0.455C0.207,-0.468 0.216,-0.483 0.228,-0.498C0.24,-0.513 0.256,-0.526 0.277,-0.536C0.298,-0.547 0.324,-0.553 0.356,-0.553C0.398,-0.553 0.436,-0.542 0.47,-0.52C0.504,-0.499 0.531,-0.467 0.551,-0.426C0.571,-0.384 0.581,-0.333 0.581,-0.272C0.581,-0.212 0.571,-0.161 0.552,-0.119C0.532,-0.077 0.505,-0.045 0.471,-0.023C0.437,-0.001 0.399,0.01 0.356,0.01C0.325,0.01 0.299,0.004 0.278,-0.006C0.258,-0.016 0.241,-0.029 0.229,-0.044C0.216,-0.059 0.207,-0.073 0.2,-0.086L0.195,-0.086L0.195,0.205L0.066,0.205ZM0.192,-0.273C0.192,-0.237 0.197,-0.206 0.207,-0.18C0.217,-0.153 0.232,-0.133 0.251,-0.118C0.27,-0.103 0.293,-0.096 0.32,-0.096C0.349,-0.096 0.372,-0.103 0.392,-0.119C0.411,-0.134 0.425,-0.155 0.435,-0.182C0.445,-0.208 0.45,-0.239 0.45,-0.273C0.45,-0.307 0.445,-0.337 0.435,-0.363C0.426,-0.389 0.411,-0.41 0.392,-0.425C0.373,-0.44 0.349,-0.447 0.32,-0.447C0.293,-0.447 0.269,-0.44 0.25,-0.426C0.231,-0.411 0.217,-0.391 0.207,-0.365C0.197,-0.339 0.192,-0.308 0.192,-0.273Z" style="fill:rgb(102,102,102);fill-rule:nonzero;"/>
                    </g>
                    <g transform="matrix(48,0,0,48,807.18,785.641)">
                        <path d="M0.304,0.011C0.251,0.011 0.205,-0.001 0.166,-0.024C0.126,-0.048 0.096,-0.081 0.075,-0.123C0.053,-0.165 0.043,-0.214 0.043,-0.27C0.043,-0.327 0.053,-0.376 0.075,-0.419C0.096,-0.461 0.126,-0.494 0.166,-0.517C0.205,-0.541 0.251,-0.553 0.304,-0.553C0.357,-0.553 0.403,-0.541 0.442,-0.517C0.482,-0.494 0.512,-0.461 0.533,-0.419C0.555,-0.376 0.565,-0.327 0.565,-0.27C0.565,-0.214 0.555,-0.165 0.533,-0.123C0.512,-0.081 0.482,-0.048 0.442,-0.024C0.403,-0.001 0.357,0.011 0.304,0.011ZM0.305,-0.092C0.334,-0.092 0.358,-0.1 0.377,-0.116C0.396,-0.132 0.411,-0.154 0.421,-0.181C0.43,-0.208 0.435,-0.238 0.435,-0.271C0.435,-0.304 0.43,-0.335 0.421,-0.362C0.411,-0.389 0.396,-0.41 0.377,-0.426C0.358,-0.443 0.334,-0.451 0.305,-0.451C0.275,-0.451 0.251,-0.443 0.231,-0.426C0.212,-0.41 0.197,-0.389 0.187,-0.362C0.178,-0.335 0.173,-0.304 0.173,-0.271C0.173,-0.238 0.178,-0.208 0.187,-0.181C0.197,-0.154 0.212,-0.132 0.231,-0.116C0.251,-0.1 0.275,-0.092 0.305,-0.092Z" style="fill:rgb(102,102,102);fill-rule:nonzero;"/>
                    </g>
                    <g transform="matrix(48,0,0,48,836.362,785.641)">
                        <path d="M0.195,-0.32L0.195,-0L0.066,-0L0.066,-0.545L0.189,-0.545L0.189,-0.453L0.195,-0.453C0.208,-0.483 0.228,-0.508 0.255,-0.526C0.283,-0.544 0.317,-0.553 0.358,-0.553C0.396,-0.553 0.428,-0.545 0.456,-0.528C0.484,-0.512 0.506,-0.489 0.522,-0.458C0.537,-0.428 0.545,-0.391 0.545,-0.347L0.545,-0L0.416,-0L0.416,-0.327C0.416,-0.364 0.407,-0.392 0.388,-0.413C0.369,-0.433 0.343,-0.444 0.31,-0.444C0.287,-0.444 0.268,-0.439 0.25,-0.429C0.233,-0.419 0.219,-0.405 0.209,-0.387C0.2,-0.368 0.195,-0.346 0.195,-0.32Z" style="fill:rgb(102,102,102);fill-rule:nonzero;"/>
                    </g>
                    <g transform="matrix(48,0,0,48,865.625,785.641)">
                        <path d="M0.066,-0L0.066,-0.545L0.195,-0.545L0.195,-0L0.066,-0ZM0.131,-0.623C0.11,-0.623 0.093,-0.63 0.078,-0.643C0.064,-0.657 0.056,-0.673 0.056,-0.693C0.056,-0.712 0.064,-0.728 0.078,-0.742C0.093,-0.756 0.11,-0.763 0.131,-0.763C0.151,-0.763 0.169,-0.756 0.183,-0.742C0.198,-0.728 0.205,-0.712 0.205,-0.693C0.205,-0.673 0.198,-0.657 0.183,-0.643C0.169,-0.63 0.151,-0.623 0.131,-0.623Z" style="fill:rgb(102,102,102);fill-rule:nonzero;"/>
                    </g>
                    <g transform="matrix(48,0,0,48,878.13,785.641)">
                        <path d="M0.195,-0.32L0.195,-0L0.066,-0L0.066,-0.545L0.189,-0.545L0.189,-0.453L0.195,-0.453C0.208,-0.483 0.228,-0.508 0.255,-0.526C0.283,-0.544 0.317,-0.553 0.358,-0.553C0.396,-0.553 0.428,-0.545 0.456,-0.528C0.484,-0.512 0.506,-0.489 0.522,-0.458C0.537,-0.428 0.545,-0.391 0.545,-0.347L0.545,-0L0.416,-0L0.416,-0.327C0.416,-0.364 0.407,-0.392 0.388,-0.413C0.369,-0.433 0.343,-0.444 0.31,-0.444C0.287,-0.444 0.268,-0.439 0.25,-0.429C0.233,-0.419 0.219,-0.405 0.209,-0.387C0.2,-0.368 0.195,-0.346 0.195,-0.32Z" style="fill:rgb(102,102,102);fill-rule:nonzero;"/>
                    </g>
                    <g transform="matrix(48,0,0,48,907.394,785.641)">
                    </g>
                </g>
            </g>
        </g>
        <g transform="matrix(1,0,0,1,2182.12,0)">
            <g transform="matrix(1,0,0,1,-6.14766,-10.1419)">
                <g transform="matrix(1.0634,0,0,1.12313,-57.1592,103.413)">
                    <path d="M1067.31,293.709L1067.31,552.342C1067.31,565.936 1055.65,576.974 1041.29,576.974L411.267,576.974C396.909,576.974 385.251,565.936 385.251,552.342L385.251,293.709C385.251,280.115 396.909,269.077 411.267,269.077L1041.29,269.077C1055.65,269.077 1067.31,280.115 1067.31,293.709Z" style="fill:rgb(221,221,221);"/>
                </g>
                <g transform="matrix(1.04537,0,0,1.04537,-44.0667,130.338)">
                    <path d="M1067.31,293.709L1067.31,552.342C1067.31,565.936 1056.27,576.974 1042.67,576.974L409.883,576.974C396.289,576.974 385.251,565.936 385.251,552.342L385.251,293.709C385.251,280.115 396.289,269.077 409.883,269.077L1042.67,269.077C1056.27,269.077 1067.31,280.115 1067.31,293.709Z" style="fill:white;"/>
                </g>
                <g transform="matrix(1.04537,0,0,1.04537,-44.0667,130.338)">
                    <path d="M1067.31,293.709L1067.31,423.026L385.251,423.026L385.251,293.709C385.251,280.115 396.289,269.077 409.883,269.077L1042.67,269.077C1056.27,269.077 1067.31,280.115 1067.31,293.709Z" style="fill:rgb(254,249,194);"/>
                </g>
                <g transform="matrix(1,0,0,1,-79.2885,-276.097)">
                    <g transform="matrix(48,0,0,48,488.709,785.641)">
                        <path d="M0.467,-0.527C0.464,-0.558 0.45,-0.582 0.425,-0.6C0.401,-0.617 0.369,-0.626 0.33,-0.626C0.302,-0.626 0.279,-0.621 0.259,-0.613C0.24,-0.605 0.225,-0.594 0.214,-0.58C0.204,-0.565 0.198,-0.549 0.198,-0.531C0.198,-0.516 0.202,-0.503 0.209,-0.492C0.216,-0.48 0.225,-0.471 0.237,-0.463C0.249,-0.456 0.263,-0.449 0.277,-0.444C0.292,-0.439 0.307,-0.434 0.322,-0.431L0.39,-0.414C0.418,-0.407 0.444,-0.399 0.469,-0.388C0.495,-0.377 0.518,-0.363 0.538,-0.347C0.558,-0.33 0.574,-0.31 0.586,-0.287C0.598,-0.263 0.604,-0.236 0.604,-0.204C0.604,-0.162 0.593,-0.124 0.571,-0.092C0.549,-0.059 0.518,-0.034 0.477,-0.016C0.436,0.002 0.386,0.011 0.328,0.011C0.271,0.011 0.222,0.002 0.181,-0.015C0.139,-0.033 0.107,-0.058 0.083,-0.092C0.06,-0.126 0.047,-0.167 0.045,-0.215L0.175,-0.215C0.177,-0.189 0.185,-0.168 0.198,-0.152C0.212,-0.135 0.23,-0.122 0.252,-0.114C0.275,-0.106 0.299,-0.101 0.327,-0.101C0.355,-0.101 0.38,-0.106 0.402,-0.114C0.424,-0.123 0.441,-0.135 0.453,-0.151C0.466,-0.166 0.472,-0.184 0.472,-0.205C0.472,-0.224 0.466,-0.24 0.455,-0.252C0.445,-0.265 0.429,-0.275 0.41,-0.283C0.39,-0.292 0.367,-0.299 0.341,-0.306L0.259,-0.328C0.199,-0.343 0.151,-0.366 0.117,-0.398C0.082,-0.429 0.065,-0.471 0.065,-0.523C0.065,-0.566 0.076,-0.603 0.1,-0.635C0.123,-0.667 0.155,-0.692 0.195,-0.71C0.235,-0.728 0.281,-0.737 0.332,-0.737C0.383,-0.737 0.428,-0.728 0.467,-0.71C0.506,-0.693 0.537,-0.668 0.559,-0.636C0.581,-0.605 0.593,-0.568 0.594,-0.527L0.467,-0.527Z" style="fill:rgb(51,51,51);fill-rule:nonzero;"/>
                    </g>
                    <g transform="matrix(48,0,0,48,519.868,785.641)">
                        <path d="M0.146,0.205C0.129,0.205 0.112,0.203 0.098,0.2C0.083,0.198 0.071,0.195 0.062,0.191L0.092,0.091C0.111,0.096 0.127,0.099 0.142,0.099C0.157,0.099 0.17,0.094 0.181,0.085C0.192,0.076 0.202,0.062 0.209,0.041L0.22,0.011L0.023,-0.545L0.159,-0.545L0.285,-0.134L0.29,-0.134L0.416,-0.545L0.553,-0.545L0.335,0.066C0.325,0.095 0.311,0.12 0.294,0.14C0.278,0.161 0.257,0.177 0.233,0.188C0.208,0.199 0.18,0.205 0.146,0.205Z" style="fill:rgb(51,51,51);fill-rule:nonzero;"/>
                    </g>
                    <g transform="matrix(48,0,0,48,547.523,785.641)">
                        <path d="M0.066,-0L0.066,-0.545L0.189,-0.545L0.189,-0.453L0.195,-0.453C0.207,-0.484 0.226,-0.508 0.252,-0.526C0.278,-0.544 0.309,-0.553 0.346,-0.553C0.383,-0.553 0.414,-0.544 0.439,-0.526C0.465,-0.508 0.483,-0.484 0.493,-0.453L0.499,-0.453C0.511,-0.483 0.531,-0.507 0.56,-0.525C0.589,-0.544 0.623,-0.553 0.663,-0.553C0.713,-0.553 0.754,-0.537 0.786,-0.505C0.817,-0.473 0.833,-0.427 0.833,-0.366L0.833,-0L0.704,-0L0.704,-0.346C0.704,-0.38 0.695,-0.405 0.677,-0.421C0.659,-0.436 0.637,-0.444 0.611,-0.444C0.58,-0.444 0.556,-0.435 0.538,-0.415C0.521,-0.396 0.513,-0.371 0.513,-0.34L0.513,-0L0.386,-0L0.386,-0.351C0.386,-0.38 0.378,-0.402 0.361,-0.419C0.344,-0.436 0.322,-0.444 0.295,-0.444C0.276,-0.444 0.26,-0.44 0.244,-0.43C0.229,-0.421 0.217,-0.408 0.208,-0.391C0.199,-0.374 0.195,-0.354 0.195,-0.332L0.195,-0L0.066,-0Z" style="fill:rgb(51,51,51);fill-rule:nonzero;"/>
                    </g>
                    <g transform="matrix(48,0,0,48,590.614,785.641)">
                        <path d="M0.066,0.205L0.066,-0.545L0.192,-0.545L0.192,-0.455L0.2,-0.455C0.207,-0.468 0.216,-0.483 0.228,-0.498C0.24,-0.513 0.256,-0.526 0.277,-0.536C0.298,-0.547 0.324,-0.553 0.356,-0.553C0.398,-0.553 0.436,-0.542 0.47,-0.52C0.504,-0.499 0.531,-0.467 0.551,-0.426C0.571,-0.384 0.581,-0.333 0.581,-0.272C0.581,-0.212 0.571,-0.161 0.552,-0.119C0.532,-0.077 0.505,-0.045 0.471,-0.023C0.437,-0.001 0.399,0.01 0.356,0.01C0.325,0.01 0.299,0.004 0.278,-0.006C0.258,-0.016 0.241,-0.029 0.229,-0.044C0.216,-0.059 0.207,-0.073 0.2,-0.086L0.195,-0.086L0.195,0.205L0.066,0.205ZM0.192,-0.273C0.192,-0.237 0.197,-0.206 0.207,-0.18C0.217,-0.153 0.232,-0.133 0.251,-0.118C0.27,-0.103 0.293,-0.096 0.32,-0.096C0.349,-0.096 0.372,-0.103 0.392,-0.119C0.411,-0.134 0.425,-0.155 0.435,-0.182C0.445,-0.208 0.45,-0.239 0.45,-0.273C0.45,-0.307 0.445,-0.337 0.435,-0.363C0.426,-0.389 0.411,-0.41 0.392,-0.425C0.373,-0.44 0.349,-0.447 0.32,-0.447C0.293,-0.447 0.269,-0.44 0.25,-0.426C0.231,-0.411 0.217,-0.391 0.207,-0.365C0.197,-0.339 0.192,-0.308 0.192,-0.273Z" style="fill:rgb(51,51,51);fill-rule:nonzero;"/>
                    </g>
                    <g transform="matrix(48,0,0,48,620.6,785.641)">
                        <path d="M0.338,-0.545L0.338,-0.446L0.025,-0.446L0.025,-0.545L0.338,-0.545ZM0.102,-0.676L0.231,-0.676L0.231,-0.164C0.231,-0.147 0.234,-0.134 0.239,-0.124C0.244,-0.115 0.251,-0.109 0.26,-0.106C0.269,-0.103 0.278,-0.101 0.289,-0.101C0.297,-0.101 0.304,-0.101 0.311,-0.103C0.318,-0.104 0.323,-0.105 0.327,-0.106L0.348,-0.005C0.341,-0.003 0.332,-0 0.319,0.002C0.306,0.005 0.291,0.007 0.273,0.007C0.241,0.008 0.212,0.003 0.186,-0.007C0.16,-0.018 0.14,-0.035 0.125,-0.058C0.11,-0.08 0.102,-0.109 0.102,-0.143L0.102,-0.676Z" style="fill:rgb(51,51,51);fill-rule:nonzero;"/>
                    </g>
                    <g transform="matrix(48,0,0,48,638.573,785.641)">
                        <path d="M0.304,0.011C0.251,0.011 0.205,-0.001 0.166,-0.024C0.126,-0.048 0.096,-0.081 0.075,-0.123C0.053,-0.165 0.043,-0.214 0.043,-0.27C0.043,-0.327 0.053,-0.376 0.075,-0.419C0.096,-0.461 0.126,-0.494 0.166,-0.517C0.205,-0.541 0.251,-0.553 0.304,-0.553C0.357,-0.553 0.403,-0.541 0.442,-0.517C0.482,-0.494 0.512,-0.461 0.533,-0.419C0.555,-0.376 0.565,-0.327 0.565,-0.27C0.565,-0.214 0.555,-0.165 0.533,-0.123C0.512,-0.081 0.482,-0.048 0.442,-0.024C0.403,-0.001 0.357,0.011 0.304,0.011ZM0.305,-0.092C0.334,-0.092 0.358,-0.1 0.377,-0.116C0.396,-0.132 0.411,-0.154 0.421,-0.181C0.43,-0.208 0.435,-0.238 0.435,-0.271C0.435,-0.304 0.43,-0.335 0.421,-0.362C0.411,-0.389 0.396,-0.41 0.377,-0.426C0.358,-0.443 0.334,-0.451 0.305,-0.451C0.275,-0.451 0.251,-0.443 0.231,-0.426C0.212,-0.41 0.197,-0.389 0.187,-0.362C0.178,-0.335 0.173,-0.304 0.173,-0.271C0.173,-0.238 0.178,-0.208 0.187,-0.181C0.197,-0.154 0.212,-0.132 0.231,-0.116C0.251,-0.1 0.275,-0.092 0.305,-0.092Z" style="fill:rgb(51,51,51);fill-rule:nonzero;"/>
                    </g>
                    <g transform="matrix(48,0,0,48,667.755,785.641)">
                        <path d="M0.066,-0L0.066,-0.545L0.189,-0.545L0.189,-0.453L0.195,-0.453C0.207,-0.484 0.226,-0.508 0.252,-0.526C0.278,-0.544 0.309,-0.553 0.346,-0.553C0.383,-0.553 0.414,-0.544 0.439,-0.526C0.465,-0.508 0.483,-0.484 0.493,-0.453L0.499,-0.453C0.511,-0.483 0.531,-0.507 0.56,-0.525C0.589,-0.544 0.623,-0.553 0.663,-0.553C0.713,-0.553 0.754,-0.537 0.786,-0.505C0.817,-0.473 0.833,-0.427 0.833,-0.366L0.833,-0L0.704,-0L0.704,-0.346C0.704,-0.38 0.695,-0.405 0.677,-0.421C0.659,-0.436 0.637,-0.444 0.611,-0.444C0.58,-0.444 0.556,-0.435 0.538,-0.415C0.521,-0.396 0.513,-0.371 0.513,-0.34L0.513,-0L0.386,-0L0.386,-0.351C0.386,-0.38 0.378,-0.402 0.361,-0.419C0.344,-0.436 0.322,-0.444 0.295,-0.444C0.276,-0.444 0.26,-0.44 0.244,-0.43C0.229,-0.421 0.217,-0.408 0.208,-0.391C0.199,-0.374 0.195,-0.354 0.195,-0.332L0.195,-0L0.066,-0Z" style="fill:rgb(51,51,51);fill-rule:nonzero;"/>
                    </g>
                    <g transform="matrix(48,0,0,48,710.846,785.641)">
                    </g>
                </g>
                <g transform="matrix(1,0,0,1,-79.2885,-114.15)">
                    <g transform="matrix(48,0,0,48,488.709,785.641)">
                        <path d="M0.694,-0.482L0.561,-0.482C0.558,-0.504 0.551,-0.523 0.541,-0.54C0.53,-0.557 0.518,-0.571 0.503,-0.583C0.487,-0.595 0.47,-0.604 0.451,-0.61C0.431,-0.616 0.411,-0.619 0.389,-0.619C0.349,-0.619 0.314,-0.609 0.283,-0.589C0.253,-0.57 0.229,-0.541 0.212,-0.503C0.194,-0.465 0.186,-0.418 0.186,-0.364C0.186,-0.308 0.194,-0.261 0.212,-0.223C0.229,-0.185 0.253,-0.157 0.284,-0.137C0.314,-0.118 0.349,-0.108 0.388,-0.108C0.41,-0.108 0.43,-0.111 0.449,-0.117C0.469,-0.123 0.486,-0.131 0.501,-0.143C0.516,-0.154 0.529,-0.168 0.54,-0.185C0.55,-0.201 0.557,-0.22 0.561,-0.241L0.694,-0.241C0.689,-0.206 0.679,-0.174 0.662,-0.143C0.646,-0.113 0.624,-0.086 0.598,-0.063C0.571,-0.04 0.54,-0.022 0.505,-0.009C0.469,0.003 0.43,0.01 0.386,0.01C0.322,0.01 0.265,-0.005 0.215,-0.035C0.165,-0.064 0.126,-0.107 0.097,-0.163C0.068,-0.218 0.053,-0.285 0.053,-0.364C0.053,-0.442 0.068,-0.509 0.097,-0.565C0.126,-0.621 0.166,-0.663 0.216,-0.693C0.266,-0.722 0.323,-0.737 0.386,-0.737C0.427,-0.737 0.464,-0.732 0.499,-0.72C0.534,-0.709 0.565,-0.692 0.592,-0.67C0.62,-0.648 0.642,-0.622 0.66,-0.59C0.677,-0.558 0.689,-0.522 0.694,-0.482Z" style="fill:rgb(102,102,102);fill-rule:nonzero;"/>
                    </g>
                    <g transform="matrix(48,0,0,48,524.409,785.641)">
                        <path d="M0.195,-0.32L0.195,-0L0.066,-0L0.066,-0.727L0.192,-0.727L0.192,-0.453L0.198,-0.453C0.211,-0.484 0.231,-0.508 0.257,-0.526C0.284,-0.544 0.319,-0.553 0.361,-0.553C0.398,-0.553 0.431,-0.545 0.459,-0.529C0.488,-0.513 0.509,-0.49 0.525,-0.459C0.541,-0.428 0.548,-0.391 0.548,-0.347L0.548,-0L0.42,-0L0.42,-0.327C0.42,-0.364 0.41,-0.393 0.391,-0.413C0.373,-0.434 0.346,-0.444 0.313,-0.444C0.29,-0.444 0.269,-0.439 0.252,-0.429C0.234,-0.419 0.22,-0.405 0.21,-0.387C0.2,-0.368 0.195,-0.346 0.195,-0.32Z" style="fill:rgb(102,102,102);fill-rule:nonzero;"/>
                    </g>
                    <g transform="matrix(48,0,0,48,553.836,785.641)">
                        <path d="M0.308,0.011C0.253,0.011 0.206,-0.001 0.166,-0.024C0.126,-0.047 0.096,-0.079 0.075,-0.121C0.053,-0.163 0.043,-0.213 0.043,-0.27C0.043,-0.326 0.053,-0.375 0.075,-0.417C0.096,-0.46 0.126,-0.493 0.165,-0.517C0.203,-0.541 0.249,-0.553 0.301,-0.553C0.334,-0.553 0.366,-0.547 0.396,-0.536C0.426,-0.526 0.453,-0.509 0.476,-0.487C0.499,-0.464 0.517,-0.436 0.53,-0.401C0.543,-0.366 0.55,-0.325 0.55,-0.277L0.55,-0.237L0.103,-0.237L0.103,-0.324L0.427,-0.324C0.427,-0.349 0.421,-0.371 0.411,-0.39C0.401,-0.409 0.386,-0.425 0.368,-0.436C0.349,-0.447 0.327,-0.452 0.303,-0.452C0.276,-0.452 0.253,-0.446 0.233,-0.433C0.213,-0.421 0.198,-0.404 0.187,-0.384C0.176,-0.363 0.17,-0.341 0.17,-0.316L0.17,-0.241C0.17,-0.209 0.176,-0.182 0.187,-0.159C0.199,-0.137 0.215,-0.119 0.236,-0.107C0.257,-0.095 0.281,-0.089 0.309,-0.089C0.328,-0.089 0.345,-0.092 0.36,-0.097C0.375,-0.103 0.388,-0.111 0.4,-0.121C0.411,-0.132 0.419,-0.145 0.425,-0.16L0.545,-0.146C0.537,-0.115 0.523,-0.087 0.502,-0.064C0.48,-0.04 0.453,-0.022 0.42,-0.009C0.388,0.004 0.35,0.011 0.308,0.011Z" style="fill:rgb(102,102,102);fill-rule:nonzero;"/>
                    </g>
                    <g transform="matrix(48,0,0,48,582.282,785.641)">
                        <path d="M0.497,-0.401L0.38,-0.388C0.377,-0.4 0.371,-0.412 0.363,-0.422C0.354,-0.432 0.344,-0.441 0.33,-0.447C0.316,-0.454 0.299,-0.457 0.28,-0.457C0.253,-0.457 0.23,-0.451 0.212,-0.439C0.194,-0.428 0.185,-0.413 0.185,-0.394C0.185,-0.378 0.191,-0.365 0.203,-0.355C0.215,-0.345 0.235,-0.337 0.263,-0.331L0.355,-0.311C0.407,-0.3 0.445,-0.282 0.471,-0.258C0.496,-0.234 0.509,-0.202 0.509,-0.163C0.509,-0.129 0.499,-0.099 0.479,-0.073C0.459,-0.046 0.432,-0.026 0.397,-0.011C0.362,0.003 0.321,0.011 0.276,0.011C0.209,0.011 0.155,-0.003 0.115,-0.031C0.074,-0.06 0.05,-0.099 0.042,-0.149L0.167,-0.161C0.173,-0.136 0.185,-0.118 0.204,-0.105C0.222,-0.093 0.246,-0.086 0.276,-0.086C0.306,-0.086 0.331,-0.093 0.349,-0.105C0.368,-0.118 0.377,-0.133 0.377,-0.152C0.377,-0.167 0.371,-0.18 0.359,-0.19C0.347,-0.201 0.329,-0.208 0.304,-0.214L0.211,-0.233C0.158,-0.244 0.12,-0.263 0.095,-0.289C0.069,-0.314 0.057,-0.347 0.057,-0.387C0.057,-0.421 0.066,-0.45 0.085,-0.475C0.103,-0.499 0.129,-0.518 0.162,-0.532C0.196,-0.546 0.234,-0.553 0.278,-0.553C0.342,-0.553 0.392,-0.539 0.429,-0.512C0.466,-0.484 0.488,-0.448 0.497,-0.401Z" style="fill:rgb(102,102,102);fill-rule:nonzero;"/>
                    </g>
                    <g transform="matrix(48,0,0,48,608.627,785.641)">
                        <path d="M0.338,-0.545L0.338,-0.446L0.025,-0.446L0.025,-0.545L0.338,-0.545ZM0.102,-0.676L0.231,-0.676L0.231,-0.164C0.231,-0.147 0.234,-0.134 0.239,-0.124C0.244,-0.115 0.251,-0.109 0.26,-0.106C0.269,-0.103 0.278,-0.101 0.289,-0.101C0.297,-0.101 0.304,-0.101 0.311,-0.103C0.318,-0.104 0.323,-0.105 0.327,-0.106L0.348,-0.005C0.341,-0.003 0.332,-0 0.319,0.002C0.306,0.005 0.291,0.007 0.273,0.007C0.241,0.008 0.212,0.003 0.186,-0.007C0.16,-0.018 0.14,-0.035 0.125,-0.058C0.11,-0.08 0.102,-0.109 0.102,-0.143L0.102,-0.676Z" style="fill:rgb(102,102,102);fill-rule:nonzero;"/>
                    </g>
                    <g transform="matrix(48,0,0,48,626.873,785.641)">
                    </g>
                    <g transform="matrix(48,0,0,48,638.791,785.641)">
                        <path d="M0.072,-0L0.072,-0.727L0.345,-0.727C0.4,-0.727 0.447,-0.717 0.485,-0.696C0.523,-0.675 0.552,-0.647 0.572,-0.61C0.591,-0.574 0.601,-0.533 0.601,-0.486C0.601,-0.44 0.591,-0.398 0.571,-0.362C0.552,-0.326 0.523,-0.297 0.484,-0.277C0.446,-0.256 0.399,-0.246 0.343,-0.246L0.162,-0.246L0.162,-0.354L0.325,-0.354C0.358,-0.354 0.384,-0.36 0.405,-0.371C0.426,-0.382 0.441,-0.398 0.451,-0.418C0.461,-0.438 0.466,-0.461 0.466,-0.486C0.466,-0.512 0.461,-0.535 0.451,-0.555C0.441,-0.574 0.426,-0.59 0.405,-0.601C0.384,-0.612 0.357,-0.617 0.324,-0.617L0.203,-0.617L0.203,-0L0.072,-0Z" style="fill:rgb(102,102,102);fill-rule:nonzero;"/>
                    </g>
                    <g transform="matrix(48,0,0,48,669.217,785.641)">
                        <path d="M0.223,0.011C0.188,0.011 0.157,0.005 0.13,-0.008C0.102,-0.02 0.08,-0.039 0.064,-0.063C0.048,-0.087 0.04,-0.117 0.04,-0.153C0.04,-0.184 0.046,-0.209 0.058,-0.229C0.069,-0.25 0.085,-0.266 0.104,-0.278C0.124,-0.29 0.146,-0.299 0.171,-0.305C0.195,-0.311 0.221,-0.316 0.247,-0.319C0.28,-0.322 0.306,-0.325 0.325,-0.328C0.345,-0.331 0.36,-0.335 0.369,-0.341C0.378,-0.347 0.382,-0.356 0.382,-0.368L0.382,-0.37C0.382,-0.397 0.374,-0.418 0.359,-0.432C0.343,-0.447 0.32,-0.454 0.29,-0.454C0.259,-0.454 0.234,-0.447 0.215,-0.434C0.197,-0.42 0.185,-0.404 0.178,-0.385L0.058,-0.402C0.068,-0.435 0.083,-0.463 0.105,-0.485C0.127,-0.508 0.154,-0.524 0.185,-0.536C0.217,-0.547 0.251,-0.553 0.289,-0.553C0.316,-0.553 0.342,-0.549 0.368,-0.543C0.394,-0.537 0.418,-0.527 0.439,-0.513C0.461,-0.499 0.478,-0.48 0.491,-0.455C0.505,-0.431 0.511,-0.401 0.511,-0.365L0.511,-0L0.388,-0L0.388,-0.075L0.383,-0.075C0.375,-0.06 0.365,-0.046 0.35,-0.032C0.336,-0.019 0.319,-0.009 0.297,-0.001C0.276,0.007 0.252,0.011 0.223,0.011ZM0.256,-0.084C0.282,-0.084 0.305,-0.089 0.323,-0.099C0.342,-0.109 0.357,-0.123 0.367,-0.14C0.378,-0.157 0.383,-0.175 0.383,-0.196L0.383,-0.26C0.379,-0.257 0.372,-0.253 0.362,-0.251C0.353,-0.248 0.342,-0.245 0.33,-0.243C0.318,-0.241 0.307,-0.239 0.295,-0.237C0.283,-0.236 0.273,-0.234 0.265,-0.233C0.246,-0.231 0.229,-0.226 0.213,-0.22C0.198,-0.215 0.186,-0.206 0.178,-0.196C0.169,-0.185 0.164,-0.172 0.164,-0.155C0.164,-0.132 0.173,-0.114 0.19,-0.102C0.208,-0.09 0.23,-0.084 0.256,-0.084Z" style="fill:rgb(102,102,102);fill-rule:nonzero;"/>
                    </g>
                    <g transform="matrix(48,0,0,48,696.803,785.641)">
                        <path d="M0.066,-0L0.066,-0.545L0.195,-0.545L0.195,-0L0.066,-0ZM0.131,-0.623C0.11,-0.623 0.093,-0.63 0.078,-0.643C0.064,-0.657 0.056,-0.673 0.056,-0.693C0.056,-0.712 0.064,-0.728 0.078,-0.742C0.093,-0.756 0.11,-0.763 0.131,-0.763C0.151,-0.763 0.169,-0.756 0.183,-0.742C0.198,-0.728 0.205,-0.712 0.205,-0.693C0.205,-0.673 0.198,-0.657 0.183,-0.643C0.169,-0.63 0.151,-0.623 0.131,-0.623Z" style="fill:rgb(102,102,102);fill-rule:nonzero;"/>
                    </g>
                    <g transform="matrix(48,0,0,48,709.308,785.641)">
                        <path d="M0.195,-0.32L0.195,-0L0.066,-0L0.066,-0.545L0.189,-0.545L0.189,-0.453L0.195,-0.453C0.208,-0.483 0.228,-0.508 0.255,-0.526C0.283,-0.544 0.317,-0.553 0.358,-0.553C0.396,-0.553 0.428,-0.545 0.456,-0.528C0.484,-0.512 0.506,-0.489 0.522,-0.458C0.537,-0.428 0.545,-0.391 0.545,-0.347L0.545,-0L0.416,-0L0.416,-0.327C0.416,-0.364 0.407,-0.392 0.388,-0.413C0.369,-0.433 0.343,-0.444 0.31,-0.444C0.287,-0.444 0.268,-0.439 0.25,-0.429C0.233,-0.419 0.219,-0.405 0.209,-0.387C0.2,-0.368 0.195,-0.346 0.195,-0.32Z" style="fill:rgb(102,102,102);fill-rule:nonzero;"/>
                    </g>
                    <g transform="matrix(48,0,0,48,738.572,785.641)">
                    </g>
                </g>
            </g>
        </g>
        <g transform="matrix(1,0,0,1,2182.12,0)">
            <g transform="matrix(1,0,0,1,-17.2639,924.545)">
                <path d="M723.279,608.886C723.279,607.23 724.623,605.886 726.279,605.886C727.935,605.886 729.279,607.23 729.279,608.886L729.279,612.684C729.279,614.34 727.935,615.684 726.279,615.684C724.623,615.684 723.279,614.34 723.279,612.684L723.279,608.886ZM723.279,635.474C723.279,633.818 724.623,632.474 726.279,632.474C727.935,632.474 729.279,633.818 729.279,635.474L729.279,643.07C729.279,644.726 727.935,646.07 726.279,646.07C724.623,646.07 723.279,644.726 723.279,643.07L723.279,635.474ZM723.279,665.86C723.279,664.204 724.623,662.86 726.279,662.86C727.935,662.86 729.279,664.204 729.279,665.86L729.279,673.456C729.279,675.112 727.935,676.456 726.279,676.456C724.623,676.456 723.279,675.112 723.279,673.456L723.279,665.86ZM723.279,696.246C723.279,694.59 724.623,693.246 726.279,693.246C727.935,693.246 729.279,694.59 729.279,696.246L729.279,697.044L729.296,697.044C730.952,697.044 732.296,698.388 732.296,700.044C732.296,701.7 730.952,703.044 729.296,703.044L726.279,703.044C724.622,703.044 723.279,701.701 723.279,700.044L723.279,696.246ZM747.399,703.044C745.743,703.044 744.399,701.7 744.399,700.044C744.399,698.388 745.743,697.044 747.399,697.044L753.433,697.044C755.089,697.044 756.433,698.388 756.433,700.044C756.433,701.7 755.089,703.044 753.433,703.044L747.399,703.044ZM771.535,703.044C769.88,703.044 768.535,701.7 768.535,700.044C768.535,698.388 769.88,697.044 771.535,697.044L777.57,697.044C779.226,697.044 780.57,698.388 780.57,700.044C780.57,701.7 779.226,703.044 777.57,703.044L771.535,703.044ZM795.672,703.044C794.016,703.044 792.672,701.7 792.672,700.044C792.672,698.388 794.016,697.044 795.672,697.044L801.706,697.044C803.362,697.044 804.706,698.388 804.706,700.044C804.706,701.7 803.362,703.044 801.706,703.044L795.672,703.044ZM819.808,703.044C818.153,703.044 816.808,701.7 816.808,700.044C816.808,698.388 818.153,697.044 819.808,697.044L825.843,697.044C827.499,697.044 828.843,698.388 828.843,700.044C828.843,701.7 827.499,703.044 825.843,703.044L819.808,703.044ZM843.946,703.044C842.29,703.044 840.946,701.7 840.946,700.044C840.946,698.388 842.29,697.044 843.946,697.044L849.98,697.044C851.636,697.044 852.98,698.388 852.98,700.044C852.98,701.7 851.636,703.044 849.98,703.044L843.946,703.044ZM868.082,703.044C866.426,703.044 865.082,701.7 865.082,700.044C865.082,698.388 866.426,697.044 868.082,697.044L874.117,697.044C875.772,697.044 877.117,698.388 877.117,700.044C877.117,701.7 875.772,703.044 874.117,703.044L868.082,703.044ZM892.219,703.044C890.563,703.044 889.219,701.7 889.219,700.044C889.219,698.388 890.563,697.044 892.219,697.044L898.253,697.044C899.909,697.044 901.253,698.388 901.253,700.044C901.253,701.7 899.909,703.044 898.253,703.044L892.219,703.044ZM916.356,703.044C914.701,703.044 913.356,701.7 913.356,700.044C913.356,698.388 914.701,697.044 916.356,697.044L922.391,697.044C924.047,697.044 925.391,698.388 925.391,700.044C925.391,701.7 924.047,703.044 922.391,703.044L916.356,703.044ZM940.493,703.044C938.838,703.044 937.493,701.7 937.493,700.044C937.493,698.388 938.838,697.044 940.493,697.044L946.528,697.044C948.183,697.044 949.528,698.388 949.528,700.044C949.528,701.7 948.183,703.044 946.528,703.044L940.493,703.044ZM964.63,703.044C962.974,703.044 961.63,701.7 961.63,700.044C961.63,698.388 962.974,697.044 964.63,697.044L970.664,697.044C972.32,697.044 973.664,698.388 973.664,700.044C973.664,701.7 972.32,703.044 970.664,703.044L964.63,703.044ZM988.766,703.044C987.11,703.044 985.766,701.7 985.766,700.044C985.766,698.388 987.11,697.044 988.766,697.044L994.8,697.044C996.455,697.044 997.8,698.388 997.8,700.044C997.8,701.7 996.455,703.044 994.8,703.044L988.766,703.044ZM1012.9,703.044C1011.25,703.044 1009.9,701.7 1009.9,700.044C1009.9,698.388 1011.25,697.044 1012.9,697.044L1018.94,697.044C1020.59,697.044 1021.94,698.388 1021.94,700.044C1021.94,701.7 1020.59,703.044 1018.94,703.044L1012.9,703.044ZM1037.04,703.044C1035.38,703.044 1034.04,701.7 1034.04,700.044C1034.04,698.388 1035.38,697.044 1037.04,697.044L1043.08,697.044C1044.73,697.044 1046.08,698.388 1046.08,700.044C1046.08,701.7 1044.73,703.044 1043.08,703.044L1037.04,703.044ZM1061.18,703.044C1059.52,703.044 1058.18,701.7 1058.18,700.044C1058.18,698.388 1059.52,697.044 1061.18,697.044L1067.21,697.044C1068.87,697.044 1070.21,698.388 1070.21,700.044C1070.21,701.7 1068.87,703.044 1067.21,703.044L1061.18,703.044ZM1085.31,703.044C1083.66,703.044 1082.31,701.7 1082.31,700.044C1082.31,698.388 1083.66,697.044 1085.31,697.044L1091.35,697.044C1093,697.044 1094.35,698.388 1094.35,700.044C1094.35,701.7 1093,703.044 1091.35,703.044L1085.31,703.044ZM1109.45,703.044C1107.79,703.044 1106.45,701.7 1106.45,700.044C1106.45,698.388 1107.79,697.044 1109.45,697.044L1115.48,697.044C1117.14,697.044 1118.48,698.388 1118.48,700.044C1118.48,701.7 1117.14,703.044 1115.48,703.044L1109.45,703.044ZM1133.59,703.044C1131.93,703.044 1130.59,701.7 1130.59,700.044C1130.59,698.388 1131.93,697.044 1133.59,697.044L1139.62,697.044C1141.28,697.044 1142.62,698.388 1142.62,700.044C1142.62,701.7 1141.28,703.044 1139.62,703.044L1133.59,703.044ZM1157.72,703.044C1156.07,703.044 1154.72,701.7 1154.72,700.044C1154.72,698.388 1156.07,697.044 1157.72,697.044L1163.76,697.044C1165.41,697.044 1166.76,698.388 1166.76,700.044C1166.76,701.7 1165.41,703.044 1163.76,703.044L1157.72,703.044ZM1181.86,703.044C1180.2,703.044 1178.86,701.7 1178.86,700.044C1178.86,698.388 1180.2,697.044 1181.86,697.044L1181.88,697.044L1181.88,697.016C1181.88,695.36 1183.22,694.016 1184.88,694.016C1186.53,694.016 1187.88,695.36 1187.88,697.016L1187.88,700.044C1187.88,701.701 1186.53,703.044 1184.88,703.044L1181.86,703.044ZM1187.88,678.843C1187.88,680.499 1186.53,681.843 1184.88,681.843C1183.22,681.843 1181.88,680.499 1181.88,678.843L1181.88,672.786C1181.88,671.13 1183.22,669.786 1184.88,669.786C1186.53,669.786 1187.88,671.13 1187.88,672.786L1187.88,678.843ZM1187.88,654.614C1187.88,656.27 1186.53,657.614 1184.88,657.614C1183.22,657.614 1181.88,656.27 1181.88,654.614L1181.88,648.557C1181.88,646.901 1183.22,645.557 1184.88,645.557C1186.53,645.557 1187.88,646.901 1187.88,648.557L1187.88,654.614ZM1187.88,630.384C1187.88,632.04 1186.53,633.384 1184.88,633.384C1183.22,633.384 1181.88,632.04 1181.88,630.384L1181.88,624.326C1181.88,622.671 1183.22,621.326 1184.88,621.326C1186.53,621.326 1187.88,622.671 1187.88,624.326L1187.88,630.384ZM1187.88,606.156C1187.88,607.812 1186.53,609.156 1184.88,609.156C1183.22,609.156 1181.88,607.812 1181.88,606.156L1181.88,600.099C1181.88,598.443 1183.22,597.099 1184.88,597.099C1186.53,597.099 1187.88,598.443 1187.88,600.099L1187.88,606.156ZM1187.88,581.927C1187.88,583.582 1186.53,584.927 1184.88,584.927C1183.22,584.927 1181.88,583.582 1181.88,581.927L1181.88,575.869C1181.88,574.213 1183.22,572.869 1184.88,572.869C1186.53,572.869 1187.88,574.213 1187.88,575.869L1187.88,581.927ZM1187.88,557.697C1187.88,559.353 1186.53,560.697 1184.88,560.697C1183.22,560.697 1181.88,559.353 1181.88,557.697L1181.88,551.641C1181.88,549.985 1183.22,548.641 1184.88,548.641C1186.53,548.641 1187.88,549.985 1187.88,551.641L1187.88,557.697ZM1187.88,533.467C1187.88,535.123 1186.53,536.467 1184.88,536.467C1183.22,536.467 1181.88,535.123 1181.88,533.467L1181.88,527.409C1181.88,525.753 1183.22,524.409 1184.88,524.409C1186.53,524.409 1187.88,525.753 1187.88,527.409L1187.88,533.467ZM1187.88,509.238C1187.88,510.894 1186.53,512.238 1184.88,512.238C1183.22,512.238 1181.88,510.894 1181.88,509.238L1181.88,503.18C1181.88,501.525 1183.22,500.18 1184.88,500.18C1186.53,500.18 1187.88,501.525 1187.88,503.18L1187.88,509.238ZM1187.88,485.01C1187.88,486.665 1186.53,488.01 1184.88,488.01C1183.22,488.01 1181.88,486.665 1181.88,485.01L1181.88,478.952C1181.88,477.296 1183.22,475.952 1184.88,475.952C1186.53,475.952 1187.88,477.296 1187.88,478.952L1187.88,485.01ZM1187.88,460.78C1187.88,462.436 1186.53,463.78 1184.88,463.78C1183.22,463.78 1181.88,462.436 1181.88,460.78L1181.88,454.723C1181.88,453.067 1183.22,451.723 1184.88,451.723C1186.53,451.723 1187.88,453.067 1187.88,454.723L1187.88,460.78ZM1187.88,436.55C1187.88,438.205 1186.53,439.55 1184.88,439.55C1183.22,439.55 1181.88,438.205 1181.88,436.55L1181.88,430.492C1181.88,428.836 1183.22,427.492 1184.88,427.492C1186.53,427.492 1187.88,428.836 1187.88,430.492L1187.88,436.55ZM1187.88,412.321C1187.88,413.976 1186.53,415.321 1184.88,415.321C1183.22,415.321 1181.88,413.976 1181.88,412.321L1181.88,406.264C1181.88,404.608 1183.22,403.264 1184.88,403.264C1186.53,403.264 1187.88,404.608 1187.88,406.264L1187.88,412.321ZM1187.88,388.091C1187.88,389.747 1186.53,391.091 1184.88,391.091C1183.22,391.091 1181.88,389.747 1181.88,388.091L1181.88,382.034C1181.88,380.378 1183.22,379.034 1184.88,379.034C1186.53,379.034 1187.88,380.378 1187.88,382.034L1187.88,388.091ZM1187.88,363.862C1187.88,365.518 1186.53,366.862 1184.88,366.862C1183.22,366.862 1181.88,365.518 1181.88,363.862L1181.88,357.805C1181.88,356.149 1183.22,354.805 1184.88,354.805C1186.53,354.805 1187.88,356.149 1187.88,357.805L1187.88,363.862ZM1187.88,339.632C1187.88,341.288 1186.53,342.632 1184.88,342.632C1183.22,342.632 1181.88,341.288 1181.88,339.632L1181.88,333.575C1181.88,331.92 1183.22,330.575 1184.88,330.575C1186.53,330.575 1187.88,331.92 1187.88,333.575L1187.88,339.632ZM1187.88,315.403C1187.88,317.059 1186.53,318.403 1184.88,318.403C1183.22,318.403 1181.88,317.059 1181.88,315.403L1181.88,309.345C1181.88,307.69 1183.22,306.345 1184.88,306.345C1186.53,306.345 1187.88,307.69 1187.88,309.345L1187.88,315.403ZM1187.88,291.174C1187.88,292.829 1186.53,294.174 1184.88,294.174C1183.22,294.174 1181.88,292.829 1181.88,291.174L1181.88,285.117C1181.88,283.461 1183.22,282.117 1184.88,282.117C1186.53,282.117 1187.88,283.461 1187.88,285.117L1187.88,291.174ZM1187.88,266.944C1187.88,268.6 1186.53,269.944 1184.88,269.944C1183.22,269.944 1181.88,268.6 1181.88,266.944L1181.88,260.887C1181.88,259.231 1183.22,257.887 1184.88,257.887C1186.53,257.887 1187.88,259.231 1187.88,260.887L1187.88,266.944ZM1187.88,242.717C1187.88,244.372 1186.53,245.717 1184.88,245.717C1183.22,245.717 1181.88,244.372 1181.88,242.717L1181.88,236.66C1181.88,235.004 1183.22,233.66 1184.88,233.66C1186.53,233.66 1187.88,235.004 1187.88,236.66L1187.88,242.717ZM1187.88,218.485C1187.88,220.141 1186.53,221.485 1184.88,221.485C1183.22,221.485 1181.88,220.141 1181.88,218.485L1181.88,212.427C1181.88,210.772 1183.22,209.427 1184.88,209.427C1186.53,209.427 1187.88,210.772 1187.88,212.427L1187.88,218.485ZM1187.88,194.256C1187.88,195.912 1186.53,197.256 1184.88,197.256C1183.22,197.256 1181.88,195.912 1181.88,194.256L1181.88,188.199C1181.88,186.543 1183.22,185.199 1184.88,185.199C1186.53,185.199 1187.88,186.543 1187.88,188.199L1187.88,194.256ZM1187.88,170.029C1187.88,171.684 1186.53,173.029 1184.88,173.029C1183.22,173.029 1181.88,171.684 1181.88,170.029L1181.88,163.972C1181.88,162.316 1183.22,160.972 1184.88,160.972C1186.53,160.972 1187.88,162.316 1187.88,163.972L1187.88,170.029ZM1187.88,145.799C1187.88,147.454 1186.53,148.799 1184.88,148.799C1183.22,148.799 1181.88,147.454 1181.88,145.799L1181.88,139.741C1181.88,138.085 1183.22,136.741 1184.88,136.741C1186.53,136.741 1187.88,138.085 1187.88,139.741L1187.88,145.799ZM1187.88,121.569C1187.88,123.224 1186.53,124.569 1184.88,124.569C1183.22,124.569 1181.88,123.224 1181.88,121.569L1181.88,115.511C1181.88,113.856 1183.22,112.511 1184.88,112.511C1186.53,112.511 1187.88,113.856 1187.88,115.511L1187.88,121.569ZM1187.88,97.339C1187.88,98.995 1186.53,100.339 1184.88,100.339C1183.22,100.339 1181.88,98.995 1181.88,97.339L1181.88,91.281C1181.88,89.626 1183.22,88.281 1184.88,88.281C1186.53,88.281 1187.88,89.626 1187.88,91.281L1187.88,97.339ZM1187.88,73.111C1187.88,74.766 1186.53,76.111 1184.88,76.111C1183.22,76.111 1181.88,74.766 1181.88,73.111L1181.88,67.054C1181.88,65.398 1183.22,64.054 1184.88,64.054C1186.53,64.054 1187.88,65.398 1187.88,67.054L1187.88,73.111ZM1187.88,48.882C1187.88,50.538 1186.53,51.882 1184.88,51.882C1183.22,51.882 1181.88,50.538 1181.88,48.882L1181.88,42.825C1181.88,41.169 1183.22,39.825 1184.88,39.825C1186.53,39.825 1187.88,41.169 1187.88,42.825L1187.88,48.882ZM1187.88,24.652C1187.88,26.307 1186.53,27.652 1184.88,27.652C1183.22,27.652 1181.88,26.307 1181.88,24.652L1181.88,18.594C1181.88,16.939 1183.22,15.594 1184.88,15.594C1186.53,15.594 1187.88,16.939 1187.88,18.594L1187.88,24.652ZM1187.88,0.423C1187.88,2.079 1186.53,3.423 1184.88,3.423C1183.22,3.423 1181.88,2.079 1181.88,0.423L1181.88,-5.634C1181.88,-7.29 1183.22,-8.634 1184.88,-8.634C1186.53,-8.634 1187.88,-7.29 1187.88,-5.634L1187.88,0.423ZM1187.88,-23.807C1187.88,-22.152 1186.53,-20.807 1184.88,-20.807C1183.22,-20.807 1181.88,-22.152 1181.88,-23.807L1181.88,-29.864C1181.88,-31.52 1183.22,-32.864 1184.88,-32.864C1186.53,-32.864 1187.88,-31.52 1187.88,-29.864L1187.88,-23.807ZM1187.88,-48.037C1187.88,-46.381 1186.53,-45.037 1184.88,-45.037C1183.22,-45.037 1181.88,-46.381 1181.88,-48.037L1181.88,-54.094C1181.88,-55.75 1183.22,-57.094 1184.88,-57.094C1186.53,-57.094 1187.88,-55.75 1187.88,-54.094L1187.88,-48.037ZM1187.88,-72.266C1187.88,-70.61 1186.53,-69.266 1184.88,-69.266C1183.22,-69.266 1181.88,-70.61 1181.88,-72.266L1181.88,-78.323C1181.88,-79.979 1183.22,-81.323 1184.88,-81.323C1186.53,-81.323 1187.88,-79.979 1187.88,-78.323L1187.88,-72.266ZM1187.88,-96.495C1187.88,-94.839 1186.53,-93.495 1184.88,-93.495C1183.22,-93.495 1181.88,-94.839 1181.88,-96.495L1181.88,-102.553C1181.88,-104.208 1183.22,-105.553 1184.88,-105.553C1186.53,-105.553 1187.88,-104.208 1187.88,-102.553L1187.88,-96.495ZM1187.88,-120.724C1187.88,-119.068 1186.53,-117.724 1184.88,-117.724C1183.22,-117.724 1181.88,-119.068 1181.88,-120.724L1181.88,-126.781C1181.88,-128.437 1183.22,-129.781 1184.88,-129.781C1186.53,-129.781 1187.88,-128.437 1187.88,-126.781L1187.88,-120.724ZM1187.88,-144.954C1187.88,-143.298 1186.53,-141.954 1184.88,-141.954C1183.22,-141.954 1181.88,-143.298 1181.88,-144.954L1181.88,-147.982C1181.88,-149.639 1183.22,-150.982 1184.88,-150.982L1187.98,-150.982C1189.64,-150.982 1190.98,-149.638 1190.98,-147.982C1190.98,-146.327 1189.64,-144.982 1187.98,-144.982L1187.88,-144.982L1187.88,-144.954ZM1206.61,-144.982C1204.95,-144.982 1203.61,-146.327 1203.61,-147.982C1203.61,-149.638 1204.95,-150.982 1206.61,-150.982L1212.82,-150.982C1214.47,-150.982 1215.82,-149.638 1215.82,-147.982C1215.82,-146.327 1214.47,-144.982 1212.82,-144.982L1206.61,-144.982ZM1231.44,-144.982C1229.79,-144.982 1228.44,-146.327 1228.44,-147.982C1228.44,-149.638 1229.79,-150.982 1231.44,-150.982L1237.65,-150.982C1239.31,-150.982 1240.65,-149.638 1240.65,-147.982C1240.65,-146.327 1239.31,-144.982 1237.65,-144.982L1231.44,-144.982ZM1256.28,-144.982C1254.62,-144.982 1253.28,-146.327 1253.28,-147.982C1253.28,-149.638 1254.62,-150.982 1256.28,-150.982L1262.49,-150.982C1264.14,-150.982 1265.49,-149.638 1265.49,-147.982C1265.49,-146.327 1264.14,-144.982 1262.49,-144.982L1256.28,-144.982ZM1281.11,-144.982C1279.46,-144.982 1278.11,-146.327 1278.11,-147.982C1278.11,-149.638 1279.46,-150.982 1281.11,-150.982L1287.32,-150.982C1288.98,-150.982 1290.32,-149.638 1290.32,-147.982C1290.32,-146.327 1288.98,-144.982 1287.32,-144.982L1281.11,-144.982ZM1305.95,-144.982C1304.29,-144.982 1302.95,-146.327 1302.95,-147.982C1302.95,-149.638 1304.29,-150.982 1305.95,-150.982L1312.15,-150.982C1313.81,-150.982 1315.15,-149.638 1315.15,-147.982C1315.15,-146.327 1313.81,-144.982 1312.15,-144.982L1305.95,-144.982ZM1330.78,-144.982C1329.12,-144.982 1327.78,-146.327 1327.78,-147.982C1327.78,-149.638 1329.12,-150.982 1330.78,-150.982L1333.88,-150.982C1335.54,-150.982 1336.88,-149.638 1336.88,-147.982C1336.88,-146.327 1335.54,-144.982 1333.88,-144.982L1330.78,-144.982Z" style="fill:rgb(170,170,170);"/>
            </g>
        </g>
        <g transform="matrix(1,0,0,1,2182.12,0)">
            <g transform="matrix(1,0,0,1,-17.2639,317.532)">
                <path d="M1184.88,839.85C1183.22,839.85 1181.88,838.506 1181.88,836.85C1181.88,835.195 1183.22,833.85 1184.88,833.85L1187.98,833.85C1189.64,833.85 1190.98,835.195 1190.98,836.85C1190.98,838.506 1189.64,839.85 1187.98,839.85L1184.88,839.85ZM1206.61,839.85C1204.95,839.85 1203.61,838.506 1203.61,836.85C1203.61,835.195 1204.95,833.85 1206.61,833.85L1212.82,833.85C1214.47,833.85 1215.82,835.195 1215.82,836.85C1215.82,838.506 1214.47,839.85 1212.82,839.85L1206.61,839.85ZM1231.44,839.85C1229.79,839.85 1228.44,838.506 1228.44,836.85C1228.44,835.195 1229.79,833.85 1231.44,833.85L1237.65,833.85C1239.31,833.85 1240.65,835.195 1240.65,836.85C1240.65,838.506 1239.31,839.85 1237.65,839.85L1231.44,839.85ZM1256.28,839.85C1254.62,839.85 1253.28,838.506 1253.28,836.85C1253.28,835.195 1254.62,833.85 1256.28,833.85L1262.49,833.85C1264.14,833.85 1265.49,835.195 1265.49,836.85C1265.49,838.506 1264.14,839.85 1262.49,839.85L1256.28,839.85ZM1281.11,839.85C1279.46,839.85 1278.11,838.506 1278.11,836.85C1278.11,835.195 1279.46,833.85 1281.11,833.85L1287.32,833.85C1288.98,833.85 1290.32,835.195 1290.32,836.85C1290.32,838.506 1288.98,839.85 1287.32,839.85L1281.11,839.85ZM1305.95,839.85C1304.29,839.85 1302.95,838.506 1302.95,836.85C1302.95,835.195 1304.29,833.85 1305.95,833.85L1312.15,833.85C1313.81,833.85 1315.15,835.195 1315.15,836.85C1315.15,838.506 1313.81,839.85 1312.15,839.85L1305.95,839.85ZM1330.78,839.85C1329.12,839.85 1327.78,838.506 1327.78,836.85C1327.78,835.195 1329.12,833.85 1330.78,833.85L1333.88,833.85C1335.54,833.85 1336.88,835.195 1336.88,836.85C1336.88,838.506 1335.54,839.85 1333.88,839.85L1330.78,839.85Z" style="fill:rgb(170,170,170);"/>
            </g>
        </g>
        <g transform="matrix(1,0,0,1,2182.12,0)">
            <g transform="matrix(1,0,0,1,-67.6301,318.663)">
                <g transform="matrix(1.10083,0,0,1.10083,-122.926,-84.3347)">
                    <circle cx="1485.87" cy="492.15" r="116.736" style="fill:rgb(221,221,221);"/>
                </g>
                <g transform="matrix(1,0,0,1,26.887,-41.4834)">
                    <circle cx="1485.87" cy="492.15" r="116.736" style="fill:white;"/>
                </g>
            </g>
        </g>
        <g transform="matrix(1,0,0,1,2182.12,0)">
            <g transform="matrix(1,0,0,1,-67.6301,703.715)">
                <g transform="matrix(1.10083,0,0,1.10083,-122.926,-84.3347)">
                    <circle cx="1485.87" cy="492.15" r="116.736" style="fill:rgb(221,221,221);"/>
                </g>
                <g transform="matrix(1,0,0,1,26.887,-41.4834)">
                    <circle cx="1485.87" cy="492.15" r="116.736" style="fill:white;"/>
                </g>
            </g>
        </g>
        <g transform="matrix(1,0,0,1,2182.12,0)">
            <g transform="matrix(1,0,0,1,-6.14766,-10.1419)">
                <path d="M715.163,751.432L715.163,801.694" style="fill:none;"/>
                <path d="M712.163,751.432C712.163,749.776 713.507,748.432 715.163,748.432C716.818,748.432 718.163,749.776 718.163,751.432L718.163,754.573C718.163,756.229 716.818,757.573 715.163,757.573C713.507,757.573 712.163,756.229 712.163,754.573L712.163,751.432ZM712.163,773.421C712.163,771.765 713.507,770.421 715.163,770.421C716.818,770.421 718.163,771.765 718.163,773.421L718.163,779.704C718.163,781.36 716.818,782.704 715.163,782.704C713.507,782.704 712.163,781.36 712.163,779.704L712.163,773.421ZM712.163,798.552C712.163,796.896 713.507,795.552 715.163,795.552C716.818,795.552 718.163,796.896 718.163,798.552L718.163,801.694C718.163,803.349 716.818,804.694 715.163,804.694C713.507,804.694 712.163,803.349 712.163,801.694L712.163,798.552Z" style="fill:rgb(170,170,170);"/>
            </g>
        </g>
        <g transform="matrix(1,0,0,1,2182.12,0)">
            <g transform="matrix(1,0,0,1,-6.14766,385.929)">
                <path d="M715.163,751.432L715.163,801.694" style="fill:none;"/>
                <path d="M712.163,751.432C712.163,749.776 713.507,748.432 715.163,748.432C716.818,748.432 718.163,749.776 718.163,751.432L718.163,754.573C718.163,756.229 716.818,757.573 715.163,757.573C713.507,757.573 712.163,756.229 712.163,754.573L712.163,751.432ZM712.163,773.421C712.163,771.765 713.507,770.421 715.163,770.421C716.818,770.421 718.163,771.765 718.163,773.421L718.163,779.704C718.163,781.36 716.818,782.704 715.163,782.704C713.507,782.704 712.163,781.36 712.163,779.704L712.163,773.421ZM712.163,798.552C712.163,796.896 713.507,795.552 715.163,795.552C716.818,795.552 718.163,796.896 718.163,798.552L718.163,801.694C718.163,803.349 716.818,804.694 715.163,804.694C713.507,804.694 712.163,803.349 712.163,801.694L712.163,798.552Z" style="fill:rgb(170,170,170);"/>
            </g>
        </g>
        <g transform="matrix(1,0,0,1,2182.12,0)">
            <g transform="matrix(6.3,0,0,6.3,1369.53,693.73)">
                <path d="M11.99,2C6.47,2 2,6.48 2,12C2,17.52 6.47,22 11.99,22C17.52,22 22,17.52 22,12C22,6.48 17.52,2 11.99,2ZM12,20C7.58,20 4,16.42 4,12C4,7.58 7.58,4 12,4C16.42,4 20,7.58 20,12C20,16.42 16.42,20 12,20ZM15.5,11C16.33,11 17,10.33 17,9.5C17,8.67 16.33,8 15.5,8C14.67,8 14,8.67 14,9.5C14,10.33 14.67,11 15.5,11ZM8.5,11C9.33,11 10,10.33 10,9.5C10,8.67 9.33,8 8.5,8C7.67,8 7,8.67 7,9.5C7,10.33 7.67,11 8.5,11ZM12,17.5C14.33,17.5 16.31,16.04 17.11,14L6.89,14C7.69,16.04 9.67,17.5 12,17.5Z" style="fill:rgb(51,51,51);fill-rule:nonzero;"/>
            </g>
        </g>
        <g transform="matrix(1,0,0,1,2182.12,0)">
            <g transform="matrix(6.3,0,0,6.3,1369.53,1078.78)">
                <path d="M20,3L4,3C2.9,3 2,3.9 2,5L2,19C2,20.1 2.9,21 4,21L20,21C21.1,21 22,20.1 22,19L22,5C22,3.9 21.1,3 20,3ZM20,19L4,19L4,5L20,5L20,19Z" style="fill:rgb(51,51,51);"/>
                <path d="M19.41,10.42L17.99,9L14.82,12.17L13.41,10.75L12,12.16L14.82,15L19.41,10.42Z" style="fill:rgb(51,51,51);"/>
                <rect x="5" y="7" width="5" height="2" style="fill:rgb(51,51,51);"/>
                <rect x="5" y="11" width="5" height="2" style="fill:rgb(51,51,51);"/>
                <rect x="5" y="15" width="5" height="2" style="fill:rgb(51,51,51);"/>
            </g>
        </g>
    </g>
</svg>
