<?xml version="1.0" encoding="UTF-8" standalone="no"?>
<!DOCTYPE svg PUBLIC "-//W3C//DTD SVG 1.1//EN" "http://www.w3.org/Graphics/SVG/1.1/DTD/svg11.dtd">
<svg width="100%" height="100%" viewBox="0 0 231 259" version="1.1" xmlns="http://www.w3.org/2000/svg" xmlns:xlink="http://www.w3.org/1999/xlink" xml:space="preserve" xmlns:serif="http://www.serif.com/" style="fill-rule:evenodd;clip-rule:evenodd;stroke-linejoin:round;stroke-miterlimit:2;">
    <g transform="matrix(1,0,0,1,-8194.387372,-5097.619185)">
        <g transform="matrix(2.0873,0,0,5.541268,-8680.3892,-30100.940516)">
            <g transform="matrix(0.474506,0.667061,2.461742,-0.248468,7253.946857,6217.323982)">
                <path d="M349.499,295.469L349.492,297.973L349.492,308.464C349.492,311.06 348.6,313.053 346.817,314.442C345.034,315.832 342.444,316.527 339.047,316.527C335.651,316.527 333.061,315.832 331.278,314.442C329.495,313.053 328.603,311.06 328.603,308.464L328.603,305.751L324.832,305.751C321.223,305.751 318.453,305.11 316.521,303.827C314.589,302.544 313.623,300.681 313.623,298.238C313.623,295.794 314.589,293.931 316.521,292.649C318.453,291.366 321.223,290.725 324.832,290.725L342.868,290.725L342.868,277.724C342.868,275.128 343.759,273.135 345.543,271.746C347.326,270.356 349.916,269.661 353.312,269.661C356.709,269.661 359.299,270.356 361.082,271.746C362.865,273.135 363.756,275.128 363.756,277.724L363.756,280.437L367.528,280.437C371.136,280.437 373.907,281.078 375.838,282.361C377.77,283.644 378.736,285.507 378.736,287.95C378.736,290.394 377.77,292.257 375.838,293.539C373.907,294.822 371.136,295.463 367.528,295.463L352.944,295.463L349.499,295.469ZM342.868,295.479L333.047,295.489L324.322,295.489C321.435,295.489 319.992,296.359 319.992,298.1C319.992,299.841 321.435,300.712 324.322,300.712L332.74,300.712C332.904,300.712 333.059,300.727 333.206,300.757C333.718,300.817 334.265,301.019 334.723,301.348C335.181,301.678 335.462,302.072 335.545,302.44C335.586,302.545 335.608,302.657 335.608,302.775L335.608,308.83C335.608,310.907 336.818,311.946 339.238,311.946C341.658,311.946 342.868,310.907 342.868,308.83L342.868,295.479ZM359.154,285.431C358.642,285.371 358.094,285.169 357.636,284.84C357.178,284.51 356.897,284.116 356.814,283.748C356.773,283.643 356.751,283.531 356.751,283.413L356.751,277.358C356.751,275.281 355.541,274.243 353.121,274.243C350.701,274.243 349.491,275.281 349.491,277.358L349.491,283.634L349.477,290.699L368.037,290.699C370.924,290.699 372.368,289.829 372.368,288.088C372.368,286.347 370.924,285.476 368.037,285.476L359.619,285.476C359.456,285.476 359.3,285.461 359.154,285.431Z" style="fill:rgb(8,75,63);"/>
            </g>
        </g>
    </g>
</svg>
